<svg xmlns="http://www.w3.org/2000/svg" width="1395.536" height="1672"><svg x="258.476" y="254" width="508.524" height="429"><path d="M469.524 402H263.762q-10 0-10-10V60q0-10-10-10H32h211.762q10 0 10 10v332q0 10 10 10h205.762zm6 0h10M32 50H22m453.524 352l-.058.585-.17.563-.278.519-.373.454-.454.373-.519.278-.563.17-.585.058-.585-.058-.563-.17-.519-.278-.454-.373-.373-.454-.278-.519-.17-.563-.058-.585.058-.585.17-.563.278-.519.373-.454.454-.373.519-.278.563-.17.585-.058.585.058.563.17.519.278.454.373.373.454.278.519.17.563.058.585M22 46l9 4-9 4" fill="none" stroke="#9B9CA4"/><text x="459.159" y="397" font-family="&quot;Open Sans&quot;,sans-serif" font-size="14" font-weight="400" fill="transparent">0..1</text><text x="25" y="45" font-family="&quot;Open Sans&quot;,sans-serif" font-size="14" font-weight="400" fill="transparent">*</text></svg><svg x="916.491" y="-2" width="226.509" height="77"><path d="M193.51 50H32h161.51zm0 0h10M32 50H22m171.51-4v8M22 46l9 4-9 4" fill="none" stroke="#9B9CA4"/><text x="192.504" y="45" font-family="&quot;Open Sans&quot;,sans-serif" font-size="14" font-weight="400" fill="transparent">1</text><text x="25" y="45" font-family="&quot;Open Sans&quot;,sans-serif" font-size="14" font-weight="400" fill="transparent">*</text></svg><svg x="258.476" y="30" width="508.524" height="485"><path d="M32 458h211.762q10 0 10-10V60q0-10 10-10h211.762-211.762q-10 0-10 10v388q0 10-10 10H32zm0 0H22M475.524 50h10M32 454v8M485.524 46l-9 4 9 4" fill="none" stroke="#9B9CA4"/><text x="25" y="453" font-family="&quot;Open Sans&quot;,sans-serif" font-size="14" font-weight="400" fill="transparent">1</text><text x="474.813" y="45" font-family="&quot;Open Sans&quot;,sans-serif" font-size="14" font-weight="400" fill="transparent">*</text></svg><svg x="272.377" y="190" width="870.623" height="693"><path d="M32 666h392.812q10 0 10-10V60q0-10 10-10h392.811-392.811q-10 0-10 10v596q0 10-10 10H32zm0 0H22M837.623 50h10M32 662v8M847.623 46l-9 4 9 4" fill="none" stroke="#9B9CA4"/><text x="25" y="661" font-family="&quot;Open Sans&quot;,sans-serif" font-size="14" font-weight="400" fill="transparent">1</text><text x="836.912" y="45" font-family="&quot;Open Sans&quot;,sans-serif" font-size="14" font-weight="400" fill="transparent">*</text></svg><svg x="258.476" y="622" width="58.901" height="261"><path d="M45.9 234h5q5 0 5-5V56.95q0-6.95-6.95-6.95H32h16.95q6.95 0 6.95 6.95V229q0 5-5 5h-5zm0 0h-10M32 50H22m23.9 180v8M22 46l9 4-9 4" fill="none" stroke="#9B9CA4"/><text x="38.901" y="229" font-family="&quot;Open Sans&quot;,sans-serif" font-size="14" font-weight="400" fill="transparent">1</text><text x="25" y="45" font-family="&quot;Open Sans&quot;,sans-serif" font-size="14" font-weight="400" fill="transparent">*</text></svg><svg x="595.817" y="142" width="171.183" height="589"><path d="M138.183 50H95.09q-10 0-10 10v492q0 10-10 10H32h43.091q10 0 10-10V60q0-10 10-10h43.092zm0 0h10M32 562H22M138.183 46v8M22 558l9 4-9 4" fill="none" stroke="#9B9CA4"/><text x="137.178" y="45" font-family="&quot;Open Sans&quot;,sans-serif" font-size="14" font-weight="400" fill="transparent">1</text><text x="25" y="557" font-family="&quot;Open Sans&quot;,sans-serif" font-size="14" font-weight="400" fill="transparent">*</text></svg><svg x="272.377" y="718" width="94.623" height="165"><path d="M32 138h12.406q2.406 0 2.406-2.406V52.406q0-2.406 2.405-2.406h12.406-12.406q-2.405 0-2.405 2.406v83.188q0 2.406-2.406 2.406H32zm0 0H22m39.623-88h10M32 134v8m39.623-96l-9 4 9 4" fill="none" stroke="#9B9CA4"/><text x="25" y="133" font-family="&quot;Open Sans&quot;,sans-serif" font-size="14" font-weight="400" fill="transparent">1</text><text x="60.912" y="45" font-family="&quot;Open Sans&quot;,sans-serif" font-size="14" font-weight="400" fill="transparent">*</text></svg><svg x="595.817" y="782" width="118.67" height="261"><path d="M111.67 234h2q2 0 2-2V60q0-10-10-10H32h73.67q10 0 10 10v172q0 2-2 2h-2zm-6 0h-10M32 50H22m89.67 184l-.057.585-.171.563-.277.519-.373.454-.455.373-.519.278-.562.17-.586.058-.585-.058-.563-.17-.518-.278-.455-.373-.373-.454-.277-.519-.17-.563-.059-.585.058-.585.17-.563.278-.519.373-.454.455-.373.518-.278.563-.17.585-.058.586.058.562.17.52.278.454.373.373.454.277.519.17.563.058.585M22 46l9 4-9 4" fill="none" stroke="#9B9CA4"/><text x="98.67" y="229" font-family="&quot;Open Sans&quot;,sans-serif" font-size="14" font-weight="400" fill="transparent">0..1</text><text x="25" y="45" font-family="&quot;Open Sans&quot;,sans-serif" font-size="14" font-weight="400" fill="transparent">*</text></svg><svg x="595.817" y="326" width="45" height="501"><path d="M38 50h2q2 0 2 2v417q0 5-5 5h-5 5q5 0 5-5V52q0-2-2-2h-2zm-6 0H22m10 424H22M38 50l-.058.585-.17.563-.278.519-.373.454-.454.373-.519.278-.563.17L35 53l-.585-.058-.563-.17-.519-.278-.454-.373-.373-.454-.278-.519-.17-.563L32 50l.058-.585.17-.563.278-.519.373-.454.454-.373.519-.278.563-.17L35 47l.585.058.563.17.519.278.454.373.373.454.278.519.17.563L38 50M22 470l9 4-9 4" fill="none" stroke="#9B9CA4"/><text x="25" y="45" font-family="&quot;Open Sans&quot;,sans-serif" font-size="14" font-weight="400" fill="transparent">0..1</text><text x="25" y="469" font-family="&quot;Open Sans&quot;,sans-serif" font-size="14" font-weight="400" fill="transparent">*</text></svg><svg x="258.476" y="438" width="108.524" height="325"><path d="M32 50h15.881q5.881 0 5.881 5.881v236.238q0 5.881 5.88 5.881h15.882-15.881q-5.881 0-5.881-5.881V55.881q0-5.881-5.881-5.881H32zm0 0H22m53.524 248h10M32 46v8m53.524 240l-9 4 9 4" fill="none" stroke="#9B9CA4"/><text x="25" y="45" font-family="&quot;Open Sans&quot;,sans-serif" font-size="14" font-weight="400" fill="transparent">1</text><text x="74.813" y="293" font-family="&quot;Open Sans&quot;,sans-serif" font-size="14" font-weight="400" fill="transparent">*</text></svg><svg x="258.476" y="334" width="508.524" height="165"><path d="M38 138h205.762q10 0 10-10V60q0-10 10-10h211.762-211.762q-10 0-10 10v68q0 10-10 10H38zm-6 0H22m453.524-88h10M38 138l-.058.585-.17.563-.278.519-.373.454-.454.373-.519.278-.563.17L35 141l-.585-.058-.563-.17-.519-.278-.454-.373-.373-.454-.278-.519-.17-.563L32 138l.058-.585.17-.563.278-.519.373-.454.454-.373.519-.278.563-.17L35 135l.585.058.563.17.519.278.454.373.373.454.278.519.17.563L38 138m447.524-92l-9 4 9 4" fill="none" stroke="#9B9CA4"/><text x="25" y="133" font-family="&quot;Open Sans&quot;,sans-serif" font-size="14" font-weight="400" fill="transparent">0..1</text><text x="474.813" y="45" font-family="&quot;Open Sans&quot;,sans-serif" font-size="14" font-weight="400" fill="transparent">*</text></svg><svg x="595.817" y="342" width="171.183" height="165"><path d="M32 50h43.091q10 0 10 10v68q0 10 10 10h43.092H95.09q-10 0-10-10V60q0-10-10-10H32zm0 0H22m116.183 88h10M32 46v8m116.183 80l-9 4 9 4" fill="none" stroke="#9B9CA4"/><text x="25" y="45" font-family="&quot;Open Sans&quot;,sans-serif" font-size="14" font-weight="400" fill="transparent">1</text><text x="137.472" y="133" font-family="&quot;Open Sans&quot;,sans-serif" font-size="14" font-weight="400" fill="transparent">*</text></svg><svg x="1012.321" y="142" width="45" height="237"><path d="M38 50h2q2 0 2 2v153q0 5-5 5h-5 5q5 0 5-5V52q0-2-2-2h-2zm-6 0H22m10 160H22M38 50l-.058.585-.17.563-.278.519-.373.454-.454.373-.519.278-.563.17L35 53l-.585-.058-.563-.17-.519-.278-.454-.373-.373-.454-.278-.519-.17-.563L32 50l.058-.585.17-.563.278-.519.373-.454.454-.373.519-.278.563-.17L35 47l.585.058.563.17.519.278.454.373.373.454.278.519.17.563L38 50M22 206l9 4-9 4" fill="none" stroke="#9B9CA4"/><text x="25" y="45" font-family="&quot;Open Sans&quot;,sans-serif" font-size="14" font-weight="400" fill="transparent">0..1</text><text x="25" y="205" font-family="&quot;Open Sans&quot;,sans-serif" font-size="14" font-weight="400" fill="transparent">*</text></svg><svg x="1012.321" y="142" width="45" height="301"><path d="M38 50h2q2 0 2 2v217q0 5-5 5h-5 5q5 0 5-5V52q0-2-2-2h-2zm-6 0H22m10 224H22M38 50l-.058.585-.17.563-.278.519-.373.454-.454.373-.519.278-.563.17L35 53l-.585-.058-.563-.17-.519-.278-.454-.373-.373-.454-.278-.519-.17-.563L32 50l.058-.585.17-.563.278-.519.373-.454.454-.373.519-.278.563-.17L35 47l.585.058.563.17.519.278.454.373.373.454.278.519.17.563L38 50M22 270l9 4-9 4" fill="none" stroke="#9B9CA4"/><text x="25" y="45" font-family="&quot;Open Sans&quot;,sans-serif" font-size="14" font-weight="400" fill="transparent">0..1</text><text x="25" y="269" font-family="&quot;Open Sans&quot;,sans-serif" font-size="14" font-weight="400" fill="transparent">*</text></svg><svg x="595.817" y="326" width="171.183" height="149"><path d="M38 50h37.091q10 0 10 10v52q0 10 10 10h43.092H95.09q-10 0-10-10V60q0-10-10-10H38zm-6 0H22m116.183 72h10M38 50l-.058.585-.17.563-.278.519-.373.454-.454.373-.519.278-.563.17L35 53l-.585-.058-.563-.17-.519-.278-.454-.373-.373-.454-.278-.519-.17-.563L32 50l.058-.585.17-.563.278-.519.373-.454.454-.373.519-.278.563-.17L35 47l.585.058.563.17.519.278.454.373.373.454.278.519.17.563L38 50m110.183 68l-9 4 9 4" fill="none" stroke="#9B9CA4"/><text x="25" y="45" font-family="&quot;Open Sans&quot;,sans-serif" font-size="14" font-weight="400" fill="transparent">0..1</text><text x="137.472" y="117" font-family="&quot;Open Sans&quot;,sans-serif" font-size="14" font-weight="400" fill="transparent">*</text></svg><svg x="272.377" y="462" width="870.623" height="421"><path d="M32 394h392.812q10 0 10-10V60q0-10 10-10h392.811-392.811q-10 0-10 10v324q0 10-10 10H32zm0 0H22M837.623 50h10M32 390v8M847.623 46l-9 4 9 4" fill="none" stroke="#9B9CA4"/><text x="25" y="389" font-family="&quot;Open Sans&quot;,sans-serif" font-size="14" font-weight="400" fill="transparent">1</text><text x="836.912" y="45" font-family="&quot;Open Sans&quot;,sans-serif" font-size="14" font-weight="400" fill="transparent">*</text></svg><svg x="1049.563" y="494" width="93.438" height="197"><path d="M32 170h12.11q2.109 0 2.109-2.11V52.11q0-2.11 2.11-2.11h12.108-12.109q-2.11 0-2.11 2.11v115.78q0 2.11-2.109 2.11H32zm0 0H22M60.438 50h10M32 166v8M70.438 46l-9 4 9 4" fill="none" stroke="#9B9CA4"/><text x="25" y="165" font-family="&quot;Open Sans&quot;,sans-serif" font-size="14" font-weight="400" fill="transparent">1</text><text x="59.727" y="45" font-family="&quot;Open Sans&quot;,sans-serif" font-size="14" font-weight="400" fill="transparent">*</text></svg><svg x="258.476" y="438" width="58.901" height="637"><path d="M32 50h16.95q6.95 0 6.95 6.95V605q0 5-5 5h-5 5q5 0 5-5V56.95q0-6.95-6.95-6.95H32zm0 0H22m23.9 560h-10M32 46v8m3.9 552l9 4-9 4" fill="none" stroke="#9B9CA4"/><text x="25" y="45" font-family="&quot;Open Sans&quot;,sans-serif" font-size="14" font-weight="400" fill="transparent">1</text><text x="38.901" y="605" font-family="&quot;Open Sans&quot;,sans-serif" font-size="14" font-weight="400" fill="transparent">*</text></svg><svg x="272.377" y="806" width="94.623" height="813"><path d="M32 50h12.406q2.406 0 2.406 2.406v731.188q0 2.406 2.405 2.406h12.406-12.406q-2.405 0-2.405-2.406V52.406q0-2.406-2.406-2.406H32zm0 0H22m39.623 736h10M32 46v8m39.623 728l-9 4 9 4" fill="none" stroke="#9B9CA4"/><text x="25" y="45" font-family="&quot;Open Sans&quot;,sans-serif" font-size="14" font-weight="400" fill="transparent">1</text><text x="60.912" y="781" font-family="&quot;Open Sans&quot;,sans-serif" font-size="14" font-weight="400" fill="transparent">*</text></svg><svg x="595.817" y="622" width="171.183" height="173"><path d="M138.183 50H95.09q-10 0-10 10v76q0 10-10 10H32h43.091q10 0 10-10V60q0-10 10-10h43.092zm0 0h10M32 146H22M138.183 46v8M22 142l9 4-9 4" fill="none" stroke="#9B9CA4"/><text x="137.178" y="45" font-family="&quot;Open Sans&quot;,sans-serif" font-size="14" font-weight="400" fill="transparent">1</text><text x="25" y="141" font-family="&quot;Open Sans&quot;,sans-serif" font-size="14" font-weight="400" fill="transparent">*</text></svg><svg><path fill="#316896" d="M0 0h280.476v32H0z"/><text x="10" y="19.25" font-family="&quot;Open Sans&quot;,sans-serif" font-size="13" font-weight="700" fill="#fff">agents</text></svg><svg y="32"><path fill="#F2F2F2" d="M0 0h280.476v32H0z"/><text x="10" y="19.25" font-family="&quot;Open Sans&quot;,sans-serif" font-size="13" font-weight="700" fill="#6f6f6f">id</text><path fill="#6F6F6F" d="M32.756 10.234a2.953 2.953 0 11-1.1 5.695l-.868.868h-.657v.984h-.984v.985h-1.969v-1.97l2.752-2.75a2.953 2.953 0 012.826-3.81zm0-.984a3.937 3.937 0 00-3.9 4.477l-2.518 2.518a.493.493 0 00-.144.348v2.665c0 .272.22.492.492.492h2.953c.272 0 .492-.22.492-.492v-.492h.493c.271 0 .492-.22.492-.493v-.41l.821-.823a3.937 3.937 0 10.82-7.79zm0 2.953a.984.984 0 101.97 0 .984.984 0 00-1.97 0z"/><path fill="#DEDEDE" d="M248.476 6.5h20s2 0 2 2v12s0 2-2 2h-20s-2 0-2-2v-12s0-2 2-2"/><path fill="#6F6F6F" d="M257.287 19h-1.168l-4.75-7.56h-.047l.042.69c.016.254.028.527.036.819.012.287.018.58.018.88V19h-.942v-9h1.162l4.732 7.535h.041a157.13 157.13 0 01-.066-1.465 33.296 33.296 0 01-.011-.856V10h.953v9zM266.476 19h-1.168l-4.75-7.56h-.047l.042.69c.016.254.028.527.036.819.011.287.017.58.017.88V19h-.941v-9h1.162l4.731 7.535h.042a158.366 158.366 0 01-.066-1.465 33.065 33.065 0 01-.011-.856V10h.953v9z"/><text x="204.784" y="19.25" font-family="&quot;Open Sans&quot;,sans-serif" font-size="13" font-weight="700" fill="#999">bigint</text></svg><svg y="64"><path fill="#F2F2F2" d="M0 0h280.476v32H0z"/><text x="10" y="19.25" font-family="&quot;Open Sans&quot;,sans-serif" font-size="13" fill="#6f6f6f">created_at</text><text x="190.083" y="19.25" font-family="&quot;Open Sans&quot;,sans-serif" font-size="13" fill="#999">timestamp(0)</text></svg><svg y="96"><path fill="#F2F2F2" d="M0 0h280.476v32H0z"/><text x="10" y="19.25" font-family="&quot;Open Sans&quot;,sans-serif" font-size="13" fill="#6f6f6f">updated_at</text><text x="190.083" y="19.25" font-family="&quot;Open Sans&quot;,sans-serif" font-size="13" fill="#999">timestamp(0)</text></svg><svg y="128"><path fill="#F2F2F2" d="M0 0h280.476v32H0z"/><text x="10" y="19.25" font-family="&quot;Open Sans&quot;,sans-serif" font-size="13" fill="#6f6f6f">name</text><path fill="#DEDEDE" d="M248.476 6.5h20s2 0 2 2v12s0 2-2 2h-20s-2 0-2-2v-12s0-2 2-2"/><path fill="#6F6F6F" d="M257.287 19h-1.168l-4.75-7.56h-.047l.042.69c.016.254.028.527.036.819.012.287.018.58.018.88V19h-.942v-9h1.162l4.732 7.535h.041a157.13 157.13 0 01-.066-1.465 33.296 33.296 0 01-.011-.856V10h.953v9zM266.476 19h-1.168l-4.75-7.56h-.047l.042.69c.016.254.028.527.036.819.011.287.017.58.017.88V19h-.941v-9h1.162l4.731 7.535h.042a158.366 158.366 0 01-.066-1.465 33.065 33.065 0 01-.011-.856V10h.953v9z"/><text x="107.842" y="19.25" font-family="&quot;Open Sans&quot;,sans-serif" font-size="13" fill="#999">character varying(255)</text></svg><svg y="160"><path fill="#F2F2F2" d="M0 0h280.476v32H0z"/><text x="10" y="19.25" font-family="&quot;Open Sans&quot;,sans-serif" font-size="13" fill="#6f6f6f">first_name</text><text x="143.275" y="19.25" font-family="&quot;Open Sans&quot;,sans-serif" font-size="13" fill="#999">character varying(64)</text></svg><svg y="192"><path fill="#F2F2F2" d="M0 0h280.476v32H0z"/><text x="10" y="19.25" font-family="&quot;Open Sans&quot;,sans-serif" font-size="13" fill="#6f6f6f">surname</text><text x="143.275" y="19.25" font-family="&quot;Open Sans&quot;,sans-serif" font-size="13" fill="#999">character varying(64)</text></svg><svg y="224"><path fill="#F2F2F2" d="M0 0h280.476v32H0z"/><text x="10" y="19.25" font-family="&quot;Open Sans&quot;,sans-serif" font-size="13" fill="#6f6f6f">email</text><path fill="#DEDEDE" d="M248.476 6.5h20s2 0 2 2v12s0 2-2 2h-20s-2 0-2-2v-12s0-2 2-2"/><path fill="#6F6F6F" d="M257.287 19h-1.168l-4.75-7.56h-.047l.042.69c.016.254.028.527.036.819.012.287.018.58.018.88V19h-.942v-9h1.162l4.732 7.535h.041a157.13 157.13 0 01-.066-1.465 33.296 33.296 0 01-.011-.856V10h.953v9zM266.476 19h-1.168l-4.75-7.56h-.047l.042.69c.016.254.028.527.036.819.011.287.017.58.017.88V19h-.941v-9h1.162l4.731 7.535h.042a158.366 158.366 0 01-.066-1.465 33.065 33.065 0 01-.011-.856V10h.953v9z"/><text x="107.842" y="19.25" font-family="&quot;Open Sans&quot;,sans-serif" font-size="13" fill="#999">character varying(255)</text></svg><svg y="256"><path fill="#F2F2F2" d="M0 0h280.476v32H0z"/><text x="10" y="19.25" font-family="&quot;Open Sans&quot;,sans-serif" font-size="13" fill="#6f6f6f">orcid</text><text x="135.842" y="19.25" font-family="&quot;Open Sans&quot;,sans-serif" font-size="13" fill="#999">character varying(255)</text></svg><svg y="288"><path fill="#F2F2F2" d="M0 0h280.476v32H0z"/><text x="10" y="19.25" font-family="&quot;Open Sans&quot;,sans-serif" font-size="13" fill="#6f6f6f">user_id</text><text x="227.617" y="19.25" font-family="&quot;Open Sans&quot;,sans-serif" font-size="13" fill="#999">integer</text></svg><svg y="320"><path fill="#F2F2F2" d="M0 0h280.476v32H0z"/><text x="10" y="19.25" font-family="&quot;Open Sans&quot;,sans-serif" font-size="13" fill="#6f6f6f">created_by_id</text><text x="227.617" y="19.25" font-family="&quot;Open Sans&quot;,sans-serif" font-size="13" fill="#999">integer</text></svg><svg y="352"><path fill="#F2F2F2" d="M0 0h280.476v32H0z"/><text x="10" y="19.25" font-family="&quot;Open Sans&quot;,sans-serif" font-size="13" fill="#6f6f6f">updated_by_id</text><text x="227.617" y="19.25" font-family="&quot;Open Sans&quot;,sans-serif" font-size="13" fill="#999">integer</text></svg><svg x="344"><path fill="#316896" d="M0 0h232.938v32H0z"/><text x="10" y="19.25" font-family="&quot;Open Sans&quot;,sans-serif" font-size="13" font-weight="700" fill="#fff">change_notes</text></svg><svg x="344" y="32"><path fill="#F2F2F2" d="M0 0h232.938v32H0z"/><text x="10" y="19.25" font-family="&quot;Open Sans&quot;,sans-serif" font-size="13" font-weight="700" fill="#6f6f6f">id</text><path fill="#6F6F6F" d="M32.756 10.234a2.953 2.953 0 11-1.1 5.695l-.868.868h-.657v.984h-.984v.985h-1.969v-1.97l2.752-2.75a2.953 2.953 0 012.826-3.81zm0-.984a3.937 3.937 0 00-3.9 4.477l-2.518 2.518a.493.493 0 00-.144.348v2.665c0 .272.22.492.492.492h2.953c.272 0 .492-.22.492-.492v-.492h.493c.271 0 .492-.22.492-.493v-.41l.821-.823a3.937 3.937 0 10.82-7.79zm0 2.953a.984.984 0 101.97 0 .984.984 0 00-1.97 0z"/><path fill="#DEDEDE" d="M200.938 6.5h20s2 0 2 2v12s0 2-2 2h-20s-2 0-2-2v-12s0-2 2-2"/><path fill="#6F6F6F" d="M209.75 19h-1.168l-4.75-7.56h-.047l.041.69c.016.254.028.527.036.819.012.287.018.58.018.88V19h-.942v-9h1.162l4.732 7.535h.042a157.13 157.13 0 01-.066-1.465 33.296 33.296 0 01-.012-.856V10h.954v9zM218.938 19h-1.168l-4.749-7.56h-.048l.042.69c.016.254.028.527.036.819.012.287.018.58.018.88V19h-.942v-9h1.162l4.732 7.535h.041a158.366 158.366 0 01-.065-1.465 33.065 33.065 0 01-.012-.856V10h.953v9z"/><text x="157.246" y="19.25" font-family="&quot;Open Sans&quot;,sans-serif" font-size="13" font-weight="700" fill="#999">bigint</text></svg><svg x="344" y="64"><path fill="#F2F2F2" d="M0 0h232.938v32H0z"/><text x="10" y="19.25" font-family="&quot;Open Sans&quot;,sans-serif" font-size="13" fill="#6f6f6f">created_at</text><text x="142.545" y="19.25" font-family="&quot;Open Sans&quot;,sans-serif" font-size="13" fill="#999">timestamp(0)</text></svg><svg x="344" y="96"><path fill="#F2F2F2" d="M0 0h232.938v32H0z"/><text x="10" y="19.25" font-family="&quot;Open Sans&quot;,sans-serif" font-size="13" fill="#6f6f6f">updated_at</text><text x="142.545" y="19.25" font-family="&quot;Open Sans&quot;,sans-serif" font-size="13" fill="#999">timestamp(0)</text></svg><svg x="344" y="128"><path fill="#F2F2F2" d="M0 0h232.938v32H0z"/><text x="10" y="19.25" font-family="&quot;Open Sans&quot;,sans-serif" font-size="13" fill="#6f6f6f">remarks</text><path fill="#DEDEDE" d="M200.938 6.5h20s2 0 2 2v12s0 2-2 2h-20s-2 0-2-2v-12s0-2 2-2"/><path fill="#6F6F6F" d="M209.75 19h-1.168l-4.75-7.56h-.047l.041.69c.016.254.028.527.036.819.012.287.018.58.018.88V19h-.942v-9h1.162l4.732 7.535h.042a157.13 157.13 0 01-.066-1.465 33.296 33.296 0 01-.012-.856V10h.954v9zM218.938 19h-1.168l-4.749-7.56h-.048l.042.69c.016.254.028.527.036.819.012.287.018.58.018.88V19h-.942v-9h1.162l4.732 7.535h.041a158.366 158.366 0 01-.065-1.465 33.065 33.065 0 01-.012-.856V10h.953v9z"/><text x="171.566" y="19.25" font-family="&quot;Open Sans&quot;,sans-serif" font-size="13" fill="#999">text</text></svg><svg x="344" y="160"><path fill="#F2F2F2" d="M0 0h232.938v32H0z"/><text x="10" y="19.25" font-family="&quot;Open Sans&quot;,sans-serif" font-size="13" fill="#6f6f6f">key_id</text><path fill="#DEDEDE" d="M200.938 6.5h20s2 0 2 2v12s0 2-2 2h-20s-2 0-2-2v-12s0-2 2-2"/><path fill="#6F6F6F" d="M209.75 19h-1.168l-4.75-7.56h-.047l.041.69c.016.254.028.527.036.819.012.287.018.58.018.88V19h-.942v-9h1.162l4.732 7.535h.042a157.13 157.13 0 01-.066-1.465 33.296 33.296 0 01-.012-.856V10h.954v9zM218.938 19h-1.168l-4.749-7.56h-.048l.042.69c.016.254.028.527.036.819.012.287.018.58.018.88V19h-.942v-9h1.162l4.732 7.535h.041a158.366 158.366 0 01-.065-1.465 33.065 33.065 0 01-.012-.856V10h.953v9z"/><text x="152.079" y="19.25" font-family="&quot;Open Sans&quot;,sans-serif" font-size="13" fill="#999">integer</text></svg><svg x="344" y="192"><path fill="#F2F2F2" d="M0 0h232.938v32H0z"/><text x="10" y="19.25" font-family="&quot;Open Sans&quot;,sans-serif" font-size="13" fill="#6f6f6f">version</text><path fill="#DEDEDE" d="M200.938 6.5h20s2 0 2 2v12s0 2-2 2h-20s-2 0-2-2v-12s0-2 2-2"/><path fill="#6F6F6F" d="M209.75 19h-1.168l-4.75-7.56h-.047l.041.69c.016.254.028.527.036.819.012.287.018.58.018.88V19h-.942v-9h1.162l4.732 7.535h.042a157.13 157.13 0 01-.066-1.465 33.296 33.296 0 01-.012-.856V10h.954v9zM218.938 19h-1.168l-4.749-7.56h-.048l.042.69c.016.254.028.527.036.819.012.287.018.58.018.88V19h-.942v-9h1.162l4.732 7.535h.041a158.366 158.366 0 01-.065-1.465 33.065 33.065 0 01-.012-.856V10h.953v9z"/><text x="152.079" y="19.25" font-family="&quot;Open Sans&quot;,sans-serif" font-size="13" fill="#999">integer</text></svg><svg x="344" y="224"><path fill="#F2F2F2" d="M0 0h232.938v32H0z"/><text x="10" y="19.25" font-family="&quot;Open Sans&quot;,sans-serif" font-size="13" fill="#6f6f6f">created_by_id</text><path fill="#DEDEDE" d="M200.938 6.5h20s2 0 2 2v12s0 2-2 2h-20s-2 0-2-2v-12s0-2 2-2"/><path fill="#6F6F6F" d="M209.75 19h-1.168l-4.75-7.56h-.047l.041.69c.016.254.028.527.036.819.012.287.018.58.018.88V19h-.942v-9h1.162l4.732 7.535h.042a157.13 157.13 0 01-.066-1.465 33.296 33.296 0 01-.012-.856V10h.954v9zM218.938 19h-1.168l-4.749-7.56h-.048l.042.69c.016.254.028.527.036.819.012.287.018.58.018.88V19h-.942v-9h1.162l4.732 7.535h.041a158.366 158.366 0 01-.065-1.465 33.065 33.065 0 01-.012-.856V10h.953v9z"/><text x="152.079" y="19.25" font-family="&quot;Open Sans&quot;,sans-serif" font-size="13" fill="#999">integer</text></svg><svg x="344" y="256"><path fill="#F2F2F2" d="M0 0h232.938v32H0z"/><text x="10" y="19.25" font-family="&quot;Open Sans&quot;,sans-serif" font-size="13" fill="#6f6f6f">updated_by_id</text><text x="180.079" y="19.25" font-family="&quot;Open Sans&quot;,sans-serif" font-size="13" fill="#999">integer</text></svg><svg x="744"><path fill="#fc8337" d="M0 0h194.491v32H0z"/><text x="10" y="19.25" font-family="&quot;Open Sans&quot;,sans-serif" font-size="13" font-weight="700" fill="#fff">filter_item</text></svg><svg x="744" y="32"><path fill="#F2F2F2" d="M0 0h194.491v32H0z"/><text x="10" y="19.25" font-family="&quot;Open Sans&quot;,sans-serif" font-size="13" fill="#6f6f6f">filter_id</text><path fill="#DEDEDE" d="M162.49 6.5h20s2 0 2 2v12s0 2-2 2h-20s-2 0-2-2v-12s0-2 2-2"/><path fill="#6F6F6F" d="M171.302 19h-1.168l-4.75-7.56h-.047l.042.69c.016.254.027.527.035.819.012.287.018.58.018.88V19h-.941v-9h1.162l4.731 7.535h.042a157.13 157.13 0 01-.066-1.465 33.296 33.296 0 01-.012-.856V10h.954v9zM180.49 19h-1.167l-4.75-7.56h-.047l.041.69c.016.254.028.527.036.819.012.287.018.58.018.88V19h-.941v-9h1.162l4.731 7.535h.042a158.366 158.366 0 01-.065-1.465 33.065 33.065 0 01-.013-.856V10h.954v9z"/><text x="113.631" y="19.25" font-family="&quot;Open Sans&quot;,sans-serif" font-size="13" fill="#999">integer</text></svg><svg x="744" y="64"><path fill="#F2F2F2" d="M0 0h194.491v32H0z"/><text x="10" y="19.25" font-family="&quot;Open Sans&quot;,sans-serif" font-size="13" fill="#6f6f6f">item_id</text><path fill="#DEDEDE" d="M162.49 6.5h20s2 0 2 2v12s0 2-2 2h-20s-2 0-2-2v-12s0-2 2-2"/><path fill="#6F6F6F" d="M171.302 19h-1.168l-4.75-7.56h-.047l.042.69c.016.254.027.527.035.819.012.287.018.58.018.88V19h-.941v-9h1.162l4.731 7.535h.042a157.13 157.13 0 01-.066-1.465 33.296 33.296 0 01-.012-.856V10h.954v9zM180.49 19h-1.167l-4.75-7.56h-.047l.041.69c.016.254.028.527.036.819.012.287.018.58.018.88V19h-.941v-9h1.162l4.731 7.535h.042a158.366 158.366 0 01-.065-1.465 33.065 33.065 0 01-.013-.856V10h.954v9z"/><text x="113.631" y="19.25" font-family="&quot;Open Sans&quot;,sans-serif" font-size="13" fill="#999">integer</text></svg><svg x="1120"><path fill="#316896" d="M0 0h270.536v32H0z"/><text x="10" y="19.25" font-family="&quot;Open Sans&quot;,sans-serif" font-size="13" font-weight="700" fill="#fff">filters</text></svg><svg x="1120" y="32"><path fill="#F2F2F2" d="M0 0h270.536v32H0z"/><text x="10" y="19.25" font-family="&quot;Open Sans&quot;,sans-serif" font-size="13" font-weight="700" fill="#6f6f6f">id</text><path fill="#6F6F6F" d="M32.756 10.234a2.953 2.953 0 11-1.1 5.695l-.868.868h-.657v.984h-.984v.985h-1.969v-1.97l2.752-2.75a2.953 2.953 0 012.826-3.81zm0-.984a3.937 3.937 0 00-3.9 4.477l-2.518 2.518a.493.493 0 00-.144.348v2.665c0 .272.22.492.492.492h2.953c.272 0 .492-.22.492-.492v-.492h.493c.271 0 .492-.22.492-.493v-.41l.821-.823a3.937 3.937 0 10.82-7.79zm0 2.953a.984.984 0 101.97 0 .984.984 0 00-1.97 0z"/><path fill="#DEDEDE" d="M238.536 6.5h20s2 0 2 2v12s0 2-2 2h-20s-2 0-2-2v-12s0-2 2-2"/><path fill="#6F6F6F" d="M247.347 19h-1.168l-4.75-7.56h-.047l.042.69c.015.254.027.527.035.819.012.287.018.58.018.88V19h-.941v-9h1.162l4.731 7.535h.042a157.13 157.13 0 01-.066-1.465 33.296 33.296 0 01-.012-.856V10h.954v9zM256.536 19h-1.168l-4.75-7.56h-.047l.041.69c.016.254.028.527.036.819.012.287.018.58.018.88V19h-.942v-9h1.162l4.732 7.535h.042a158.366 158.366 0 01-.065-1.465 33.065 33.065 0 01-.013-.856V10h.954v9z"/><text x="194.843" y="19.25" font-family="&quot;Open Sans&quot;,sans-serif" font-size="13" font-weight="700" fill="#999">bigint</text></svg><svg x="1120" y="64"><path fill="#F2F2F2" d="M0 0h270.536v32H0z"/><text x="10" y="19.25" font-family="&quot;Open Sans&quot;,sans-serif" font-size="13" fill="#6f6f6f">created_at</text><text x="180.143" y="19.25" font-family="&quot;Open Sans&quot;,sans-serif" font-size="13" fill="#999">timestamp(0)</text></svg><svg x="1120" y="96"><path fill="#F2F2F2" d="M0 0h270.536v32H0z"/><text x="10" y="19.25" font-family="&quot;Open Sans&quot;,sans-serif" font-size="13" fill="#6f6f6f">updated_at</text><text x="180.143" y="19.25" font-family="&quot;Open Sans&quot;,sans-serif" font-size="13" fill="#999">timestamp(0)</text></svg><svg x="1120" y="128"><path fill="#F2F2F2" d="M0 0h270.536v32H0z"/><text x="10" y="19.25" font-family="&quot;Open Sans&quot;,sans-serif" font-size="13" fill="#6f6f6f">title</text><path fill="#DEDEDE" d="M238.536 6.5h20s2 0 2 2v12s0 2-2 2h-20s-2 0-2-2v-12s0-2 2-2"/><path fill="#6F6F6F" d="M247.347 19h-1.168l-4.75-7.56h-.047l.042.69c.015.254.027.527.035.819.012.287.018.58.018.88V19h-.941v-9h1.162l4.731 7.535h.042a157.13 157.13 0 01-.066-1.465 33.296 33.296 0 01-.012-.856V10h.954v9zM256.536 19h-1.168l-4.75-7.56h-.047l.041.69c.016.254.028.527.036.819.012.287.018.58.018.88V19h-.942v-9h1.162l4.732 7.535h.042a158.366 158.366 0 01-.065-1.465 33.065 33.065 0 01-.013-.856V10h.954v9z"/><text x="97.902" y="19.25" font-family="&quot;Open Sans&quot;,sans-serif" font-size="13" fill="#999">character varying(255)</text></svg><svg x="1120" y="160"><path fill="#F2F2F2" d="M0 0h270.536v32H0z"/><text x="10" y="19.25" font-family="&quot;Open Sans&quot;,sans-serif" font-size="13" fill="#6f6f6f">items_not_found</text><text x="237.164" y="19.25" font-family="&quot;Open Sans&quot;,sans-serif" font-size="13" fill="#999">text</text></svg><svg x="1120" y="192"><path fill="#F2F2F2" d="M0 0h270.536v32H0z"/><text x="10" y="19.25" font-family="&quot;Open Sans&quot;,sans-serif" font-size="13" fill="#6f6f6f">is_project_filter</text><text x="211.164" y="19.25" font-family="&quot;Open Sans&quot;,sans-serif" font-size="13" fill="#999">boolean</text></svg><svg x="1120" y="224"><path fill="#F2F2F2" d="M0 0h270.536v32H0z"/><text x="10" y="19.25" font-family="&quot;Open Sans&quot;,sans-serif" font-size="13" fill="#6f6f6f">project_id</text><path fill="#DEDEDE" d="M238.536 6.5h20s2 0 2 2v12s0 2-2 2h-20s-2 0-2-2v-12s0-2 2-2"/><path fill="#6F6F6F" d="M247.347 19h-1.168l-4.75-7.56h-.047l.042.69c.015.254.027.527.035.819.012.287.018.58.018.88V19h-.941v-9h1.162l4.731 7.535h.042a157.13 157.13 0 01-.066-1.465 33.296 33.296 0 01-.012-.856V10h.954v9zM256.536 19h-1.168l-4.75-7.56h-.047l.041.69c.016.254.028.527.036.819.012.287.018.58.018.88V19h-.942v-9h1.162l4.732 7.535h.042a158.366 158.366 0 01-.065-1.465 33.065 33.065 0 01-.013-.856V10h.954v9z"/><text x="189.676" y="19.25" font-family="&quot;Open Sans&quot;,sans-serif" font-size="13" fill="#999">integer</text></svg><svg x="1120" y="256"><path fill="#F2F2F2" d="M0 0h270.536v32H0z"/><text x="10" y="19.25" font-family="&quot;Open Sans&quot;,sans-serif" font-size="13" fill="#6f6f6f">created_by_id</text><text x="217.676" y="19.25" font-family="&quot;Open Sans&quot;,sans-serif" font-size="13" fill="#999">integer</text></svg><svg x="1120" y="288"><path fill="#F2F2F2" d="M0 0h270.536v32H0z"/><text x="10" y="19.25" font-family="&quot;Open Sans&quot;,sans-serif" font-size="13" fill="#6f6f6f">updated_by_id</text><text x="217.676" y="19.25" font-family="&quot;Open Sans&quot;,sans-serif" font-size="13" fill="#999">integer</text></svg><svg y="432"><path fill="#316896" d="M0 0h280.476v32H0z"/><text x="10" y="19.25" font-family="&quot;Open Sans&quot;,sans-serif" font-size="13" font-weight="700" fill="#fff">items</text></svg><svg y="464"><path fill="#F2F2F2" d="M0 0h280.476v32H0z"/><text x="10" y="19.25" font-family="&quot;Open Sans&quot;,sans-serif" font-size="13" font-weight="700" fill="#6f6f6f">id</text><path fill="#6F6F6F" d="M32.756 10.234a2.953 2.953 0 11-1.1 5.695l-.868.868h-.657v.984h-.984v.985h-1.969v-1.97l2.752-2.75a2.953 2.953 0 012.826-3.81zm0-.984a3.937 3.937 0 00-3.9 4.477l-2.518 2.518a.493.493 0 00-.144.348v2.665c0 .272.22.492.492.492h2.953c.272 0 .492-.22.492-.492v-.492h.493c.271 0 .492-.22.492-.493v-.41l.821-.823a3.937 3.937 0 10.82-7.79zm0 2.953a.984.984 0 101.97 0 .984.984 0 00-1.97 0z"/><path fill="#DEDEDE" d="M248.476 6.5h20s2 0 2 2v12s0 2-2 2h-20s-2 0-2-2v-12s0-2 2-2"/><path fill="#6F6F6F" d="M257.287 19h-1.168l-4.75-7.56h-.047l.042.69c.016.254.028.527.036.819.012.287.018.58.018.88V19h-.942v-9h1.162l4.732 7.535h.041a157.13 157.13 0 01-.066-1.465 33.296 33.296 0 01-.011-.856V10h.953v9zM266.476 19h-1.168l-4.75-7.56h-.047l.042.69c.016.254.028.527.036.819.011.287.017.58.017.88V19h-.941v-9h1.162l4.731 7.535h.042a158.366 158.366 0 01-.066-1.465 33.065 33.065 0 01-.011-.856V10h.953v9z"/><text x="204.784" y="19.25" font-family="&quot;Open Sans&quot;,sans-serif" font-size="13" font-weight="700" fill="#999">bigint</text></svg><svg y="496"><path fill="#F2F2F2" d="M0 0h280.476v32H0z"/><text x="10" y="19.25" font-family="&quot;Open Sans&quot;,sans-serif" font-size="13" fill="#6f6f6f">created_at</text><text x="190.083" y="19.25" font-family="&quot;Open Sans&quot;,sans-serif" font-size="13" fill="#999">timestamp(0)</text></svg><svg y="528"><path fill="#F2F2F2" d="M0 0h280.476v32H0z"/><text x="10" y="19.25" font-family="&quot;Open Sans&quot;,sans-serif" font-size="13" fill="#6f6f6f">updated_at</text><text x="190.083" y="19.25" font-family="&quot;Open Sans&quot;,sans-serif" font-size="13" fill="#999">timestamp(0)</text></svg><svg y="560"><path fill="#F2F2F2" d="M0 0h280.476v32H0z"/><text x="10" y="19.25" font-family="&quot;Open Sans&quot;,sans-serif" font-size="13" fill="#6f6f6f">guid</text><path fill="#DEDEDE" d="M248.476 6.5h20s2 0 2 2v12s0 2-2 2h-20s-2 0-2-2v-12s0-2 2-2"/><path fill="#6F6F6F" d="M257.287 19h-1.168l-4.75-7.56h-.047l.042.69c.016.254.028.527.036.819.012.287.018.58.018.88V19h-.942v-9h1.162l4.732 7.535h.041a157.13 157.13 0 01-.066-1.465 33.296 33.296 0 01-.011-.856V10h.953v9zM266.476 19h-1.168l-4.75-7.56h-.047l.042.69c.016.254.028.527.036.819.011.287.017.58.017.88V19h-.941v-9h1.162l4.731 7.535h.042a158.366 158.366 0 01-.066-1.465 33.065 33.065 0 01-.011-.856V10h.953v9z"/><text x="215.295" y="19.25" font-family="&quot;Open Sans&quot;,sans-serif" font-size="13" fill="#999">uuid</text></svg><svg y="592"><path fill="#F2F2F2" d="M0 0h280.476v32H0z"/><text x="10" y="19.25" font-family="&quot;Open Sans&quot;,sans-serif" font-size="13" fill="#6f6f6f">name</text><path fill="#DEDEDE" d="M248.476 6.5h20s2 0 2 2v12s0 2-2 2h-20s-2 0-2-2v-12s0-2 2-2"/><path fill="#6F6F6F" d="M257.287 19h-1.168l-4.75-7.56h-.047l.042.69c.016.254.028.527.036.819.012.287.018.58.018.88V19h-.942v-9h1.162l4.732 7.535h.041a157.13 157.13 0 01-.066-1.465 33.296 33.296 0 01-.011-.856V10h.953v9zM266.476 19h-1.168l-4.75-7.56h-.047l.042.69c.016.254.028.527.036.819.011.287.017.58.017.88V19h-.941v-9h1.162l4.731 7.535h.042a158.366 158.366 0 01-.066-1.465 33.065 33.065 0 01-.011-.856V10h.953v9z"/><text x="107.842" y="19.25" font-family="&quot;Open Sans&quot;,sans-serif" font-size="13" fill="#999">character varying(255)</text></svg><svg y="624"><path fill="#F2F2F2" d="M0 0h280.476v32H0z"/><text x="10" y="19.25" font-family="&quot;Open Sans&quot;,sans-serif" font-size="13" fill="#6f6f6f">url</text><text x="135.842" y="19.25" font-family="&quot;Open Sans&quot;,sans-serif" font-size="13" fill="#999">character varying(255)</text></svg><svg y="656"><path fill="#F2F2F2" d="M0 0h280.476v32H0z"/><text x="10" y="19.25" font-family="&quot;Open Sans&quot;,sans-serif" font-size="13" fill="#6f6f6f">project_id</text><path fill="#DEDEDE" d="M248.476 6.5h20s2 0 2 2v12s0 2-2 2h-20s-2 0-2-2v-12s0-2 2-2"/><path fill="#6F6F6F" d="M257.287 19h-1.168l-4.75-7.56h-.047l.042.69c.016.254.028.527.036.819.012.287.018.58.018.88V19h-.942v-9h1.162l4.732 7.535h.041a157.13 157.13 0 01-.066-1.465 33.296 33.296 0 01-.011-.856V10h.953v9zM266.476 19h-1.168l-4.75-7.56h-.047l.042.69c.016.254.028.527.036.819.011.287.017.58.017.88V19h-.941v-9h1.162l4.731 7.535h.042a158.366 158.366 0 01-.066-1.465 33.065 33.065 0 01-.011-.856V10h.953v9z"/><text x="199.617" y="19.25" font-family="&quot;Open Sans&quot;,sans-serif" font-size="13" fill="#999">integer</text></svg><svg y="688"><path fill="#F2F2F2" d="M0 0h280.476v32H0z"/><text x="10" y="19.25" font-family="&quot;Open Sans&quot;,sans-serif" font-size="13" fill="#6f6f6f">created_by_id</text><text x="227.617" y="19.25" font-family="&quot;Open Sans&quot;,sans-serif" font-size="13" fill="#999">integer</text></svg><svg y="720"><path fill="#F2F2F2" d="M0 0h280.476v32H0z"/><text x="10" y="19.25" font-family="&quot;Open Sans&quot;,sans-serif" font-size="13" fill="#6f6f6f">updated_by_id</text><text x="227.617" y="19.25" font-family="&quot;Open Sans&quot;,sans-serif" font-size="13" fill="#999">integer</text></svg><svg x="344" y="336"><path fill="#316896" d="M0 0h273.817v32H0z"/><text x="10" y="19.25" font-family="&quot;Open Sans&quot;,sans-serif" font-size="13" font-weight="700" fill="#fff">keys</text></svg><svg x="344" y="368"><path fill="#F2F2F2" d="M0 0h273.817v32H0z"/><text x="10" y="19.25" font-family="&quot;Open Sans&quot;,sans-serif" font-size="13" font-weight="700" fill="#6f6f6f">id</text><path fill="#6F6F6F" d="M32.756 10.234a2.953 2.953 0 11-1.1 5.695l-.868.868h-.657v.984h-.984v.985h-1.969v-1.97l2.752-2.75a2.953 2.953 0 012.826-3.81zm0-.984a3.937 3.937 0 00-3.9 4.477l-2.518 2.518a.493.493 0 00-.144.348v2.665c0 .272.22.492.492.492h2.953c.272 0 .492-.22.492-.492v-.492h.493c.271 0 .492-.22.492-.493v-.41l.821-.823a3.937 3.937 0 10.82-7.79zm0 2.953a.984.984 0 101.97 0 .984.984 0 00-1.97 0z"/><path fill="#DEDEDE" d="M241.817 6.5h20s2 0 2 2v12s0 2-2 2h-20s-2 0-2-2v-12s0-2 2-2"/><path fill="#6F6F6F" d="M250.629 19h-1.168l-4.75-7.56h-.047c.011.202.025.431.041.69.016.254.028.527.036.819.012.287.018.58.018.88V19h-.942v-9h1.162l4.732 7.535h.042a157.13 157.13 0 01-.066-1.465 33.296 33.296 0 01-.012-.856V10h.954v9zM259.817 19h-1.168l-4.749-7.56h-.048l.042.69c.016.254.028.527.036.819.012.287.018.58.018.88V19h-.942v-9h1.162l4.732 7.535h.041a158.366 158.366 0 01-.066-1.465 33.065 33.065 0 01-.011-.856V10h.953v9z"/><text x="198.125" y="19.25" font-family="&quot;Open Sans&quot;,sans-serif" font-size="13" font-weight="700" fill="#999">bigint</text></svg><svg x="344" y="400"><path fill="#F2F2F2" d="M0 0h273.817v32H0z"/><text x="10" y="19.25" font-family="&quot;Open Sans&quot;,sans-serif" font-size="13" fill="#6f6f6f">created_at</text><text x="183.424" y="19.25" font-family="&quot;Open Sans&quot;,sans-serif" font-size="13" fill="#999">timestamp(0)</text></svg><svg x="344" y="432"><path fill="#F2F2F2" d="M0 0h273.817v32H0z"/><text x="10" y="19.25" font-family="&quot;Open Sans&quot;,sans-serif" font-size="13" fill="#6f6f6f">updated_at</text><text x="183.424" y="19.25" font-family="&quot;Open Sans&quot;,sans-serif" font-size="13" fill="#999">timestamp(0)</text></svg><svg x="344" y="464"><path fill="#F2F2F2" d="M0 0h273.817v32H0z"/><text x="10" y="19.25" font-family="&quot;Open Sans&quot;,sans-serif" font-size="13" fill="#6f6f6f">guid</text><path fill="#DEDEDE" d="M241.817 6.5h20s2 0 2 2v12s0 2-2 2h-20s-2 0-2-2v-12s0-2 2-2"/><path fill="#6F6F6F" d="M250.629 19h-1.168l-4.75-7.56h-.047c.011.202.025.431.041.69.016.254.028.527.036.819.012.287.018.58.018.88V19h-.942v-9h1.162l4.732 7.535h.042a157.13 157.13 0 01-.066-1.465 33.296 33.296 0 01-.012-.856V10h.954v9zM259.817 19h-1.168l-4.749-7.56h-.048l.042.69c.016.254.028.527.036.819.012.287.018.58.018.88V19h-.942v-9h1.162l4.732 7.535h.041a158.366 158.366 0 01-.066-1.465 33.065 33.065 0 01-.011-.856V10h.953v9z"/><text x="208.637" y="19.25" font-family="&quot;Open Sans&quot;,sans-serif" font-size="13" fill="#999">uuid</text></svg><svg x="344" y="496"><path fill="#F2F2F2" d="M0 0h273.817v32H0z"/><text x="10" y="19.25" font-family="&quot;Open Sans&quot;,sans-serif" font-size="13" fill="#6f6f6f">version</text><path fill="#DEDEDE" d="M241.817 6.5h20s2 0 2 2v12s0 2-2 2h-20s-2 0-2-2v-12s0-2 2-2"/><path fill="#6F6F6F" d="M250.629 19h-1.168l-4.75-7.56h-.047c.011.202.025.431.041.69.016.254.028.527.036.819.012.287.018.58.018.88V19h-.942v-9h1.162l4.732 7.535h.042a157.13 157.13 0 01-.066-1.465 33.296 33.296 0 01-.012-.856V10h.954v9zM259.817 19h-1.168l-4.749-7.56h-.048l.042.69c.016.254.028.527.036.819.012.287.018.58.018.88V19h-.942v-9h1.162l4.732 7.535h.041a158.366 158.366 0 01-.066-1.465 33.065 33.065 0 01-.011-.856V10h.953v9z"/><text x="192.958" y="19.25" font-family="&quot;Open Sans&quot;,sans-serif" font-size="13" fill="#999">integer</text></svg><svg x="344" y="528"><path fill="#F2F2F2" d="M0 0h273.817v32H0z"/><text x="10" y="19.25" font-family="&quot;Open Sans&quot;,sans-serif" font-size="13" fill="#6f6f6f">title</text><path fill="#DEDEDE" d="M241.817 6.5h20s2 0 2 2v12s0 2-2 2h-20s-2 0-2-2v-12s0-2 2-2"/><path fill="#6F6F6F" d="M250.629 19h-1.168l-4.75-7.56h-.047c.011.202.025.431.041.69.016.254.028.527.036.819.012.287.018.58.018.88V19h-.942v-9h1.162l4.732 7.535h.042a157.13 157.13 0 01-.066-1.465 33.296 33.296 0 01-.012-.856V10h.954v9zM259.817 19h-1.168l-4.749-7.56h-.048l.042.69c.016.254.028.527.036.819.012.287.018.58.018.88V19h-.942v-9h1.162l4.732 7.535h.041a158.366 158.366 0 01-.066-1.465 33.065 33.065 0 01-.011-.856V10h.953v9z"/><text x="101.184" y="19.25" font-family="&quot;Open Sans&quot;,sans-serif" font-size="13" fill="#999">character varying(255)</text></svg><svg x="344" y="560"><path fill="#F2F2F2" d="M0 0h273.817v32H0z"/><text x="10" y="19.25" font-family="&quot;Open Sans&quot;,sans-serif" font-size="13" fill="#6f6f6f">author</text><text x="129.184" y="19.25" font-family="&quot;Open Sans&quot;,sans-serif" font-size="13" fill="#999">character varying(255)</text></svg><svg x="344" y="592"><path fill="#F2F2F2" d="M0 0h273.817v32H0z"/><text x="10" y="19.25" font-family="&quot;Open Sans&quot;,sans-serif" font-size="13" fill="#6f6f6f">description</text><text x="240.445" y="19.25" font-family="&quot;Open Sans&quot;,sans-serif" font-size="13" fill="#999">text</text></svg><svg x="344" y="624"><path fill="#F2F2F2" d="M0 0h273.817v32H0z"/><text x="10" y="19.25" font-family="&quot;Open Sans&quot;,sans-serif" font-size="13" fill="#6f6f6f">notes</text><text x="240.445" y="19.25" font-family="&quot;Open Sans&quot;,sans-serif" font-size="13" fill="#999">text</text></svg><svg x="344" y="656"><path fill="#F2F2F2" d="M0 0h273.817v32H0z"/><text x="10" y="19.25" font-family="&quot;Open Sans&quot;,sans-serif" font-size="13" fill="#6f6f6f">modified_from_source</text><text x="214.445" y="19.25" font-family="&quot;Open Sans&quot;,sans-serif" font-size="13" fill="#999">boolean</text></svg><svg x="344" y="688"><path fill="#F2F2F2" d="M0 0h273.817v32H0z"/><text x="10" y="19.25" font-family="&quot;Open Sans&quot;,sans-serif" font-size="13" fill="#6f6f6f">first_step_id</text><path fill="#DEDEDE" d="M241.817 6.5h20s2 0 2 2v12s0 2-2 2h-20s-2 0-2-2v-12s0-2 2-2"/><path fill="#6F6F6F" d="M250.629 19h-1.168l-4.75-7.56h-.047c.011.202.025.431.041.69.016.254.028.527.036.819.012.287.018.58.018.88V19h-.942v-9h1.162l4.732 7.535h.042a157.13 157.13 0 01-.066-1.465 33.296 33.296 0 01-.012-.856V10h.954v9zM259.817 19h-1.168l-4.749-7.56h-.048l.042.69c.016.254.028.527.036.819.012.287.018.58.018.88V19h-.942v-9h1.162l4.732 7.535h.041a158.366 158.366 0 01-.066-1.465 33.065 33.065 0 01-.011-.856V10h.953v9z"/><text x="192.958" y="19.25" font-family="&quot;Open Sans&quot;,sans-serif" font-size="13" fill="#999">integer</text></svg><svg x="344" y="720"><path fill="#F2F2F2" d="M0 0h273.817v32H0z"/><text x="10" y="19.25" font-family="&quot;Open Sans&quot;,sans-serif" font-size="13" fill="#6f6f6f">taxonomic_scope_id</text><path fill="#DEDEDE" d="M241.817 6.5h20s2 0 2 2v12s0 2-2 2h-20s-2 0-2-2v-12s0-2 2-2"/><path fill="#6F6F6F" d="M250.629 19h-1.168l-4.75-7.56h-.047c.011.202.025.431.041.69.016.254.028.527.036.819.012.287.018.58.018.88V19h-.942v-9h1.162l4.732 7.535h.042a157.13 157.13 0 01-.066-1.465 33.296 33.296 0 01-.012-.856V10h.954v9zM259.817 19h-1.168l-4.749-7.56h-.048l.042.69c.016.254.028.527.036.819.012.287.018.58.018.88V19h-.942v-9h1.162l4.732 7.535h.041a158.366 158.366 0 01-.066-1.465 33.065 33.065 0 01-.011-.856V10h.953v9z"/><text x="192.958" y="19.25" font-family="&quot;Open Sans&quot;,sans-serif" font-size="13" fill="#999">integer</text></svg><svg x="344" y="752"><path fill="#F2F2F2" d="M0 0h273.817v32H0z"/><text x="10" y="19.25" font-family="&quot;Open Sans&quot;,sans-serif" font-size="13" fill="#6f6f6f">project_id</text><path fill="#DEDEDE" d="M241.817 6.5h20s2 0 2 2v12s0 2-2 2h-20s-2 0-2-2v-12s0-2 2-2"/><path fill="#6F6F6F" d="M250.629 19h-1.168l-4.75-7.56h-.047c.011.202.025.431.041.69.016.254.028.527.036.819.012.287.018.58.018.88V19h-.942v-9h1.162l4.732 7.535h.042a157.13 157.13 0 01-.066-1.465 33.296 33.296 0 01-.012-.856V10h.954v9zM259.817 19h-1.168l-4.749-7.56h-.048l.042.69c.016.254.028.527.036.819.012.287.018.58.018.88V19h-.942v-9h1.162l4.732 7.535h.041a158.366 158.366 0 01-.066-1.465 33.065 33.065 0 01-.011-.856V10h.953v9z"/><text x="192.958" y="19.25" font-family="&quot;Open Sans&quot;,sans-serif" font-size="13" fill="#999">integer</text></svg><svg x="344" y="784"><path fill="#F2F2F2" d="M0 0h273.817v32H0z"/><text x="10" y="19.25" font-family="&quot;Open Sans&quot;,sans-serif" font-size="13" fill="#6f6f6f">subkey_of_id</text><text x="220.958" y="19.25" font-family="&quot;Open Sans&quot;,sans-serif" font-size="13" fill="#999">integer</text></svg><svg x="344" y="816"><path fill="#F2F2F2" d="M0 0h273.817v32H0z"/><text x="10" y="19.25" font-family="&quot;Open Sans&quot;,sans-serif" font-size="13" fill="#6f6f6f">source_id</text><text x="220.958" y="19.25" font-family="&quot;Open Sans&quot;,sans-serif" font-size="13" fill="#999">integer</text></svg><svg x="344" y="848"><path fill="#F2F2F2" d="M0 0h273.817v32H0z"/><text x="10" y="19.25" font-family="&quot;Open Sans&quot;,sans-serif" font-size="13" fill="#6f6f6f">created_by_id</text><text x="220.958" y="19.25" font-family="&quot;Open Sans&quot;,sans-serif" font-size="13" fill="#999">integer</text></svg><svg x="344" y="880"><path fill="#F2F2F2" d="M0 0h273.817v32H0z"/><text x="10" y="19.25" font-family="&quot;Open Sans&quot;,sans-serif" font-size="13" fill="#6f6f6f">updated_by_id</text><text x="220.958" y="19.25" font-family="&quot;Open Sans&quot;,sans-serif" font-size="13" fill="#999">integer</text></svg><svg x="744" y="144"><path fill="#316896" d="M0 0h290.321v32H0z"/><text x="10" y="19.25" font-family="&quot;Open Sans&quot;,sans-serif" font-size="13" font-weight="700" fill="#fff">leads</text></svg><svg x="744" y="176"><path fill="#F2F2F2" d="M0 0h290.321v32H0z"/><text x="10" y="19.25" font-family="&quot;Open Sans&quot;,sans-serif" font-size="13" font-weight="700" fill="#6f6f6f">id</text><path fill="#6F6F6F" d="M32.756 10.234a2.953 2.953 0 11-1.1 5.695l-.868.868h-.657v.984h-.984v.985h-1.969v-1.97l2.752-2.75a2.953 2.953 0 012.826-3.81zm0-.984a3.937 3.937 0 00-3.9 4.477l-2.518 2.518a.493.493 0 00-.144.348v2.665c0 .272.22.492.492.492h2.953c.272 0 .492-.22.492-.492v-.492h.493c.271 0 .492-.22.492-.493v-.41l.821-.823a3.937 3.937 0 10.82-7.79zm0 2.953a.984.984 0 101.97 0 .984.984 0 00-1.97 0z"/><path fill="#DEDEDE" d="M258.32 6.5h20s2 0 2 2v12s0 2-2 2h-20s-2 0-2-2v-12s0-2 2-2"/><path fill="#6F6F6F" d="M267.132 19h-1.168l-4.75-7.56h-.047l.042.69c.016.254.028.527.035.819.012.287.018.58.018.88V19h-.941v-9h1.162l4.731 7.535h.042a157.13 157.13 0 01-.066-1.465 33.296 33.296 0 01-.011-.856V10h.953v9zM276.32 19h-1.167l-4.75-7.56h-.047l.042.69c.015.254.027.527.035.819.012.287.018.58.018.88V19h-.941v-9h1.162l4.731 7.535h.042a158.366 158.366 0 01-.066-1.465 33.065 33.065 0 01-.012-.856V10h.954v9z"/><text x="214.628" y="19.25" font-family="&quot;Open Sans&quot;,sans-serif" font-size="13" font-weight="700" fill="#999">bigint</text></svg><svg x="744" y="208"><path fill="#F2F2F2" d="M0 0h290.321v32H0z"/><text x="10" y="19.25" font-family="&quot;Open Sans&quot;,sans-serif" font-size="13" fill="#6f6f6f">created_at</text><text x="199.928" y="19.25" font-family="&quot;Open Sans&quot;,sans-serif" font-size="13" fill="#999">timestamp(0)</text></svg><svg x="744" y="240"><path fill="#F2F2F2" d="M0 0h290.321v32H0z"/><text x="10" y="19.25" font-family="&quot;Open Sans&quot;,sans-serif" font-size="13" fill="#6f6f6f">updated_at</text><text x="199.928" y="19.25" font-family="&quot;Open Sans&quot;,sans-serif" font-size="13" fill="#999">timestamp(0)</text></svg><svg x="744" y="272"><path fill="#F2F2F2" d="M0 0h290.321v32H0z"/><text x="10" y="19.25" font-family="&quot;Open Sans&quot;,sans-serif" font-size="13" fill="#6f6f6f">node_name</text><text x="145.687" y="19.25" font-family="&quot;Open Sans&quot;,sans-serif" font-size="13" fill="#999">character varying(255)</text></svg><svg x="744" y="304"><path fill="#F2F2F2" d="M0 0h290.321v32H0z"/><text x="10" y="19.25" font-family="&quot;Open Sans&quot;,sans-serif" font-size="13" fill="#6f6f6f">lead_text</text><path fill="#DEDEDE" d="M258.32 6.5h20s2 0 2 2v12s0 2-2 2h-20s-2 0-2-2v-12s0-2 2-2"/><path fill="#6F6F6F" d="M267.132 19h-1.168l-4.75-7.56h-.047l.042.69c.016.254.028.527.035.819.012.287.018.58.018.88V19h-.941v-9h1.162l4.731 7.535h.042a157.13 157.13 0 01-.066-1.465 33.296 33.296 0 01-.011-.856V10h.953v9zM276.32 19h-1.167l-4.75-7.56h-.047l.042.69c.015.254.027.527.035.819.012.287.018.58.018.88V19h-.941v-9h1.162l4.731 7.535h.042a158.366 158.366 0 01-.066-1.465 33.065 33.065 0 01-.012-.856V10h.954v9z"/><text x="228.949" y="19.25" font-family="&quot;Open Sans&quot;,sans-serif" font-size="13" fill="#999">text</text></svg><svg x="744" y="336"><path fill="#F2F2F2" d="M0 0h290.321v32H0z"/><text x="10" y="19.25" font-family="&quot;Open Sans&quot;,sans-serif" font-size="13" fill="#6f6f6f">parent_id</text><text x="237.461" y="19.25" font-family="&quot;Open Sans&quot;,sans-serif" font-size="13" fill="#999">integer</text></svg><svg x="744" y="368"><path fill="#F2F2F2" d="M0 0h290.321v32H0z"/><text x="10" y="19.25" font-family="&quot;Open Sans&quot;,sans-serif" font-size="13" fill="#6f6f6f">item_id</text><text x="237.461" y="19.25" font-family="&quot;Open Sans&quot;,sans-serif" font-size="13" fill="#999">integer</text></svg><svg x="744" y="400"><path fill="#F2F2F2" d="M0 0h290.321v32H0z"/><text x="10" y="19.25" font-family="&quot;Open Sans&quot;,sans-serif" font-size="13" fill="#6f6f6f">reticulation_id</text><text x="237.461" y="19.25" font-family="&quot;Open Sans&quot;,sans-serif" font-size="13" fill="#999">integer</text></svg><svg x="744" y="432"><path fill="#F2F2F2" d="M0 0h290.321v32H0z"/><text x="10" y="19.25" font-family="&quot;Open Sans&quot;,sans-serif" font-size="13" fill="#6f6f6f">subkey_id</text><text x="237.461" y="19.25" font-family="&quot;Open Sans&quot;,sans-serif" font-size="13" fill="#999">integer</text></svg><svg x="744" y="464"><path fill="#F2F2F2" d="M0 0h290.321v32H0z"/><text x="10" y="19.25" font-family="&quot;Open Sans&quot;,sans-serif" font-size="13" fill="#6f6f6f">key_id</text><path fill="#DEDEDE" d="M258.32 6.5h20s2 0 2 2v12s0 2-2 2h-20s-2 0-2-2v-12s0-2 2-2"/><path fill="#6F6F6F" d="M267.132 19h-1.168l-4.75-7.56h-.047l.042.69c.016.254.028.527.035.819.012.287.018.58.018.88V19h-.941v-9h1.162l4.731 7.535h.042a157.13 157.13 0 01-.066-1.465 33.296 33.296 0 01-.011-.856V10h.953v9zM276.32 19h-1.167l-4.75-7.56h-.047l.042.69c.015.254.027.527.035.819.012.287.018.58.018.88V19h-.941v-9h1.162l4.731 7.535h.042a158.366 158.366 0 01-.066-1.465 33.065 33.065 0 01-.012-.856V10h.954v9z"/><text x="209.461" y="19.25" font-family="&quot;Open Sans&quot;,sans-serif" font-size="13" fill="#999">integer</text></svg><svg x="744" y="496"><path fill="#F2F2F2" d="M0 0h290.321v32H0z"/><text x="10" y="19.25" font-family="&quot;Open Sans&quot;,sans-serif" font-size="13" fill="#6f6f6f">created_by_id</text><text x="237.461" y="19.25" font-family="&quot;Open Sans&quot;,sans-serif" font-size="13" fill="#999">integer</text></svg><svg x="744" y="528"><path fill="#F2F2F2" d="M0 0h290.321v32H0z"/><text x="10" y="19.25" font-family="&quot;Open Sans&quot;,sans-serif" font-size="13" fill="#6f6f6f">updated_by_id</text><text x="237.461" y="19.25" font-family="&quot;Open Sans&quot;,sans-serif" font-size="13" fill="#999">integer</text></svg><svg x="1120" y="368"><path fill="#316896" d="M0 0h269.234v32H0z"/><text x="10" y="19.25" font-family="&quot;Open Sans&quot;,sans-serif" font-size="13" font-weight="700" fill="#fff">project_users</text></svg><svg x="1120" y="400"><path fill="#F2F2F2" d="M0 0h269.234v32H0z"/><text x="10" y="19.25" font-family="&quot;Open Sans&quot;,sans-serif" font-size="13" font-weight="700" fill="#6f6f6f">id</text><path fill="#6F6F6F" d="M32.756 10.234a2.953 2.953 0 11-1.1 5.695l-.868.868h-.657v.984h-.984v.985h-1.969v-1.97l2.752-2.75a2.953 2.953 0 012.826-3.81zm0-.984a3.937 3.937 0 00-3.9 4.477l-2.518 2.518a.493.493 0 00-.144.348v2.665c0 .272.22.492.492.492h2.953c.272 0 .492-.22.492-.492v-.492h.493c.271 0 .492-.22.492-.493v-.41l.821-.823a3.937 3.937 0 10.82-7.79zm0 2.953a.984.984 0 101.97 0 .984.984 0 00-1.97 0z"/><path fill="#DEDEDE" d="M237.234 6.5h20s2 0 2 2v12s0 2-2 2h-20s-2 0-2-2v-12s0-2 2-2"/><path fill="#6F6F6F" d="M246.046 19h-1.168l-4.75-7.56h-.047c.011.202.025.431.041.69.016.254.028.527.036.819.012.287.018.58.018.88V19h-.942v-9h1.162l4.732 7.535h.042a157.13 157.13 0 01-.066-1.465 33.296 33.296 0 01-.012-.856V10h.954v9zM255.234 19h-1.168l-4.749-7.56h-.048l.042.69c.016.254.028.527.036.819.012.287.018.58.018.88V19h-.942v-9h1.162l4.732 7.535h.041a158.366 158.366 0 01-.065-1.465 33.065 33.065 0 01-.012-.856V10h.953v9z"/><text x="193.542" y="19.25" font-family="&quot;Open Sans&quot;,sans-serif" font-size="13" font-weight="700" fill="#999">bigint</text></svg><svg x="1120" y="432"><path fill="#F2F2F2" d="M0 0h269.234v32H0z"/><text x="10" y="19.25" font-family="&quot;Open Sans&quot;,sans-serif" font-size="13" fill="#6f6f6f">created_at</text><text x="178.841" y="19.25" font-family="&quot;Open Sans&quot;,sans-serif" font-size="13" fill="#999">timestamp(0)</text></svg><svg x="1120" y="464"><path fill="#F2F2F2" d="M0 0h269.234v32H0z"/><text x="10" y="19.25" font-family="&quot;Open Sans&quot;,sans-serif" font-size="13" fill="#6f6f6f">updated_at</text><text x="178.841" y="19.25" font-family="&quot;Open Sans&quot;,sans-serif" font-size="13" fill="#999">timestamp(0)</text></svg><svg x="1120" y="496"><path fill="#F2F2F2" d="M0 0h269.234v32H0z"/><text x="10" y="19.25" font-family="&quot;Open Sans&quot;,sans-serif" font-size="13" fill="#6f6f6f">project_id</text><path fill="#DEDEDE" d="M237.234 6.5h20s2 0 2 2v12s0 2-2 2h-20s-2 0-2-2v-12s0-2 2-2"/><path fill="#6F6F6F" d="M246.046 19h-1.168l-4.75-7.56h-.047c.011.202.025.431.041.69.016.254.028.527.036.819.012.287.018.58.018.88V19h-.942v-9h1.162l4.732 7.535h.042a157.13 157.13 0 01-.066-1.465 33.296 33.296 0 01-.012-.856V10h.954v9zM255.234 19h-1.168l-4.749-7.56h-.048l.042.69c.016.254.028.527.036.819.012.287.018.58.018.88V19h-.942v-9h1.162l4.732 7.535h.041a158.366 158.366 0 01-.065-1.465 33.065 33.065 0 01-.012-.856V10h.953v9z"/><text x="188.375" y="19.25" font-family="&quot;Open Sans&quot;,sans-serif" font-size="13" fill="#999">integer</text></svg><svg x="1120" y="528"><path fill="#F2F2F2" d="M0 0h269.234v32H0z"/><text x="10" y="19.25" font-family="&quot;Open Sans&quot;,sans-serif" font-size="13" fill="#6f6f6f">user_id</text><path fill="#DEDEDE" d="M237.234 6.5h20s2 0 2 2v12s0 2-2 2h-20s-2 0-2-2v-12s0-2 2-2"/><path fill="#6F6F6F" d="M246.046 19h-1.168l-4.75-7.56h-.047c.011.202.025.431.041.69.016.254.028.527.036.819.012.287.018.58.018.88V19h-.942v-9h1.162l4.732 7.535h.042a157.13 157.13 0 01-.066-1.465 33.296 33.296 0 01-.012-.856V10h.954v9zM255.234 19h-1.168l-4.749-7.56h-.048l.042.69c.016.254.028.527.036.819.012.287.018.58.018.88V19h-.942v-9h1.162l4.732 7.535h.041a158.366 158.366 0 01-.065-1.465 33.065 33.065 0 01-.012-.856V10h.953v9z"/><text x="188.375" y="19.25" font-family="&quot;Open Sans&quot;,sans-serif" font-size="13" fill="#999">integer</text></svg><svg x="1120" y="560"><path fill="#F2F2F2" d="M0 0h269.234v32H0z"/><text x="10" y="19.25" font-family="&quot;Open Sans&quot;,sans-serif" font-size="13" fill="#6f6f6f">role</text><path fill="#DEDEDE" d="M237.234 6.5h20s2 0 2 2v12s0 2-2 2h-20s-2 0-2-2v-12s0-2 2-2"/><path fill="#6F6F6F" d="M246.046 19h-1.168l-4.75-7.56h-.047c.011.202.025.431.041.69.016.254.028.527.036.819.012.287.018.58.018.88V19h-.942v-9h1.162l4.732 7.535h.042a157.13 157.13 0 01-.066-1.465 33.296 33.296 0 01-.012-.856V10h.954v9zM255.234 19h-1.168l-4.749-7.56h-.048l.042.69c.016.254.028.527.036.819.012.287.018.58.018.88V19h-.942v-9h1.162l4.732 7.535h.041a158.366 158.366 0 01-.065-1.465 33.065 33.065 0 01-.012-.856V10h.953v9z"/><text x="96.601" y="19.25" font-family="&quot;Open Sans&quot;,sans-serif" font-size="13" fill="#999">character varying(255)</text></svg><svg x="1120" y="592"><path fill="#F2F2F2" d="M0 0h269.234v32H0z"/><text x="10" y="19.25" font-family="&quot;Open Sans&quot;,sans-serif" font-size="13" fill="#6f6f6f">created_by_id</text><text x="216.375" y="19.25" font-family="&quot;Open Sans&quot;,sans-serif" font-size="13" fill="#999">integer</text></svg><svg x="1120" y="624"><path fill="#F2F2F2" d="M0 0h269.234v32H0z"/><text x="10" y="19.25" font-family="&quot;Open Sans&quot;,sans-serif" font-size="13" fill="#6f6f6f">updated_by_id</text><text x="216.375" y="19.25" font-family="&quot;Open Sans&quot;,sans-serif" font-size="13" fill="#999">integer</text></svg><svg y="808"><path fill="#316896" d="M0 0h294.377v32H0z"/><text x="10" y="19.25" font-family="&quot;Open Sans&quot;,sans-serif" font-size="13" font-weight="700" fill="#fff">projects</text></svg><svg y="840"><path fill="#F2F2F2" d="M0 0h294.377v32H0z"/><text x="10" y="19.25" font-family="&quot;Open Sans&quot;,sans-serif" font-size="13" font-weight="700" fill="#6f6f6f">id</text><path fill="#6F6F6F" d="M32.756 10.234a2.953 2.953 0 11-1.1 5.695l-.868.868h-.657v.984h-.984v.985h-1.969v-1.97l2.752-2.75a2.953 2.953 0 012.826-3.81zm0-.984a3.937 3.937 0 00-3.9 4.477l-2.518 2.518a.493.493 0 00-.144.348v2.665c0 .272.22.492.492.492h2.953c.272 0 .492-.22.492-.492v-.492h.493c.271 0 .492-.22.492-.493v-.41l.821-.823a3.937 3.937 0 10.82-7.79zm0 2.953a.984.984 0 101.97 0 .984.984 0 00-1.97 0z"/><path fill="#DEDEDE" d="M262.377 6.5h20s2 0 2 2v12s0 2-2 2h-20s-2 0-2-2v-12s0-2 2-2"/><path fill="#6F6F6F" d="M271.188 19h-1.168l-4.75-7.56h-.047l.042.69c.016.254.028.527.036.819.012.287.017.58.017.88V19h-.941v-9h1.162l4.731 7.535h.042a157.13 157.13 0 01-.066-1.465 33.296 33.296 0 01-.011-.856V10h.953v9zM280.377 19h-1.168l-4.75-7.56h-.047l.042.69c.016.254.027.527.035.819.012.287.018.58.018.88V19h-.941v-9h1.162l4.731 7.535h.042a158.366 158.366 0 01-.066-1.465 33.065 33.065 0 01-.011-.856V10h.953v9z"/><text x="218.685" y="19.25" font-family="&quot;Open Sans&quot;,sans-serif" font-size="13" font-weight="700" fill="#999">bigint</text></svg><svg y="872"><path fill="#F2F2F2" d="M0 0h294.377v32H0z"/><text x="10" y="19.25" font-family="&quot;Open Sans&quot;,sans-serif" font-size="13" fill="#6f6f6f">created_at</text><text x="203.984" y="19.25" font-family="&quot;Open Sans&quot;,sans-serif" font-size="13" fill="#999">timestamp(0)</text></svg><svg y="904"><path fill="#F2F2F2" d="M0 0h294.377v32H0z"/><text x="10" y="19.25" font-family="&quot;Open Sans&quot;,sans-serif" font-size="13" fill="#6f6f6f">updated_at</text><text x="203.984" y="19.25" font-family="&quot;Open Sans&quot;,sans-serif" font-size="13" fill="#999">timestamp(0)</text></svg><svg y="936"><path fill="#F2F2F2" d="M0 0h294.377v32H0z"/><text x="10" y="19.25" font-family="&quot;Open Sans&quot;,sans-serif" font-size="13" fill="#6f6f6f">title</text><path fill="#DEDEDE" d="M262.377 6.5h20s2 0 2 2v12s0 2-2 2h-20s-2 0-2-2v-12s0-2 2-2"/><path fill="#6F6F6F" d="M271.188 19h-1.168l-4.75-7.56h-.047l.042.69c.016.254.028.527.036.819.012.287.017.58.017.88V19h-.941v-9h1.162l4.731 7.535h.042a157.13 157.13 0 01-.066-1.465 33.296 33.296 0 01-.011-.856V10h.953v9zM280.377 19h-1.168l-4.75-7.56h-.047l.042.69c.016.254.027.527.035.819.012.287.018.58.018.88V19h-.941v-9h1.162l4.731 7.535h.042a158.366 158.366 0 01-.066-1.465 33.065 33.065 0 01-.011-.856V10h.953v9z"/><text x="121.743" y="19.25" font-family="&quot;Open Sans&quot;,sans-serif" font-size="13" fill="#999">character varying(255)</text></svg><svg y="968"><path fill="#F2F2F2" d="M0 0h294.377v32H0z"/><text x="10" y="19.25" font-family="&quot;Open Sans&quot;,sans-serif" font-size="13" fill="#6f6f6f">description</text><text x="261.005" y="19.25" font-family="&quot;Open Sans&quot;,sans-serif" font-size="13" fill="#999">text</text></svg><svg y="1000"><path fill="#F2F2F2" d="M0 0h294.377v32H0z"/><text x="10" y="19.25" font-family="&quot;Open Sans&quot;,sans-serif" font-size="13" fill="#6f6f6f">project_icon</text><text x="149.743" y="19.25" font-family="&quot;Open Sans&quot;,sans-serif" font-size="13" fill="#999">character varying(255)</text></svg><svg y="1032"><path fill="#F2F2F2" d="M0 0h294.377v32H0z"/><text x="10" y="19.25" font-family="&quot;Open Sans&quot;,sans-serif" font-size="13" fill="#6f6f6f">taxonomic_scope_id</text><path fill="#DEDEDE" d="M262.377 6.5h20s2 0 2 2v12s0 2-2 2h-20s-2 0-2-2v-12s0-2 2-2"/><path fill="#6F6F6F" d="M271.188 19h-1.168l-4.75-7.56h-.047l.042.69c.016.254.028.527.036.819.012.287.017.58.017.88V19h-.941v-9h1.162l4.731 7.535h.042a157.13 157.13 0 01-.066-1.465 33.296 33.296 0 01-.011-.856V10h.953v9zM280.377 19h-1.168l-4.75-7.56h-.047l.042.69c.016.254.027.527.035.819.012.287.018.58.018.88V19h-.941v-9h1.162l4.731 7.535h.042a158.366 158.366 0 01-.066-1.465 33.065 33.065 0 01-.011-.856V10h.953v9z"/><text x="213.518" y="19.25" font-family="&quot;Open Sans&quot;,sans-serif" font-size="13" fill="#999">integer</text></svg><svg y="1064"><path fill="#F2F2F2" d="M0 0h294.377v32H0z"/><text x="10" y="19.25" font-family="&quot;Open Sans&quot;,sans-serif" font-size="13" fill="#6f6f6f">created_by_id</text><text x="241.518" y="19.25" font-family="&quot;Open Sans&quot;,sans-serif" font-size="13" fill="#999">integer</text></svg><svg y="1096"><path fill="#F2F2F2" d="M0 0h294.377v32H0z"/><text x="10" y="19.25" font-family="&quot;Open Sans&quot;,sans-serif" font-size="13" fill="#6f6f6f">updated_by_id</text><text x="241.518" y="19.25" font-family="&quot;Open Sans&quot;,sans-serif" font-size="13" fill="#999">integer</text></svg><svg x="344" y="968"><path fill="#316896" d="M0 0h347.488v32H0z"/><text x="10" y="19.25" font-family="&quot;Open Sans&quot;,sans-serif" font-size="13" font-weight="700" fill="#fff">sources</text></svg><svg x="344" y="1000"><path fill="#F2F2F2" d="M0 0h347.488v32H0z"/><text x="10" y="19.25" font-family="&quot;Open Sans&quot;,sans-serif" font-size="13" font-weight="700" fill="#6f6f6f">id</text><path fill="#6F6F6F" d="M32.756 10.234a2.953 2.953 0 11-1.1 5.695l-.868.868h-.657v.984h-.984v.985h-1.969v-1.97l2.752-2.75a2.953 2.953 0 012.826-3.81zm0-.984a3.937 3.937 0 00-3.9 4.477l-2.518 2.518a.493.493 0 00-.144.348v2.665c0 .272.22.492.492.492h2.953c.272 0 .492-.22.492-.492v-.492h.493c.271 0 .492-.22.492-.493v-.41l.821-.823a3.937 3.937 0 10.82-7.79zm0 2.953a.984.984 0 101.97 0 .984.984 0 00-1.97 0z"/><path fill="#DEDEDE" d="M315.488 6.5h20s2 0 2 2v12s0 2-2 2h-20s-2 0-2-2v-12s0-2 2-2"/><path fill="#6F6F6F" d="M324.299 19h-1.168l-4.75-7.56h-.047l.042.69c.016.254.027.527.035.819.012.287.018.58.018.88V19h-.941v-9h1.162l4.731 7.535h.042a157.13 157.13 0 01-.066-1.465 33.296 33.296 0 01-.011-.856V10h.953v9zM333.488 19h-1.168l-4.75-7.56h-.047l.041.69c.016.254.028.527.036.819.012.287.018.58.018.88V19h-.941v-9h1.162l4.731 7.535h.042a158.366 158.366 0 01-.066-1.465 33.065 33.065 0 01-.012-.856V10h.954v9z"/><text x="271.795" y="19.25" font-family="&quot;Open Sans&quot;,sans-serif" font-size="13" font-weight="700" fill="#999">bigint</text></svg><svg x="344" y="1032"><path fill="#F2F2F2" d="M0 0h347.488v32H0z"/><text x="10" y="19.25" font-family="&quot;Open Sans&quot;,sans-serif" font-size="13" fill="#6f6f6f">created_at</text><text x="257.095" y="19.25" font-family="&quot;Open Sans&quot;,sans-serif" font-size="13" fill="#999">timestamp(0)</text></svg><svg x="344" y="1064"><path fill="#F2F2F2" d="M0 0h347.488v32H0z"/><text x="10" y="19.25" font-family="&quot;Open Sans&quot;,sans-serif" font-size="13" fill="#6f6f6f">updated_at</text><text x="257.095" y="19.25" font-family="&quot;Open Sans&quot;,sans-serif" font-size="13" fill="#999">timestamp(0)</text></svg><svg x="344" y="1096"><path fill="#F2F2F2" d="M0 0h347.488v32H0z"/><text x="10" y="19.25" font-family="&quot;Open Sans&quot;,sans-serif" font-size="13" fill="#6f6f6f">title</text><path fill="#DEDEDE" d="M315.488 6.5h20s2 0 2 2v12s0 2-2 2h-20s-2 0-2-2v-12s0-2 2-2"/><path fill="#6F6F6F" d="M324.299 19h-1.168l-4.75-7.56h-.047l.042.69c.016.254.027.527.035.819.012.287.018.58.018.88V19h-.941v-9h1.162l4.731 7.535h.042a157.13 157.13 0 01-.066-1.465 33.296 33.296 0 01-.011-.856V10h.953v9zM333.488 19h-1.168l-4.75-7.56h-.047l.041.69c.016.254.028.527.036.819.012.287.018.58.018.88V19h-.941v-9h1.162l4.731 7.535h.042a158.366 158.366 0 01-.066-1.465 33.065 33.065 0 01-.012-.856V10h.954v9z"/><text x="174.854" y="19.25" font-family="&quot;Open Sans&quot;,sans-serif" font-size="13" fill="#999">character varying(255)</text></svg><svg x="344" y="1128"><path fill="#F2F2F2" d="M0 0h347.488v32H0z"/><text x="10" y="19.25" font-family="&quot;Open Sans&quot;,sans-serif" font-size="13" fill="#6f6f6f">authors</text><text x="202.854" y="19.25" font-family="&quot;Open Sans&quot;,sans-serif" font-size="13" fill="#999">character varying(255)</text></svg><svg x="344" y="1160"><path fill="#F2F2F2" d="M0 0h347.488v32H0z"/><text x="10" y="19.25" font-family="&quot;Open Sans&quot;,sans-serif" font-size="13" fill="#6f6f6f">year</text><text x="210.287" y="19.25" font-family="&quot;Open Sans&quot;,sans-serif" font-size="13" fill="#999">character varying(16)</text></svg><svg x="344" y="1192"><path fill="#F2F2F2" d="M0 0h347.488v32H0z"/><text x="10" y="19.25" font-family="&quot;Open Sans&quot;,sans-serif" font-size="13" fill="#6f6f6f">in_authors</text><text x="202.854" y="19.25" font-family="&quot;Open Sans&quot;,sans-serif" font-size="13" fill="#999">character varying(255)</text></svg><svg x="344" y="1224"><path fill="#F2F2F2" d="M0 0h347.488v32H0z"/><text x="10" y="19.25" font-family="&quot;Open Sans&quot;,sans-serif" font-size="13" fill="#6f6f6f">in_title</text><text x="202.854" y="19.25" font-family="&quot;Open Sans&quot;,sans-serif" font-size="13" fill="#999">character varying(255)</text></svg><svg x="344" y="1256"><path fill="#F2F2F2" d="M0 0h347.488v32H0z"/><text x="10" y="19.25" font-family="&quot;Open Sans&quot;,sans-serif" font-size="13" fill="#6f6f6f">edition</text><text x="210.287" y="19.25" font-family="&quot;Open Sans&quot;,sans-serif" font-size="13" fill="#999">character varying(32)</text></svg><svg x="344" y="1288"><path fill="#F2F2F2" d="M0 0h347.488v32H0z"/><text x="10" y="19.25" font-family="&quot;Open Sans&quot;,sans-serif" font-size="13" fill="#6f6f6f">journal</text><text x="202.854" y="19.25" font-family="&quot;Open Sans&quot;,sans-serif" font-size="13" fill="#999">character varying(255)</text></svg><svg x="344" y="1320"><path fill="#F2F2F2" d="M0 0h347.488v32H0z"/><text x="10" y="19.25" font-family="&quot;Open Sans&quot;,sans-serif" font-size="13" fill="#6f6f6f">series</text><text x="210.287" y="19.25" font-family="&quot;Open Sans&quot;,sans-serif" font-size="13" fill="#999">character varying(64)</text></svg><svg x="344" y="1352"><path fill="#F2F2F2" d="M0 0h347.488v32H0z"/><text x="10" y="19.25" font-family="&quot;Open Sans&quot;,sans-serif" font-size="13" fill="#6f6f6f">volume</text><text x="210.287" y="19.25" font-family="&quot;Open Sans&quot;,sans-serif" font-size="13" fill="#999">character varying(64)</text></svg><svg x="344" y="1384"><path fill="#F2F2F2" d="M0 0h347.488v32H0z"/><text x="10" y="19.25" font-family="&quot;Open Sans&quot;,sans-serif" font-size="13" fill="#6f6f6f">issue</text><text x="210.287" y="19.25" font-family="&quot;Open Sans&quot;,sans-serif" font-size="13" fill="#999">character varying(64)</text></svg><svg x="344" y="1416"><path fill="#F2F2F2" d="M0 0h347.488v32H0z"/><text x="10" y="19.25" font-family="&quot;Open Sans&quot;,sans-serif" font-size="13" fill="#6f6f6f">part</text><text x="210.287" y="19.25" font-family="&quot;Open Sans&quot;,sans-serif" font-size="13" fill="#999">character varying(64)</text></svg><svg x="344" y="1448"><path fill="#F2F2F2" d="M0 0h347.488v32H0z"/><text x="10" y="19.25" font-family="&quot;Open Sans&quot;,sans-serif" font-size="13" fill="#6f6f6f">publisher</text><text x="202.854" y="19.25" font-family="&quot;Open Sans&quot;,sans-serif" font-size="13" fill="#999">character varying(255)</text></svg><svg x="344" y="1480"><path fill="#F2F2F2" d="M0 0h347.488v32H0z"/><text x="10" y="19.25" font-family="&quot;Open Sans&quot;,sans-serif" font-size="13" fill="#6f6f6f">place_of_publication</text><text x="202.854" y="19.25" font-family="&quot;Open Sans&quot;,sans-serif" font-size="13" fill="#999">character varying(255)</text></svg><svg x="344" y="1512"><path fill="#F2F2F2" d="M0 0h347.488v32H0z"/><text x="10" y="19.25" font-family="&quot;Open Sans&quot;,sans-serif" font-size="13" fill="#6f6f6f">pages</text><text x="210.287" y="19.25" font-family="&quot;Open Sans&quot;,sans-serif" font-size="13" fill="#999">character varying(32)</text></svg><svg x="344" y="1544"><path fill="#F2F2F2" d="M0 0h347.488v32H0z"/><text x="10" y="19.25" font-family="&quot;Open Sans&quot;,sans-serif" font-size="13" fill="#6f6f6f">url</text><text x="202.854" y="19.25" font-family="&quot;Open Sans&quot;,sans-serif" font-size="13" fill="#999">character varying(255)</text></svg><svg x="344" y="1576"><path fill="#F2F2F2" d="M0 0h347.488v32H0z"/><text x="10" y="19.25" font-family="&quot;Open Sans&quot;,sans-serif" font-size="13" fill="#6f6f6f">project_id</text><path fill="#DEDEDE" d="M315.488 6.5h20s2 0 2 2v12s0 2-2 2h-20s-2 0-2-2v-12s0-2 2-2"/><path fill="#6F6F6F" d="M324.299 19h-1.168l-4.75-7.56h-.047l.042.69c.016.254.027.527.035.819.012.287.018.58.018.88V19h-.941v-9h1.162l4.731 7.535h.042a157.13 157.13 0 01-.066-1.465 33.296 33.296 0 01-.011-.856V10h.953v9zM333.488 19h-1.168l-4.75-7.56h-.047l.041.69c.016.254.028.527.036.819.012.287.018.58.018.88V19h-.941v-9h1.162l4.731 7.535h.042a158.366 158.366 0 01-.066-1.465 33.065 33.065 0 01-.012-.856V10h.954v9z"/><text x="266.628" y="19.25" font-family="&quot;Open Sans&quot;,sans-serif" font-size="13" fill="#999">integer</text></svg><svg x="344" y="1608"><path fill="#F2F2F2" d="M0 0h347.488v32H0z"/><text x="10" y="19.25" font-family="&quot;Open Sans&quot;,sans-serif" font-size="13" fill="#6f6f6f">created_by_id</text><text x="294.628" y="19.25" font-family="&quot;Open Sans&quot;,sans-serif" font-size="13" fill="#999">integer</text></svg><svg x="344" y="1640"><path fill="#F2F2F2" d="M0 0h347.488v32H0z"/><text x="10" y="19.25" font-family="&quot;Open Sans&quot;,sans-serif" font-size="13" fill="#6f6f6f">updated_by_id</text><text x="294.628" y="19.25" font-family="&quot;Open Sans&quot;,sans-serif" font-size="13" fill="#999">integer</text></svg><svg x="744" y="616"><path fill="#316896" d="M0 0h327.563v32H0z"/><text x="10" y="19.25" font-family="&quot;Open Sans&quot;,sans-serif" font-size="13" font-weight="700" fill="#fff">users</text></svg><svg x="744" y="648"><path fill="#F2F2F2" d="M0 0h327.563v32H0z"/><text x="10" y="19.25" font-family="&quot;Open Sans&quot;,sans-serif" font-size="13" font-weight="700" fill="#6f6f6f">id</text><path fill="#6F6F6F" d="M32.756 10.234a2.953 2.953 0 11-1.1 5.695l-.868.868h-.657v.984h-.984v.985h-1.969v-1.97l2.752-2.75a2.953 2.953 0 012.826-3.81zm0-.984a3.937 3.937 0 00-3.9 4.477l-2.518 2.518a.493.493 0 00-.144.348v2.665c0 .272.22.492.492.492h2.953c.272 0 .492-.22.492-.492v-.492h.493c.271 0 .492-.22.492-.493v-.41l.821-.823a3.937 3.937 0 10.82-7.79zm0 2.953a.984.984 0 101.97 0 .984.984 0 00-1.97 0z"/><path fill="#DEDEDE" d="M295.563 6.5h20s2 0 2 2v12s0 2-2 2h-20s-2 0-2-2v-12s0-2 2-2"/><path fill="#6F6F6F" d="M304.374 19h-1.168l-4.75-7.56h-.047l.041.69c.016.254.028.527.036.819.012.287.018.58.018.88V19h-.942v-9h1.163l4.731 7.535h.042a157.13 157.13 0 01-.066-1.465 33.296 33.296 0 01-.012-.856V10h.954v9zM313.563 19h-1.168l-4.75-7.56h-.047c.011.202.025.431.041.69.016.254.028.527.036.819.012.287.018.58.018.88V19h-.942v-9h1.162l4.732 7.535h.041a158.366 158.366 0 01-.066-1.465 33.065 33.065 0 01-.01-.856V10h.952v9z"/><text x="251.87" y="19.25" font-family="&quot;Open Sans&quot;,sans-serif" font-size="13" font-weight="700" fill="#999">bigint</text></svg><svg x="744" y="680"><path fill="#F2F2F2" d="M0 0h327.563v32H0z"/><text x="10" y="19.25" font-family="&quot;Open Sans&quot;,sans-serif" font-size="13" fill="#6f6f6f">name</text><path fill="#DEDEDE" d="M295.563 6.5h20s2 0 2 2v12s0 2-2 2h-20s-2 0-2-2v-12s0-2 2-2"/><path fill="#6F6F6F" d="M304.374 19h-1.168l-4.75-7.56h-.047l.041.69c.016.254.028.527.036.819.012.287.018.58.018.88V19h-.942v-9h1.163l4.731 7.535h.042a157.13 157.13 0 01-.066-1.465 33.296 33.296 0 01-.012-.856V10h.954v9zM313.563 19h-1.168l-4.75-7.56h-.047c.011.202.025.431.041.69.016.254.028.527.036.819.012.287.018.58.018.88V19h-.942v-9h1.162l4.732 7.535h.041a158.366 158.366 0 01-.066-1.465 33.065 33.065 0 01-.01-.856V10h.952v9z"/><text x="154.929" y="19.25" font-family="&quot;Open Sans&quot;,sans-serif" font-size="13" fill="#999">character varying(255)</text></svg><svg x="744" y="712"><path fill="#F2F2F2" d="M0 0h327.563v32H0z"/><text x="10" y="19.25" font-family="&quot;Open Sans&quot;,sans-serif" font-size="13" fill="#6f6f6f">email</text><path fill="#DEDEDE" d="M295.563 6.5h20s2 0 2 2v12s0 2-2 2h-20s-2 0-2-2v-12s0-2 2-2"/><path fill="#6F6F6F" d="M304.374 19h-1.168l-4.75-7.56h-.047l.041.69c.016.254.028.527.036.819.012.287.018.58.018.88V19h-.942v-9h1.163l4.731 7.535h.042a157.13 157.13 0 01-.066-1.465 33.296 33.296 0 01-.012-.856V10h.954v9zM313.563 19h-1.168l-4.75-7.56h-.047c.011.202.025.431.041.69.016.254.028.527.036.819.012.287.018.58.018.88V19h-.942v-9h1.162l4.732 7.535h.041a158.366 158.366 0 01-.066-1.465 33.065 33.065 0 01-.01-.856V10h.952v9z"/><text x="154.929" y="19.25" font-family="&quot;Open Sans&quot;,sans-serif" font-size="13" fill="#999">character varying(255)</text></svg><svg x="744" y="744"><path fill="#F2F2F2" d="M0 0h327.563v32H0z"/><text x="10" y="19.25" font-family="&quot;Open Sans&quot;,sans-serif" font-size="13" fill="#6f6f6f">email_verified_at</text><text x="237.169" y="19.25" font-family="&quot;Open Sans&quot;,sans-serif" font-size="13" fill="#999">timestamp(0)</text></svg><svg x="744" y="776"><path fill="#F2F2F2" d="M0 0h327.563v32H0z"/><text x="10" y="19.25" font-family="&quot;Open Sans&quot;,sans-serif" font-size="13" fill="#6f6f6f">password</text><path fill="#DEDEDE" d="M295.563 6.5h20s2 0 2 2v12s0 2-2 2h-20s-2 0-2-2v-12s0-2 2-2"/><path fill="#6F6F6F" d="M304.374 19h-1.168l-4.75-7.56h-.047l.041.69c.016.254.028.527.036.819.012.287.018.58.018.88V19h-.942v-9h1.163l4.731 7.535h.042a157.13 157.13 0 01-.066-1.465 33.296 33.296 0 01-.012-.856V10h.954v9zM313.563 19h-1.168l-4.75-7.56h-.047c.011.202.025.431.041.69.016.254.028.527.036.819.012.287.018.58.018.88V19h-.942v-9h1.162l4.732 7.535h.041a158.366 158.366 0 01-.066-1.465 33.065 33.065 0 01-.01-.856V10h.952v9z"/><text x="154.929" y="19.25" font-family="&quot;Open Sans&quot;,sans-serif" font-size="13" fill="#999">character varying(255)</text></svg><svg x="744" y="808"><path fill="#F2F2F2" d="M0 0h327.563v32H0z"/><text x="10" y="19.25" font-family="&quot;Open Sans&quot;,sans-serif" font-size="13" fill="#6f6f6f">remember_token</text><text x="182.929" y="19.25" font-family="&quot;Open Sans&quot;,sans-serif" font-size="13" fill="#999">character varying(100)</text></svg><svg x="744" y="840"><path fill="#F2F2F2" d="M0 0h327.563v32H0z"/><text x="10" y="19.25" font-family="&quot;Open Sans&quot;,sans-serif" font-size="13" fill="#6f6f6f">created_at</text><text x="237.169" y="19.25" font-family="&quot;Open Sans&quot;,sans-serif" font-size="13" fill="#999">timestamp(0)</text></svg><svg x="744" y="872"><path fill="#F2F2F2" d="M0 0h327.563v32H0z"/><text x="10" y="19.25" font-family="&quot;Open Sans&quot;,sans-serif" font-size="13" fill="#6f6f6f">updated_at</text><text x="237.169" y="19.25" font-family="&quot;Open Sans&quot;,sans-serif" font-size="13" fill="#999">timestamp(0)</text></svg></svg>
