<svg xmlns="http://www.w3.org/2000/svg" width="1071.872" height="704"><svg x="681.185" y="-2" width="175.748" height="205"><path d="M142.748 178H97.374q-10 0-10-10V60q0-10-10-10H32h45.374q10 0 10 10v108q0 10 10 10h45.374zm0 0h10M32 50H22m130.748 124l-9 4 9 4M32 46v8" fill="none" stroke="#9B9CA4"/><text x="142.037" y="173" font-family="&quot;Open Sans&quot;,sans-serif" font-size="14" font-weight="400" fill="transparent">*</text><text x="25" y="45" font-family="&quot;Open Sans&quot;,sans-serif" font-size="14" font-weight="400" fill="transparent">1</text></svg><svg x="325.488" y="-2" width="126.88" height="525"><path d="M93.88 498H72.94q-10 0-10-10V60q0-10-10-10H38h14.94q10 0 10 10v428q0 10 10 10H93.88zm0 0h10M32 50H22m81.88 444l-9 4 9 4M38 50l-.058.585-.17.563-.278.519-.373.454-.454.373-.519.278-.563.17L35 53l-.585-.058-.563-.17-.519-.278-.454-.373-.373-.454-.278-.519-.17-.563L32 50l.058-.585.17-.563.278-.519.373-.454.454-.373.519-.278.563-.17L35 47l.585.058.563.17.519.278.454.373.373.454.278.519.17.563L38 50" fill="none" stroke="#9B9CA4"/><text x="93.169" y="493" font-family="&quot;Open Sans&quot;,sans-serif" font-size="14" font-weight="400" fill="transparent">*</text><text x="25" y="45" font-family="&quot;Open Sans&quot;,sans-serif" font-size="14" font-weight="400" fill="transparent">0..1</text></svg><svg x="681.185" y="315.739" width="128.21" height="271.261"><path d="M32 244.261h43.21q10 0 10-10V52q0-2 2-2h2-2q-2 0-2 2v182.261q0 10-10 10H32zm0 0H22M95.21 50h10M22 240.261l9 4-9 4M95.21 50l-.057.585-.17.563-.278.519-.373.454-.455.373-.518.278-.563.17-.586.058-.585-.058-.563-.17-.518-.278-.455-.373-.373-.454-.277-.519-.17-.563L89.21 50l.058-.585.17-.563.278-.519.373-.454.455-.373.518-.278.563-.17.585-.058.586.058.563.17.518.278.455.373.373.454.277.519.17.563.058.585" fill="none" stroke="#9B9CA4"/><text x="25" y="239.261" font-family="&quot;Open Sans&quot;,sans-serif" font-size="14" font-weight="400" fill="transparent">*</text><text x="78.845" y="45" font-family="&quot;Open Sans&quot;,sans-serif" font-size="14" font-weight="400" fill="transparent">0..1</text></svg><svg x="681.185" y="315.739" width="128.21" height="239.261"><path d="M32 212.261h21.605q10 0 10-10V60q0-10 10-10H89.21 73.605q-10 0-10 10v142.261q0 10-10 10H32zm0 0H22M95.21 50h10M22 208.261l9 4-9 4M95.21 50l-.057.585-.17.563-.278.519-.373.454-.455.373-.518.278-.563.17-.586.058-.585-.058-.563-.17-.518-.278-.455-.373-.373-.454-.277-.519-.17-.563L89.21 50l.058-.585.17-.563.278-.519.373-.454.455-.373.518-.278.563-.17.585-.058.586.058.563.17.518.278.455.373.373.454.277.519.17.563.058.585" fill="none" stroke="#9B9CA4"/><text x="25" y="207.261" font-family="&quot;Open Sans&quot;,sans-serif" font-size="14" font-weight="400" fill="transparent">*</text><text x="78.845" y="45" font-family="&quot;Open Sans&quot;,sans-serif" font-size="14" font-weight="400" fill="transparent">0..1</text></svg><svg><path fill="#316896" d="M0 0h347.488v32H0z"/><text x="10" y="19.25" font-family="&quot;Open Sans&quot;,sans-serif" font-size="13" font-weight="700" fill="#fff">sources</text></svg><svg y="32"><path fill="#F2F2F2" d="M0 0h347.488v32H0z"/><text x="10" y="19.25" font-family="&quot;Open Sans&quot;,sans-serif" font-size="13" font-weight="700" fill="#6f6f6f">id</text><path fill="#6F6F6F" d="M32.756 10.234a2.953 2.953 0 11-1.1 5.695l-.868.868h-.657v.984h-.984v.985h-1.969v-1.97l2.752-2.75a2.953 2.953 0 012.826-3.81zm0-.984a3.937 3.937 0 00-3.9 4.477l-2.518 2.518a.493.493 0 00-.144.348v2.665c0 .272.22.492.492.492h2.953c.272 0 .492-.22.492-.492v-.492h.493c.271 0 .492-.22.492-.493v-.41l.821-.823a3.937 3.937 0 10.82-7.79zm0 2.953a.984.984 0 101.97 0 .984.984 0 00-1.97 0z"/><path fill="#DEDEDE" d="M315.488 6.5h20s2 0 2 2v12s0 2-2 2h-20s-2 0-2-2v-12s0-2 2-2"/><path fill="#6F6F6F" d="M324.299 19h-1.168l-4.75-7.56h-.047l.042.69c.016.254.027.527.035.819.012.287.018.58.018.88V19h-.941v-9h1.162l4.731 7.535h.042a157.13 157.13 0 01-.066-1.465 33.296 33.296 0 01-.011-.856V10h.953v9zM333.488 19h-1.168l-4.75-7.56h-.047l.041.69c.016.254.028.527.036.819.012.287.018.58.018.88V19h-.941v-9h1.162l4.731 7.535h.042a158.366 158.366 0 01-.066-1.465 33.065 33.065 0 01-.012-.856V10h.954v9z"/><text x="271.795" y="19.25" font-family="&quot;Open Sans&quot;,sans-serif" font-size="13" font-weight="700" fill="#999">bigint</text></svg><svg y="64"><path fill="#F2F2F2" d="M0 0h347.488v32H0z"/><text x="10" y="19.25" font-family="&quot;Open Sans&quot;,sans-serif" font-size="13" fill="#6f6f6f">created_at</text><text x="257.095" y="19.25" font-family="&quot;Open Sans&quot;,sans-serif" font-size="13" fill="#999">timestamp(0)</text></svg><svg y="96"><path fill="#F2F2F2" d="M0 0h347.488v32H0z"/><text x="10" y="19.25" font-family="&quot;Open Sans&quot;,sans-serif" font-size="13" fill="#6f6f6f">updated_at</text><text x="257.095" y="19.25" font-family="&quot;Open Sans&quot;,sans-serif" font-size="13" fill="#999">timestamp(0)</text></svg><svg y="128"><path fill="#F2F2F2" d="M0 0h347.488v32H0z"/><text x="10" y="19.25" font-family="&quot;Open Sans&quot;,sans-serif" font-size="13" fill="#6f6f6f">title</text><path fill="#DEDEDE" d="M315.488 6.5h20s2 0 2 2v12s0 2-2 2h-20s-2 0-2-2v-12s0-2 2-2"/><path fill="#6F6F6F" d="M324.299 19h-1.168l-4.75-7.56h-.047l.042.69c.016.254.027.527.035.819.012.287.018.58.018.88V19h-.941v-9h1.162l4.731 7.535h.042a157.13 157.13 0 01-.066-1.465 33.296 33.296 0 01-.011-.856V10h.953v9zM333.488 19h-1.168l-4.75-7.56h-.047l.041.69c.016.254.028.527.036.819.012.287.018.58.018.88V19h-.941v-9h1.162l4.731 7.535h.042a158.366 158.366 0 01-.066-1.465 33.065 33.065 0 01-.012-.856V10h.954v9z"/><text x="174.854" y="19.25" font-family="&quot;Open Sans&quot;,sans-serif" font-size="13" fill="#999">character varying(255)</text></svg><svg y="160"><path fill="#F2F2F2" d="M0 0h347.488v32H0z"/><text x="10" y="19.25" font-family="&quot;Open Sans&quot;,sans-serif" font-size="13" fill="#6f6f6f">authors</text><text x="202.854" y="19.25" font-family="&quot;Open Sans&quot;,sans-serif" font-size="13" fill="#999">character varying(255)</text></svg><svg y="192"><path fill="#F2F2F2" d="M0 0h347.488v32H0z"/><text x="10" y="19.25" font-family="&quot;Open Sans&quot;,sans-serif" font-size="13" fill="#6f6f6f">year</text><text x="210.287" y="19.25" font-family="&quot;Open Sans&quot;,sans-serif" font-size="13" fill="#999">character varying(16)</text></svg><svg y="224"><path fill="#F2F2F2" d="M0 0h347.488v32H0z"/><text x="10" y="19.25" font-family="&quot;Open Sans&quot;,sans-serif" font-size="13" fill="#6f6f6f">in_authors</text><text x="202.854" y="19.25" font-family="&quot;Open Sans&quot;,sans-serif" font-size="13" fill="#999">character varying(255)</text></svg><svg y="256"><path fill="#F2F2F2" d="M0 0h347.488v32H0z"/><text x="10" y="19.25" font-family="&quot;Open Sans&quot;,sans-serif" font-size="13" fill="#6f6f6f">in_title</text><text x="202.854" y="19.25" font-family="&quot;Open Sans&quot;,sans-serif" font-size="13" fill="#999">character varying(255)</text></svg><svg y="288"><path fill="#F2F2F2" d="M0 0h347.488v32H0z"/><text x="10" y="19.25" font-family="&quot;Open Sans&quot;,sans-serif" font-size="13" fill="#6f6f6f">edition</text><text x="210.287" y="19.25" font-family="&quot;Open Sans&quot;,sans-serif" font-size="13" fill="#999">character varying(32)</text></svg><svg y="320"><path fill="#F2F2F2" d="M0 0h347.488v32H0z"/><text x="10" y="19.25" font-family="&quot;Open Sans&quot;,sans-serif" font-size="13" fill="#6f6f6f">journal</text><text x="202.854" y="19.25" font-family="&quot;Open Sans&quot;,sans-serif" font-size="13" fill="#999">character varying(255)</text></svg><svg y="352"><path fill="#F2F2F2" d="M0 0h347.488v32H0z"/><text x="10" y="19.25" font-family="&quot;Open Sans&quot;,sans-serif" font-size="13" fill="#6f6f6f">series</text><text x="210.287" y="19.25" font-family="&quot;Open Sans&quot;,sans-serif" font-size="13" fill="#999">character varying(64)</text></svg><svg y="384"><path fill="#F2F2F2" d="M0 0h347.488v32H0z"/><text x="10" y="19.25" font-family="&quot;Open Sans&quot;,sans-serif" font-size="13" fill="#6f6f6f">volume</text><text x="210.287" y="19.25" font-family="&quot;Open Sans&quot;,sans-serif" font-size="13" fill="#999">character varying(64)</text></svg><svg y="416"><path fill="#F2F2F2" d="M0 0h347.488v32H0z"/><text x="10" y="19.25" font-family="&quot;Open Sans&quot;,sans-serif" font-size="13" fill="#6f6f6f">issue</text><text x="210.287" y="19.25" font-family="&quot;Open Sans&quot;,sans-serif" font-size="13" fill="#999">character varying(64)</text></svg><svg y="448"><path fill="#F2F2F2" d="M0 0h347.488v32H0z"/><text x="10" y="19.25" font-family="&quot;Open Sans&quot;,sans-serif" font-size="13" fill="#6f6f6f">part</text><text x="210.287" y="19.25" font-family="&quot;Open Sans&quot;,sans-serif" font-size="13" fill="#999">character varying(64)</text></svg><svg y="480"><path fill="#F2F2F2" d="M0 0h347.488v32H0z"/><text x="10" y="19.25" font-family="&quot;Open Sans&quot;,sans-serif" font-size="13" fill="#6f6f6f">publisher</text><text x="202.854" y="19.25" font-family="&quot;Open Sans&quot;,sans-serif" font-size="13" fill="#999">character varying(255)</text></svg><svg y="512"><path fill="#F2F2F2" d="M0 0h347.488v32H0z"/><text x="10" y="19.25" font-family="&quot;Open Sans&quot;,sans-serif" font-size="13" fill="#6f6f6f">place_of_publication</text><text x="202.854" y="19.25" font-family="&quot;Open Sans&quot;,sans-serif" font-size="13" fill="#999">character varying(255)</text></svg><svg y="544"><path fill="#F2F2F2" d="M0 0h347.488v32H0z"/><text x="10" y="19.25" font-family="&quot;Open Sans&quot;,sans-serif" font-size="13" fill="#6f6f6f">pages</text><text x="210.287" y="19.25" font-family="&quot;Open Sans&quot;,sans-serif" font-size="13" fill="#999">character varying(32)</text></svg><svg y="576"><path fill="#F2F2F2" d="M0 0h347.488v32H0z"/><text x="10" y="19.25" font-family="&quot;Open Sans&quot;,sans-serif" font-size="13" fill="#6f6f6f">url</text><text x="202.854" y="19.25" font-family="&quot;Open Sans&quot;,sans-serif" font-size="13" fill="#999">character varying(255)</text></svg><svg y="608"><path fill="#F2F2F2" d="M0 0h347.488v32H0z"/><text x="10" y="19.25" font-family="&quot;Open Sans&quot;,sans-serif" font-size="13" fill="#6f6f6f">project_id</text><path fill="#DEDEDE" d="M315.488 6.5h20s2 0 2 2v12s0 2-2 2h-20s-2 0-2-2v-12s0-2 2-2"/><path fill="#6F6F6F" d="M324.299 19h-1.168l-4.75-7.56h-.047l.042.69c.016.254.027.527.035.819.012.287.018.58.018.88V19h-.941v-9h1.162l4.731 7.535h.042a157.13 157.13 0 01-.066-1.465 33.296 33.296 0 01-.011-.856V10h.953v9zM333.488 19h-1.168l-4.75-7.56h-.047l.041.69c.016.254.028.527.036.819.012.287.018.58.018.88V19h-.941v-9h1.162l4.731 7.535h.042a158.366 158.366 0 01-.066-1.465 33.065 33.065 0 01-.012-.856V10h.954v9z"/><text x="266.628" y="19.25" font-family="&quot;Open Sans&quot;,sans-serif" font-size="13" fill="#999">integer</text></svg><svg y="640"><path fill="#F2F2F2" d="M0 0h347.488v32H0z"/><text x="10" y="19.25" font-family="&quot;Open Sans&quot;,sans-serif" font-size="13" fill="#6f6f6f">created_by_id</text><text x="294.628" y="19.25" font-family="&quot;Open Sans&quot;,sans-serif" font-size="13" fill="#999">integer</text></svg><svg y="672"><path fill="#F2F2F2" d="M0 0h347.488v32H0z"/><text x="10" y="19.25" font-family="&quot;Open Sans&quot;,sans-serif" font-size="13" fill="#6f6f6f">updated_by_id</text><text x="294.628" y="19.25" font-family="&quot;Open Sans&quot;,sans-serif" font-size="13" fill="#999">integer</text></svg><svg x="429.368"><path fill="#316896" d="M0 0h273.817v32H0z"/><text x="10" y="19.25" font-family="&quot;Open Sans&quot;,sans-serif" font-size="13" font-weight="700" fill="#fff">keys</text></svg><svg x="429.368" y="32"><path fill="#F2F2F2" d="M0 0h273.817v32H0z"/><text x="10" y="19.25" font-family="&quot;Open Sans&quot;,sans-serif" font-size="13" font-weight="700" fill="#6f6f6f">id</text><path fill="#6F6F6F" d="M32.756 10.234a2.953 2.953 0 11-1.1 5.695l-.868.868h-.657v.984h-.984v.985h-1.969v-1.97l2.752-2.75a2.953 2.953 0 012.826-3.81zm0-.984a3.937 3.937 0 00-3.9 4.477l-2.518 2.518a.493.493 0 00-.144.348v2.665c0 .272.22.492.492.492h2.953c.272 0 .492-.22.492-.492v-.492h.493c.271 0 .492-.22.492-.493v-.41l.821-.823a3.937 3.937 0 10.82-7.79zm0 2.953a.984.984 0 101.97 0 .984.984 0 00-1.97 0z"/><path fill="#DEDEDE" d="M241.817 6.5h20s2 0 2 2v12s0 2-2 2h-20s-2 0-2-2v-12s0-2 2-2"/><path fill="#6F6F6F" d="M250.629 19h-1.168l-4.75-7.56h-.047c.011.202.025.431.041.69.016.254.028.527.036.819.012.287.018.58.018.88V19h-.942v-9h1.162l4.732 7.535h.042a157.13 157.13 0 01-.066-1.465 33.296 33.296 0 01-.012-.856V10h.954v9zM259.817 19h-1.168l-4.749-7.56h-.048l.042.69c.016.254.028.527.036.819.012.287.018.58.018.88V19h-.942v-9h1.162l4.732 7.535h.041a158.366 158.366 0 01-.066-1.465 33.065 33.065 0 01-.011-.856V10h.953v9z"/><text x="198.125" y="19.25" font-family="&quot;Open Sans&quot;,sans-serif" font-size="13" font-weight="700" fill="#999">bigint</text></svg><svg x="429.368" y="64"><path fill="#F2F2F2" d="M0 0h273.817v32H0z"/><text x="10" y="19.25" font-family="&quot;Open Sans&quot;,sans-serif" font-size="13" fill="#6f6f6f">created_at</text><text x="183.424" y="19.25" font-family="&quot;Open Sans&quot;,sans-serif" font-size="13" fill="#999">timestamp(0)</text></svg><svg x="429.368" y="96"><path fill="#F2F2F2" d="M0 0h273.817v32H0z"/><text x="10" y="19.25" font-family="&quot;Open Sans&quot;,sans-serif" font-size="13" fill="#6f6f6f">updated_at</text><text x="183.424" y="19.25" font-family="&quot;Open Sans&quot;,sans-serif" font-size="13" fill="#999">timestamp(0)</text></svg><svg x="429.368" y="128"><path fill="#F2F2F2" d="M0 0h273.817v32H0z"/><text x="10" y="19.25" font-family="&quot;Open Sans&quot;,sans-serif" font-size="13" fill="#6f6f6f">guid</text><path fill="#DEDEDE" d="M241.817 6.5h20s2 0 2 2v12s0 2-2 2h-20s-2 0-2-2v-12s0-2 2-2"/><path fill="#6F6F6F" d="M250.629 19h-1.168l-4.75-7.56h-.047c.011.202.025.431.041.69.016.254.028.527.036.819.012.287.018.58.018.88V19h-.942v-9h1.162l4.732 7.535h.042a157.13 157.13 0 01-.066-1.465 33.296 33.296 0 01-.012-.856V10h.954v9zM259.817 19h-1.168l-4.749-7.56h-.048l.042.69c.016.254.028.527.036.819.012.287.018.58.018.88V19h-.942v-9h1.162l4.732 7.535h.041a158.366 158.366 0 01-.066-1.465 33.065 33.065 0 01-.011-.856V10h.953v9z"/><text x="208.637" y="19.25" font-family="&quot;Open Sans&quot;,sans-serif" font-size="13" fill="#999">uuid</text></svg><svg x="429.368" y="160"><path fill="#F2F2F2" d="M0 0h273.817v32H0z"/><text x="10" y="19.25" font-family="&quot;Open Sans&quot;,sans-serif" font-size="13" fill="#6f6f6f">version</text><path fill="#DEDEDE" d="M241.817 6.5h20s2 0 2 2v12s0 2-2 2h-20s-2 0-2-2v-12s0-2 2-2"/><path fill="#6F6F6F" d="M250.629 19h-1.168l-4.75-7.56h-.047c.011.202.025.431.041.69.016.254.028.527.036.819.012.287.018.58.018.88V19h-.942v-9h1.162l4.732 7.535h.042a157.13 157.13 0 01-.066-1.465 33.296 33.296 0 01-.012-.856V10h.954v9zM259.817 19h-1.168l-4.749-7.56h-.048l.042.69c.016.254.028.527.036.819.012.287.018.58.018.88V19h-.942v-9h1.162l4.732 7.535h.041a158.366 158.366 0 01-.066-1.465 33.065 33.065 0 01-.011-.856V10h.953v9z"/><text x="192.958" y="19.25" font-family="&quot;Open Sans&quot;,sans-serif" font-size="13" fill="#999">integer</text></svg><svg x="429.368" y="192"><path fill="#F2F2F2" d="M0 0h273.817v32H0z"/><text x="10" y="19.25" font-family="&quot;Open Sans&quot;,sans-serif" font-size="13" fill="#6f6f6f">title</text><path fill="#DEDEDE" d="M241.817 6.5h20s2 0 2 2v12s0 2-2 2h-20s-2 0-2-2v-12s0-2 2-2"/><path fill="#6F6F6F" d="M250.629 19h-1.168l-4.75-7.56h-.047c.011.202.025.431.041.69.016.254.028.527.036.819.012.287.018.58.018.88V19h-.942v-9h1.162l4.732 7.535h.042a157.13 157.13 0 01-.066-1.465 33.296 33.296 0 01-.012-.856V10h.954v9zM259.817 19h-1.168l-4.749-7.56h-.048l.042.69c.016.254.028.527.036.819.012.287.018.58.018.88V19h-.942v-9h1.162l4.732 7.535h.041a158.366 158.366 0 01-.066-1.465 33.065 33.065 0 01-.011-.856V10h.953v9z"/><text x="101.184" y="19.25" font-family="&quot;Open Sans&quot;,sans-serif" font-size="13" fill="#999">character varying(255)</text></svg><svg x="429.368" y="224"><path fill="#F2F2F2" d="M0 0h273.817v32H0z"/><text x="10" y="19.25" font-family="&quot;Open Sans&quot;,sans-serif" font-size="13" fill="#6f6f6f">author</text><text x="129.184" y="19.25" font-family="&quot;Open Sans&quot;,sans-serif" font-size="13" fill="#999">character varying(255)</text></svg><svg x="429.368" y="256"><path fill="#F2F2F2" d="M0 0h273.817v32H0z"/><text x="10" y="19.25" font-family="&quot;Open Sans&quot;,sans-serif" font-size="13" fill="#6f6f6f">description</text><text x="240.445" y="19.25" font-family="&quot;Open Sans&quot;,sans-serif" font-size="13" fill="#999">text</text></svg><svg x="429.368" y="288"><path fill="#F2F2F2" d="M0 0h273.817v32H0z"/><text x="10" y="19.25" font-family="&quot;Open Sans&quot;,sans-serif" font-size="13" fill="#6f6f6f">notes</text><text x="240.445" y="19.25" font-family="&quot;Open Sans&quot;,sans-serif" font-size="13" fill="#999">text</text></svg><svg x="429.368" y="320"><path fill="#F2F2F2" d="M0 0h273.817v32H0z"/><text x="10" y="19.25" font-family="&quot;Open Sans&quot;,sans-serif" font-size="13" fill="#6f6f6f">modified_from_source</text><text x="214.445" y="19.25" font-family="&quot;Open Sans&quot;,sans-serif" font-size="13" fill="#999">boolean</text></svg><svg x="429.368" y="352"><path fill="#F2F2F2" d="M0 0h273.817v32H0z"/><text x="10" y="19.25" font-family="&quot;Open Sans&quot;,sans-serif" font-size="13" fill="#6f6f6f">first_step_id</text><path fill="#DEDEDE" d="M241.817 6.5h20s2 0 2 2v12s0 2-2 2h-20s-2 0-2-2v-12s0-2 2-2"/><path fill="#6F6F6F" d="M250.629 19h-1.168l-4.75-7.56h-.047c.011.202.025.431.041.69.016.254.028.527.036.819.012.287.018.58.018.88V19h-.942v-9h1.162l4.732 7.535h.042a157.13 157.13 0 01-.066-1.465 33.296 33.296 0 01-.012-.856V10h.954v9zM259.817 19h-1.168l-4.749-7.56h-.048l.042.69c.016.254.028.527.036.819.012.287.018.58.018.88V19h-.942v-9h1.162l4.732 7.535h.041a158.366 158.366 0 01-.066-1.465 33.065 33.065 0 01-.011-.856V10h.953v9z"/><text x="192.958" y="19.25" font-family="&quot;Open Sans&quot;,sans-serif" font-size="13" fill="#999">integer</text></svg><svg x="429.368" y="384"><path fill="#F2F2F2" d="M0 0h273.817v32H0z"/><text x="10" y="19.25" font-family="&quot;Open Sans&quot;,sans-serif" font-size="13" fill="#6f6f6f">taxonomic_scope_id</text><path fill="#DEDEDE" d="M241.817 6.5h20s2 0 2 2v12s0 2-2 2h-20s-2 0-2-2v-12s0-2 2-2"/><path fill="#6F6F6F" d="M250.629 19h-1.168l-4.75-7.56h-.047c.011.202.025.431.041.69.016.254.028.527.036.819.012.287.018.58.018.88V19h-.942v-9h1.162l4.732 7.535h.042a157.13 157.13 0 01-.066-1.465 33.296 33.296 0 01-.012-.856V10h.954v9zM259.817 19h-1.168l-4.749-7.56h-.048l.042.69c.016.254.028.527.036.819.012.287.018.58.018.88V19h-.942v-9h1.162l4.732 7.535h.041a158.366 158.366 0 01-.066-1.465 33.065 33.065 0 01-.011-.856V10h.953v9z"/><text x="192.958" y="19.25" font-family="&quot;Open Sans&quot;,sans-serif" font-size="13" fill="#999">integer</text></svg><svg x="429.368" y="416"><path fill="#F2F2F2" d="M0 0h273.817v32H0z"/><text x="10" y="19.25" font-family="&quot;Open Sans&quot;,sans-serif" font-size="13" fill="#6f6f6f">project_id</text><path fill="#DEDEDE" d="M241.817 6.5h20s2 0 2 2v12s0 2-2 2h-20s-2 0-2-2v-12s0-2 2-2"/><path fill="#6F6F6F" d="M250.629 19h-1.168l-4.75-7.56h-.047c.011.202.025.431.041.69.016.254.028.527.036.819.012.287.018.58.018.88V19h-.942v-9h1.162l4.732 7.535h.042a157.13 157.13 0 01-.066-1.465 33.296 33.296 0 01-.012-.856V10h.954v9zM259.817 19h-1.168l-4.749-7.56h-.048l.042.69c.016.254.028.527.036.819.012.287.018.58.018.88V19h-.942v-9h1.162l4.732 7.535h.041a158.366 158.366 0 01-.066-1.465 33.065 33.065 0 01-.011-.856V10h.953v9z"/><text x="192.958" y="19.25" font-family="&quot;Open Sans&quot;,sans-serif" font-size="13" fill="#999">integer</text></svg><svg x="429.368" y="448"><path fill="#F2F2F2" d="M0 0h273.817v32H0z"/><text x="10" y="19.25" font-family="&quot;Open Sans&quot;,sans-serif" font-size="13" fill="#6f6f6f">subkey_of_id</text><text x="220.958" y="19.25" font-family="&quot;Open Sans&quot;,sans-serif" font-size="13" fill="#999">integer</text></svg><svg x="429.368" y="480"><path fill="#F2F2F2" d="M0 0h273.817v32H0z"/><text x="10" y="19.25" font-family="&quot;Open Sans&quot;,sans-serif" font-size="13" fill="#6f6f6f">source_id</text><text x="220.958" y="19.25" font-family="&quot;Open Sans&quot;,sans-serif" font-size="13" fill="#999">integer</text></svg><svg x="429.368" y="512"><path fill="#F2F2F2" d="M0 0h273.817v32H0z"/><text x="10" y="19.25" font-family="&quot;Open Sans&quot;,sans-serif" font-size="13" fill="#6f6f6f">created_by_id</text><text x="220.958" y="19.25" font-family="&quot;Open Sans&quot;,sans-serif" font-size="13" fill="#999">integer</text></svg><svg x="429.368" y="544"><path fill="#F2F2F2" d="M0 0h273.817v32H0z"/><text x="10" y="19.25" font-family="&quot;Open Sans&quot;,sans-serif" font-size="13" fill="#6f6f6f">updated_by_id</text><text x="220.958" y="19.25" font-family="&quot;Open Sans&quot;,sans-serif" font-size="13" fill="#999">integer</text></svg><svg x="833.933"><path fill="#316896" d="M0 0h232.938v32H0z"/><text x="10" y="19.25" font-family="&quot;Open Sans&quot;,sans-serif" font-size="13" font-weight="700" fill="#fff">change_notes</text></svg><svg x="833.933" y="32"><path fill="#F2F2F2" d="M0 0h232.938v32H0z"/><text x="10" y="19.25" font-family="&quot;Open Sans&quot;,sans-serif" font-size="13" font-weight="700" fill="#6f6f6f">id</text><path fill="#6F6F6F" d="M32.756 10.234a2.953 2.953 0 11-1.1 5.695l-.868.868h-.657v.984h-.984v.985h-1.969v-1.97l2.752-2.75a2.953 2.953 0 012.826-3.81zm0-.984a3.937 3.937 0 00-3.9 4.477l-2.518 2.518a.493.493 0 00-.144.348v2.665c0 .272.22.492.492.492h2.953c.272 0 .492-.22.492-.492v-.492h.493c.271 0 .492-.22.492-.493v-.41l.821-.823a3.937 3.937 0 10.82-7.79zm0 2.953a.984.984 0 101.97 0 .984.984 0 00-1.97 0z"/><path fill="#DEDEDE" d="M200.938 6.5h20s2 0 2 2v12s0 2-2 2h-20s-2 0-2-2v-12s0-2 2-2"/><path fill="#6F6F6F" d="M209.75 19h-1.168l-4.75-7.56h-.047l.041.69c.016.254.028.527.036.819.012.287.018.58.018.88V19h-.942v-9h1.162l4.732 7.535h.042a157.13 157.13 0 01-.066-1.465 33.296 33.296 0 01-.012-.856V10h.954v9zM218.938 19h-1.168l-4.749-7.56h-.048l.042.69c.016.254.028.527.036.819.012.287.018.58.018.88V19h-.942v-9h1.162l4.732 7.535h.041a158.366 158.366 0 01-.065-1.465 33.065 33.065 0 01-.012-.856V10h.953v9z"/><text x="157.246" y="19.25" font-family="&quot;Open Sans&quot;,sans-serif" font-size="13" font-weight="700" fill="#999">bigint</text></svg><svg x="833.933" y="64"><path fill="#F2F2F2" d="M0 0h232.938v32H0z"/><text x="10" y="19.25" font-family="&quot;Open Sans&quot;,sans-serif" font-size="13" fill="#6f6f6f">created_at</text><text x="142.545" y="19.25" font-family="&quot;Open Sans&quot;,sans-serif" font-size="13" fill="#999">timestamp(0)</text></svg><svg x="833.933" y="96"><path fill="#F2F2F2" d="M0 0h232.938v32H0z"/><text x="10" y="19.25" font-family="&quot;Open Sans&quot;,sans-serif" font-size="13" fill="#6f6f6f">updated_at</text><text x="142.545" y="19.25" font-family="&quot;Open Sans&quot;,sans-serif" font-size="13" fill="#999">timestamp(0)</text></svg><svg x="833.933" y="128"><path fill="#F2F2F2" d="M0 0h232.938v32H0z"/><text x="10" y="19.25" font-family="&quot;Open Sans&quot;,sans-serif" font-size="13" fill="#6f6f6f">remarks</text><path fill="#DEDEDE" d="M200.938 6.5h20s2 0 2 2v12s0 2-2 2h-20s-2 0-2-2v-12s0-2 2-2"/><path fill="#6F6F6F" d="M209.75 19h-1.168l-4.75-7.56h-.047l.041.69c.016.254.028.527.036.819.012.287.018.58.018.88V19h-.942v-9h1.162l4.732 7.535h.042a157.13 157.13 0 01-.066-1.465 33.296 33.296 0 01-.012-.856V10h.954v9zM218.938 19h-1.168l-4.749-7.56h-.048l.042.69c.016.254.028.527.036.819.012.287.018.58.018.88V19h-.942v-9h1.162l4.732 7.535h.041a158.366 158.366 0 01-.065-1.465 33.065 33.065 0 01-.012-.856V10h.953v9z"/><text x="171.566" y="19.25" font-family="&quot;Open Sans&quot;,sans-serif" font-size="13" fill="#999">text</text></svg><svg x="833.933" y="160"><path fill="#F2F2F2" d="M0 0h232.938v32H0z"/><text x="10" y="19.25" font-family="&quot;Open Sans&quot;,sans-serif" font-size="13" fill="#6f6f6f">key_id</text><path fill="#DEDEDE" d="M200.938 6.5h20s2 0 2 2v12s0 2-2 2h-20s-2 0-2-2v-12s0-2 2-2"/><path fill="#6F6F6F" d="M209.75 19h-1.168l-4.75-7.56h-.047l.041.69c.016.254.028.527.036.819.012.287.018.58.018.88V19h-.942v-9h1.162l4.732 7.535h.042a157.13 157.13 0 01-.066-1.465 33.296 33.296 0 01-.012-.856V10h.954v9zM218.938 19h-1.168l-4.749-7.56h-.048l.042.69c.016.254.028.527.036.819.012.287.018.58.018.88V19h-.942v-9h1.162l4.732 7.535h.041a158.366 158.366 0 01-.065-1.465 33.065 33.065 0 01-.012-.856V10h.953v9z"/><text x="152.079" y="19.25" font-family="&quot;Open Sans&quot;,sans-serif" font-size="13" fill="#999">integer</text></svg><svg x="833.933" y="192"><path fill="#F2F2F2" d="M0 0h232.938v32H0z"/><text x="10" y="19.25" font-family="&quot;Open Sans&quot;,sans-serif" font-size="13" fill="#6f6f6f">version</text><path fill="#DEDEDE" d="M200.938 6.5h20s2 0 2 2v12s0 2-2 2h-20s-2 0-2-2v-12s0-2 2-2"/><path fill="#6F6F6F" d="M209.75 19h-1.168l-4.75-7.56h-.047l.041.69c.016.254.028.527.036.819.012.287.018.58.018.88V19h-.942v-9h1.162l4.732 7.535h.042a157.13 157.13 0 01-.066-1.465 33.296 33.296 0 01-.012-.856V10h.954v9zM218.938 19h-1.168l-4.749-7.56h-.048l.042.69c.016.254.028.527.036.819.012.287.018.58.018.88V19h-.942v-9h1.162l4.732 7.535h.041a158.366 158.366 0 01-.065-1.465 33.065 33.065 0 01-.012-.856V10h.953v9z"/><text x="152.079" y="19.25" font-family="&quot;Open Sans&quot;,sans-serif" font-size="13" fill="#999">integer</text></svg><svg x="833.933" y="224"><path fill="#F2F2F2" d="M0 0h232.938v32H0z"/><text x="10" y="19.25" font-family="&quot;Open Sans&quot;,sans-serif" font-size="13" fill="#6f6f6f">created_by_id</text><path fill="#DEDEDE" d="M200.938 6.5h20s2 0 2 2v12s0 2-2 2h-20s-2 0-2-2v-12s0-2 2-2"/><path fill="#6F6F6F" d="M209.75 19h-1.168l-4.75-7.56h-.047l.041.69c.016.254.028.527.036.819.012.287.018.58.018.88V19h-.942v-9h1.162l4.732 7.535h.042a157.13 157.13 0 01-.066-1.465 33.296 33.296 0 01-.012-.856V10h.954v9zM218.938 19h-1.168l-4.749-7.56h-.048l.042.69c.016.254.028.527.036.819.012.287.018.58.018.88V19h-.942v-9h1.162l4.732 7.535h.041a158.366 158.366 0 01-.065-1.465 33.065 33.065 0 01-.012-.856V10h.953v9z"/><text x="152.079" y="19.25" font-family="&quot;Open Sans&quot;,sans-serif" font-size="13" fill="#999">integer</text></svg><svg x="833.933" y="256"><path fill="#F2F2F2" d="M0 0h232.938v32H0z"/><text x="10" y="19.25" font-family="&quot;Open Sans&quot;,sans-serif" font-size="13" fill="#6f6f6f">updated_by_id</text><text x="180.079" y="19.25" font-family="&quot;Open Sans&quot;,sans-serif" font-size="13" fill="#999">integer</text></svg><svg x="786.396" y="317.739"><path fill="#316896" d="M0 0h280.476v32H0z"/><text x="10" y="19.25" font-family="&quot;Open Sans&quot;,sans-serif" font-size="13" font-weight="700" fill="#fff">agents</text></svg><svg x="786.396" y="349.739"><path fill="#F2F2F2" d="M0 0h280.476v32H0z"/><text x="10" y="19.25" font-family="&quot;Open Sans&quot;,sans-serif" font-size="13" font-weight="700" fill="#6f6f6f">id</text><path fill="#6F6F6F" d="M32.756 10.234a2.953 2.953 0 11-1.1 5.695l-.868.868h-.657v.984h-.984v.985h-1.969v-1.97l2.752-2.75a2.953 2.953 0 012.826-3.81zm0-.984a3.937 3.937 0 00-3.9 4.477l-2.518 2.518a.493.493 0 00-.144.348v2.665c0 .272.22.492.492.492h2.953c.272 0 .492-.22.492-.492v-.492h.493c.271 0 .492-.22.492-.493v-.41l.821-.823a3.937 3.937 0 10.82-7.79zm0 2.953a.984.984 0 101.97 0 .984.984 0 00-1.97 0z"/><path fill="#DEDEDE" d="M248.476 6.5h20s2 0 2 2v12s0 2-2 2h-20s-2 0-2-2v-12s0-2 2-2"/><path fill="#6F6F6F" d="M257.287 19h-1.168l-4.75-7.56h-.047l.042.69c.016.254.028.527.036.819.012.287.018.58.018.88V19h-.942v-9h1.162l4.732 7.535h.041a157.13 157.13 0 01-.066-1.465 33.296 33.296 0 01-.011-.856V10h.953v9zM266.476 19h-1.168l-4.75-7.56h-.047l.042.69c.016.254.028.527.036.819.011.287.017.58.017.88V19h-.941v-9h1.162l4.731 7.535h.042a158.366 158.366 0 01-.066-1.465 33.065 33.065 0 01-.011-.856V10h.953v9z"/><text x="204.784" y="19.25" font-family="&quot;Open Sans&quot;,sans-serif" font-size="13" font-weight="700" fill="#999">bigint</text></svg><svg x="786.396" y="381.739"><path fill="#F2F2F2" d="M0 0h280.476v32H0z"/><text x="10" y="19.25" font-family="&quot;Open Sans&quot;,sans-serif" font-size="13" fill="#6f6f6f">created_at</text><text x="190.083" y="19.25" font-family="&quot;Open Sans&quot;,sans-serif" font-size="13" fill="#999">timestamp(0)</text></svg><svg x="786.396" y="413.739"><path fill="#F2F2F2" d="M0 0h280.476v32H0z"/><text x="10" y="19.25" font-family="&quot;Open Sans&quot;,sans-serif" font-size="13" fill="#6f6f6f">updated_at</text><text x="190.083" y="19.25" font-family="&quot;Open Sans&quot;,sans-serif" font-size="13" fill="#999">timestamp(0)</text></svg><svg x="786.396" y="445.739"><path fill="#F2F2F2" d="M0 0h280.476v32H0z"/><text x="10" y="19.25" font-family="&quot;Open Sans&quot;,sans-serif" font-size="13" fill="#6f6f6f">name</text><path fill="#DEDEDE" d="M248.476 6.5h20s2 0 2 2v12s0 2-2 2h-20s-2 0-2-2v-12s0-2 2-2"/><path fill="#6F6F6F" d="M257.287 19h-1.168l-4.75-7.56h-.047l.042.69c.016.254.028.527.036.819.012.287.018.58.018.88V19h-.942v-9h1.162l4.732 7.535h.041a157.13 157.13 0 01-.066-1.465 33.296 33.296 0 01-.011-.856V10h.953v9zM266.476 19h-1.168l-4.75-7.56h-.047l.042.69c.016.254.028.527.036.819.011.287.017.58.017.88V19h-.941v-9h1.162l4.731 7.535h.042a158.366 158.366 0 01-.066-1.465 33.065 33.065 0 01-.011-.856V10h.953v9z"/><text x="107.842" y="19.25" font-family="&quot;Open Sans&quot;,sans-serif" font-size="13" fill="#999">character varying(255)</text></svg><svg x="786.396" y="477.739"><path fill="#F2F2F2" d="M0 0h280.476v32H0z"/><text x="10" y="19.25" font-family="&quot;Open Sans&quot;,sans-serif" font-size="13" fill="#6f6f6f">first_name</text><text x="143.275" y="19.25" font-family="&quot;Open Sans&quot;,sans-serif" font-size="13" fill="#999">character varying(64)</text></svg><svg x="786.396" y="509.739"><path fill="#F2F2F2" d="M0 0h280.476v32H0z"/><text x="10" y="19.25" font-family="&quot;Open Sans&quot;,sans-serif" font-size="13" fill="#6f6f6f">surname</text><text x="143.275" y="19.25" font-family="&quot;Open Sans&quot;,sans-serif" font-size="13" fill="#999">character varying(64)</text></svg><svg x="786.396" y="541.739"><path fill="#F2F2F2" d="M0 0h280.476v32H0z"/><text x="10" y="19.25" font-family="&quot;Open Sans&quot;,sans-serif" font-size="13" fill="#6f6f6f">email</text><path fill="#DEDEDE" d="M248.476 6.5h20s2 0 2 2v12s0 2-2 2h-20s-2 0-2-2v-12s0-2 2-2"/><path fill="#6F6F6F" d="M257.287 19h-1.168l-4.75-7.56h-.047l.042.69c.016.254.028.527.036.819.012.287.018.58.018.88V19h-.942v-9h1.162l4.732 7.535h.041a157.13 157.13 0 01-.066-1.465 33.296 33.296 0 01-.011-.856V10h.953v9zM266.476 19h-1.168l-4.75-7.56h-.047l.042.69c.016.254.028.527.036.819.011.287.017.58.017.88V19h-.941v-9h1.162l4.731 7.535h.042a158.366 158.366 0 01-.066-1.465 33.065 33.065 0 01-.011-.856V10h.953v9z"/><text x="107.842" y="19.25" font-family="&quot;Open Sans&quot;,sans-serif" font-size="13" fill="#999">character varying(255)</text></svg><svg x="786.396" y="573.739"><path fill="#F2F2F2" d="M0 0h280.476v32H0z"/><text x="10" y="19.25" font-family="&quot;Open Sans&quot;,sans-serif" font-size="13" fill="#6f6f6f">orcid</text><text x="135.842" y="19.25" font-family="&quot;Open Sans&quot;,sans-serif" font-size="13" fill="#999">character varying(255)</text></svg><svg x="786.396" y="605.739"><path fill="#F2F2F2" d="M0 0h280.476v32H0z"/><text x="10" y="19.25" font-family="&quot;Open Sans&quot;,sans-serif" font-size="13" fill="#6f6f6f">user_id</text><text x="227.617" y="19.25" font-family="&quot;Open Sans&quot;,sans-serif" font-size="13" fill="#999">integer</text></svg><svg x="786.396" y="637.739"><path fill="#F2F2F2" d="M0 0h280.476v32H0z"/><text x="10" y="19.25" font-family="&quot;Open Sans&quot;,sans-serif" font-size="13" fill="#6f6f6f">created_by_id</text><text x="227.617" y="19.25" font-family="&quot;Open Sans&quot;,sans-serif" font-size="13" fill="#999">integer</text></svg><svg x="786.396" y="669.739"><path fill="#F2F2F2" d="M0 0h280.476v32H0z"/><text x="10" y="19.25" font-family="&quot;Open Sans&quot;,sans-serif" font-size="13" fill="#6f6f6f">updated_by_id</text><text x="227.617" y="19.25" font-family="&quot;Open Sans&quot;,sans-serif" font-size="13" fill="#999">integer</text></svg></svg>
