<?xml version="1.0" standalone="no"?><svg version="1.1" xmlns="http://www.w3.org/2000/svg" width="1071.8718957117421" height="704"><svg x="681.1853461496536" y="-2" width="175.74807299958854" height="205"><path d="M142.74807299958854,178L132.74807299958854,178L97.37403649979427,178Q87.37403649979427,178,87.37403649979427,168L87.37403649979427,60Q87.37403649979427,50,77.37403649979427,50L42,50L32,50L32,50L42,50L77.37403649979427,50Q87.37403649979427,50,87.37403649979427,60L87.37403649979427,168Q87.37403649979427,178,97.37403649979427,178L132.74807299958854,178L142.74807299958854,178ZM142.74807299958854,178L152.74807299958854,178M32,50L22,50M152.74807299958854,174L143.74807299958854,178L152.74807299958854,182M32,46L32,54" fill="none" stroke="#9B9CA4" stroke-width="1"></path><text x="142.03713549958854" y="173" style="font-family: &quot;Open Sans&quot;, sans-serif; font-size: 14px; font-weight: normal; fill: transparent;">*</text><text x="25" y="45" style="font-family: &quot;Open Sans&quot;, sans-serif; font-size: 14px; font-weight: normal; fill: transparent;">1</text></svg><svg x="325.48779296875" y="-2" width="126.88017036840358" height="525"><path d="M93.88017036840358,498L83.88017036840358,498L72.94008518420179,498Q62.94008518420179,498,62.94008518420179,488L62.94008518420179,60Q62.94008518420179,50,52.94008518420179,50L42,50L38,50L38,50L42,50L52.94008518420179,50Q62.94008518420179,50,62.94008518420179,60L62.94008518420179,488Q62.94008518420179,498,72.94008518420179,498L83.88017036840358,498L93.88017036840358,498ZM93.88017036840358,498L103.88017036840358,498M32,50L22,50M103.88017036840358,494L94.88017036840358,498L103.88017036840358,502M35,50M38,50L37.94235584120969,50.585270966048384L37.77163859753386,51.14805029709527L37.49440883690764,51.666710699058804L37.121320343559645,52.121320343559645L36.666710699058804,52.49440883690764L36.14805029709527,52.77163859753386L35.585270966048384,52.94235584120969L35,53L34.414729033951616,52.94235584120969L33.85194970290473,52.77163859753386L33.333289300941196,52.49440883690764L32.878679656440355,52.121320343559645L32.50559116309236,51.666710699058804L32.22836140246614,51.14805029709527L32.05764415879031,50.585270966048384L32,50L32.05764415879031,49.414729033951616L32.22836140246614,48.85194970290473L32.50559116309236,48.333289300941196L32.878679656440355,47.878679656440355L33.333289300941196,47.50559116309236L33.851949702904726,47.22836140246614L34.414729033951616,47.05764415879031L35,47L35.585270966048384,47.05764415879031L36.14805029709527,47.22836140246614L36.666710699058804,47.50559116309236L37.121320343559645,47.878679656440355L37.49440883690764,48.333289300941196L37.77163859753386,48.851949702904726L37.94235584120969,49.414729033951616L38,50" fill="none" stroke="#9B9CA4" stroke-width="1"></path><text x="93.16923286840358" y="493" style="font-family: &quot;Open Sans&quot;, sans-serif; font-size: 14px; font-weight: normal; fill: transparent;">*</text><text x="25" y="45" style="font-family: &quot;Open Sans&quot;, sans-serif; font-size: 14px; font-weight: normal; fill: transparent;">0..1</text></svg><svg x="681.1853461496536" y="315.7386722762061" width="128.21047534333854" height="271.2613277237939"><path d="M32,244.2613277237939L42,244.2613277237939L75.21047534333854,244.2613277237939Q85.21047534333854,244.2613277237939,85.21047534333854,234.2613277237939L85.21047534333854,52Q85.21047534333854,50,87.21047534333854,50L89.21047534333854,50L89.21047534333854,50L87.21047534333854,50Q85.21047534333854,50,85.21047534333854,52L85.21047534333854,234.2613277237939Q85.21047534333854,244.2613277237939,75.21047534333854,244.2613277237939L42,244.2613277237939L32,244.2613277237939ZM32,244.2613277237939L22,244.2613277237939M95.21047534333854,50L105.21047534333854,50M22,240.2613277237939L31,244.2613277237939L22,248.2613277237939M92.21047534333854,50M95.21047534333854,50L95.15283118454823,50.585270966048384L94.98211394087241,51.14805029709527L94.70488418024618,51.666710699058804L94.33179568689819,52.121320343559645L93.87718604239735,52.49440883690764L93.35852564043381,52.77163859753386L92.79574630938693,52.94235584120969L92.21047534333854,53L91.62520437729016,52.94235584120969L91.06242504624328,52.77163859753386L90.54376464427973,52.49440883690764L90.0891549997789,52.121320343559645L89.7160665064309,51.666710699058804L89.43883674580468,51.14805029709527L89.26811950212885,50.585270966048384L89.21047534333854,50L89.26811950212885,49.414729033951616L89.43883674580468,48.85194970290473L89.7160665064309,48.333289300941196L90.0891549997789,47.878679656440355L90.54376464427973,47.50559116309236L91.06242504624328,47.22836140246614L91.62520437729016,47.05764415879031L92.21047534333854,47L92.79574630938693,47.05764415879031L93.35852564043381,47.22836140246614L93.87718604239735,47.50559116309236L94.33179568689819,47.878679656440355L94.70488418024618,48.333289300941196L94.98211394087241,48.851949702904726L95.15283118454823,49.414729033951616L95.21047534333854,50" fill="none" stroke="#9B9CA4" stroke-width="1"></path><text x="25" y="239.2613277237939" style="font-family: &quot;Open Sans&quot;, sans-serif; font-size: 14px; font-weight: normal; fill: transparent;">*</text><text x="78.84524096833854" y="45" style="font-family: &quot;Open Sans&quot;, sans-serif; font-size: 14px; font-weight: normal; fill: transparent;">0..1</text></svg><svg x="681.1853461496536" y="315.7386722762061" width="128.21047534333854" height="239.2613277237939"><path d="M32,212.2613277237939L42,212.2613277237939L53.60523767166927,212.2613277237939Q63.60523767166927,212.2613277237939,63.60523767166927,202.2613277237939L63.60523767166927,60Q63.60523767166927,50,73.60523767166927,50L85.21047534333854,50L89.21047534333854,50L89.21047534333854,50L85.21047534333854,50L73.60523767166927,50Q63.60523767166927,50,63.60523767166927,60L63.60523767166927,202.2613277237939Q63.60523767166927,212.2613277237939,53.60523767166927,212.2613277237939L42,212.2613277237939L32,212.2613277237939ZM32,212.2613277237939L22,212.2613277237939M95.21047534333854,50L105.21047534333854,50M22,208.2613277237939L31,212.2613277237939L22,216.2613277237939M92.21047534333854,50M95.21047534333854,50L95.15283118454823,50.585270966048384L94.98211394087241,51.14805029709527L94.70488418024618,51.666710699058804L94.33179568689819,52.121320343559645L93.87718604239735,52.49440883690764L93.35852564043381,52.77163859753386L92.79574630938693,52.94235584120969L92.21047534333854,53L91.62520437729016,52.94235584120969L91.06242504624328,52.77163859753386L90.54376464427973,52.49440883690764L90.0891549997789,52.121320343559645L89.7160665064309,51.666710699058804L89.43883674580468,51.14805029709527L89.26811950212885,50.585270966048384L89.21047534333854,50L89.26811950212885,49.414729033951616L89.43883674580468,48.85194970290473L89.7160665064309,48.333289300941196L90.0891549997789,47.878679656440355L90.54376464427973,47.50559116309236L91.06242504624328,47.22836140246614L91.62520437729016,47.05764415879031L92.21047534333854,47L92.79574630938693,47.05764415879031L93.35852564043381,47.22836140246614L93.87718604239735,47.50559116309236L94.33179568689819,47.878679656440355L94.70488418024618,48.333289300941196L94.98211394087241,48.851949702904726L95.15283118454823,49.414729033951616L95.21047534333854,50" fill="none" stroke="#9B9CA4" stroke-width="1"></path><text x="25" y="207.2613277237939" style="font-family: &quot;Open Sans&quot;, sans-serif; font-size: 14px; font-weight: normal; fill: transparent;">*</text><text x="78.84524096833854" y="45" style="font-family: &quot;Open Sans&quot;, sans-serif; font-size: 14px; font-weight: normal; fill: transparent;">0..1</text></svg><svg x="0" y="0"><rect x="0" y="0" width="347.48779296875" height="32" fill="#316896"></rect><text x="10" y="19.25" style="font-family: &quot;Open Sans&quot;, sans-serif; font-size: 13px; font-weight: bold; fill: rgb(255, 255, 255);">sources</text></svg><svg x="0" y="32"><rect x="0" y="0" width="347.48779296875" height="32" fill="#F2F2F2"></rect><text x="10" y="19.25" style="font-family: &quot;Open Sans&quot;, sans-serif; font-size: 13px; font-weight: bold; fill: rgb(111, 111, 111);">id</text><path transform="translate(26.19384765625,9.25)" fill="#6F6F6F" d="M 6.5625 0.9844 C 8.1935 0.9844 9.5156 2.3065 9.5156 3.9375 C 9.5156 5.5685 8.1935 6.8906 6.5625 6.8906 C 6.1735 6.8906 5.8022 6.8153 5.462 6.6786 L 4.5938 7.5469 H 3.9375 V 8.5313 H 2.9531 V 9.5156 H 0.9844 V 7.5469 L 3.736 4.7952 C 3.6518 4.5171 3.6092 4.2281 3.6094 3.9375 C 3.6094 2.3065 4.9315 0.9844 6.5625 0.9844 Z M 6.5625 0 C 4.388 0 2.625 1.7627 2.625 3.9375 C 2.625 4.1186 2.6373 4.2989 2.6619 4.4772 L 0.1441 6.995 C 0.0519 7.0873 0 7.2125 0 7.343 L 0 10.0078 C 0 10.2797 0.2204 10.5 0.4922 10.5 H 3.4453 C 3.7171 10.5 3.9375 10.2797 3.9375 10.0078 V 9.5156 H 4.4297 C 4.7015 9.5156 4.9219 9.2953 4.9219 9.0234 V 8.6133 L 5.7432 7.7895 C 6.011 7.8464 6.2848 7.875 6.5625 7.875 C 8.737 7.875 10.5 6.1123 10.5 3.9375 C 10.5 1.763 8.7373 0 6.5625 0 Z M 6.5625 2.9531 C 6.5625 3.4968 7.0032 3.9375 7.5469 3.9375 C 8.0905 3.9375 8.5313 3.4968 8.5313 2.9531 C 8.5313 2.4095 8.0905 1.9688 7.5469 1.9688 C 7.0032 1.9688 6.5625 2.4095 6.5625 2.9531 Z"></path><path transform="translate(313.48779296875,6.5)" fill="#DEDEDE" d="M2 0h20s2 0 2 2v12s0 2 -2 2h-20s-2 0 -2 -2v-12s0 -2 2 -2"></path><path transform="translate(313.48779296875,6.5)" fill="#6F6F6F" d="M10.8112 12.5H9.6432L4.89385 4.94049H4.84618C4.8581 5.14159 4.872 5.37141 4.8879 5.62996C4.90379 5.8844 4.9157 6.15732 4.92365 6.4487C4.93557 6.73598 4.94153 7.02941 4.94153 7.329V12.5H4V3.5H5.16201L9.89348 11.0349H9.9352C9.92725 10.8912 9.91732 10.6881 9.9054 10.4254C9.89348 10.1587 9.88156 9.87346 9.86965 9.56977C9.8617 9.26197 9.85773 8.97674 9.85773 8.71409V3.5H10.8112V12.5Z"></path><path transform="translate(313.48779296875,6.5)" fill="#6F6F6F" d="M20 12.5H18.832L14.0827 4.94049H14.035C14.0469 5.14159 14.0608 5.37141 14.0767 5.62996C14.0926 5.8844 14.1045 6.15732 14.1125 6.4487C14.1244 6.73598 14.1304 7.02941 14.1304 7.329V12.5H13.1888V3.5H14.3508L19.0823 11.0349H19.124C19.1161 10.8912 19.1061 10.6881 19.0942 10.4254C19.0823 10.1587 19.0704 9.87346 19.0585 9.56977C19.0505 9.26197 19.0466 8.97674 19.0466 8.71409V3.5H20V12.5Z"></path><text x="271.79541015625" y="19.25" style="font-family: &quot;Open Sans&quot;, sans-serif; font-size: 13px; font-weight: bold; fill: rgb(153, 153, 153);">bigint</text></svg><svg x="0" y="64"><rect x="0" y="0" width="347.48779296875" height="32" fill="#F2F2F2"></rect><text x="10" y="19.25" style="font-family: &quot;Open Sans&quot;, sans-serif; font-size: 13px; fill: rgb(111, 111, 111);">created_at</text><text x="257.0947265625" y="19.25" style="font-family: &quot;Open Sans&quot;, sans-serif; font-size: 13px; fill: rgb(153, 153, 153);">timestamp(0)</text></svg><svg x="0" y="96"><rect x="0" y="0" width="347.48779296875" height="32" fill="#F2F2F2"></rect><text x="10" y="19.25" style="font-family: &quot;Open Sans&quot;, sans-serif; font-size: 13px; fill: rgb(111, 111, 111);">updated_at</text><text x="257.0947265625" y="19.25" style="font-family: &quot;Open Sans&quot;, sans-serif; font-size: 13px; fill: rgb(153, 153, 153);">timestamp(0)</text></svg><svg x="0" y="128"><rect x="0" y="0" width="347.48779296875" height="32" fill="#F2F2F2"></rect><text x="10" y="19.25" style="font-family: &quot;Open Sans&quot;, sans-serif; font-size: 13px; fill: rgb(111, 111, 111);">title</text><path transform="translate(313.48779296875,6.5)" fill="#DEDEDE" d="M2 0h20s2 0 2 2v12s0 2 -2 2h-20s-2 0 -2 -2v-12s0 -2 2 -2"></path><path transform="translate(313.48779296875,6.5)" fill="#6F6F6F" d="M10.8112 12.5H9.6432L4.89385 4.94049H4.84618C4.8581 5.14159 4.872 5.37141 4.8879 5.62996C4.90379 5.8844 4.9157 6.15732 4.92365 6.4487C4.93557 6.73598 4.94153 7.02941 4.94153 7.329V12.5H4V3.5H5.16201L9.89348 11.0349H9.9352C9.92725 10.8912 9.91732 10.6881 9.9054 10.4254C9.89348 10.1587 9.88156 9.87346 9.86965 9.56977C9.8617 9.26197 9.85773 8.97674 9.85773 8.71409V3.5H10.8112V12.5Z"></path><path transform="translate(313.48779296875,6.5)" fill="#6F6F6F" d="M20 12.5H18.832L14.0827 4.94049H14.035C14.0469 5.14159 14.0608 5.37141 14.0767 5.62996C14.0926 5.8844 14.1045 6.15732 14.1125 6.4487C14.1244 6.73598 14.1304 7.02941 14.1304 7.329V12.5H13.1888V3.5H14.3508L19.0823 11.0349H19.124C19.1161 10.8912 19.1061 10.6881 19.0942 10.4254C19.0823 10.1587 19.0704 9.87346 19.0585 9.56977C19.0505 9.26197 19.0466 8.97674 19.0466 8.71409V3.5H20V12.5Z"></path><text x="174.85400390625" y="19.25" style="font-family: &quot;Open Sans&quot;, sans-serif; font-size: 13px; fill: rgb(153, 153, 153);">character varying(255)</text></svg><svg x="0" y="160"><rect x="0" y="0" width="347.48779296875" height="32" fill="#F2F2F2"></rect><text x="10" y="19.25" style="font-family: &quot;Open Sans&quot;, sans-serif; font-size: 13px; fill: rgb(111, 111, 111);">authors</text><text x="202.85400390625" y="19.25" style="font-family: &quot;Open Sans&quot;, sans-serif; font-size: 13px; fill: rgb(153, 153, 153);">character varying(255)</text></svg><svg x="0" y="192"><rect x="0" y="0" width="347.48779296875" height="32" fill="#F2F2F2"></rect><text x="10" y="19.25" style="font-family: &quot;Open Sans&quot;, sans-serif; font-size: 13px; fill: rgb(111, 111, 111);">year</text><text x="210.287109375" y="19.25" style="font-family: &quot;Open Sans&quot;, sans-serif; font-size: 13px; fill: rgb(153, 153, 153);">character varying(16)</text></svg><svg x="0" y="224"><rect x="0" y="0" width="347.48779296875" height="32" fill="#F2F2F2"></rect><text x="10" y="19.25" style="font-family: &quot;Open Sans&quot;, sans-serif; font-size: 13px; fill: rgb(111, 111, 111);">in_authors</text><text x="202.85400390625" y="19.25" style="font-family: &quot;Open Sans&quot;, sans-serif; font-size: 13px; fill: rgb(153, 153, 153);">character varying(255)</text></svg><svg x="0" y="256"><rect x="0" y="0" width="347.48779296875" height="32" fill="#F2F2F2"></rect><text x="10" y="19.25" style="font-family: &quot;Open Sans&quot;, sans-serif; font-size: 13px; fill: rgb(111, 111, 111);">in_title</text><text x="202.85400390625" y="19.25" style="font-family: &quot;Open Sans&quot;, sans-serif; font-size: 13px; fill: rgb(153, 153, 153);">character varying(255)</text></svg><svg x="0" y="288"><rect x="0" y="0" width="347.48779296875" height="32" fill="#F2F2F2"></rect><text x="10" y="19.25" style="font-family: &quot;Open Sans&quot;, sans-serif; font-size: 13px; fill: rgb(111, 111, 111);">edition</text><text x="210.287109375" y="19.25" style="font-family: &quot;Open Sans&quot;, sans-serif; font-size: 13px; fill: rgb(153, 153, 153);">character varying(32)</text></svg><svg x="0" y="320"><rect x="0" y="0" width="347.48779296875" height="32" fill="#F2F2F2"></rect><text x="10" y="19.25" style="font-family: &quot;Open Sans&quot;, sans-serif; font-size: 13px; fill: rgb(111, 111, 111);">journal</text><text x="202.85400390625" y="19.25" style="font-family: &quot;Open Sans&quot;, sans-serif; font-size: 13px; fill: rgb(153, 153, 153);">character varying(255)</text></svg><svg x="0" y="352"><rect x="0" y="0" width="347.48779296875" height="32" fill="#F2F2F2"></rect><text x="10" y="19.25" style="font-family: &quot;Open Sans&quot;, sans-serif; font-size: 13px; fill: rgb(111, 111, 111);">series</text><text x="210.287109375" y="19.25" style="font-family: &quot;Open Sans&quot;, sans-serif; font-size: 13px; fill: rgb(153, 153, 153);">character varying(64)</text></svg><svg x="0" y="384"><rect x="0" y="0" width="347.48779296875" height="32" fill="#F2F2F2"></rect><text x="10" y="19.25" style="font-family: &quot;Open Sans&quot;, sans-serif; font-size: 13px; fill: rgb(111, 111, 111);">volume</text><text x="210.287109375" y="19.25" style="font-family: &quot;Open Sans&quot;, sans-serif; font-size: 13px; fill: rgb(153, 153, 153);">character varying(64)</text></svg><svg x="0" y="416"><rect x="0" y="0" width="347.48779296875" height="32" fill="#F2F2F2"></rect><text x="10" y="19.25" style="font-family: &quot;Open Sans&quot;, sans-serif; font-size: 13px; fill: rgb(111, 111, 111);">issue</text><text x="210.287109375" y="19.25" style="font-family: &quot;Open Sans&quot;, sans-serif; font-size: 13px; fill: rgb(153, 153, 153);">character varying(64)</text></svg><svg x="0" y="448"><rect x="0" y="0" width="347.48779296875" height="32" fill="#F2F2F2"></rect><text x="10" y="19.25" style="font-family: &quot;Open Sans&quot;, sans-serif; font-size: 13px; fill: rgb(111, 111, 111);">part</text><text x="210.287109375" y="19.25" style="font-family: &quot;Open Sans&quot;, sans-serif; font-size: 13px; fill: rgb(153, 153, 153);">character varying(64)</text></svg><svg x="0" y="480"><rect x="0" y="0" width="347.48779296875" height="32" fill="#F2F2F2"></rect><text x="10" y="19.25" style="font-family: &quot;Open Sans&quot;, sans-serif; font-size: 13px; fill: rgb(111, 111, 111);">publisher</text><text x="202.85400390625" y="19.25" style="font-family: &quot;Open Sans&quot;, sans-serif; font-size: 13px; fill: rgb(153, 153, 153);">character varying(255)</text></svg><svg x="0" y="512"><rect x="0" y="0" width="347.48779296875" height="32" fill="#F2F2F2"></rect><text x="10" y="19.25" style="font-family: &quot;Open Sans&quot;, sans-serif; font-size: 13px; fill: rgb(111, 111, 111);">place_of_publication</text><text x="202.85400390625" y="19.25" style="font-family: &quot;Open Sans&quot;, sans-serif; font-size: 13px; fill: rgb(153, 153, 153);">character varying(255)</text></svg><svg x="0" y="544"><rect x="0" y="0" width="347.48779296875" height="32" fill="#F2F2F2"></rect><text x="10" y="19.25" style="font-family: &quot;Open Sans&quot;, sans-serif; font-size: 13px; fill: rgb(111, 111, 111);">pages</text><text x="210.287109375" y="19.25" style="font-family: &quot;Open Sans&quot;, sans-serif; font-size: 13px; fill: rgb(153, 153, 153);">character varying(32)</text></svg><svg x="0" y="576"><rect x="0" y="0" width="347.48779296875" height="32" fill="#F2F2F2"></rect><text x="10" y="19.25" style="font-family: &quot;Open Sans&quot;, sans-serif; font-size: 13px; fill: rgb(111, 111, 111);">url</text><text x="202.85400390625" y="19.25" style="font-family: &quot;Open Sans&quot;, sans-serif; font-size: 13px; fill: rgb(153, 153, 153);">character varying(255)</text></svg><svg x="0" y="608"><rect x="0" y="0" width="347.48779296875" height="32" fill="#F2F2F2"></rect><text x="10" y="19.25" style="font-family: &quot;Open Sans&quot;, sans-serif; font-size: 13px; fill: rgb(111, 111, 111);">project_id</text><path transform="translate(313.48779296875,6.5)" fill="#DEDEDE" d="M2 0h20s2 0 2 2v12s0 2 -2 2h-20s-2 0 -2 -2v-12s0 -2 2 -2"></path><path transform="translate(313.48779296875,6.5)" fill="#6F6F6F" d="M10.8112 12.5H9.6432L4.89385 4.94049H4.84618C4.8581 5.14159 4.872 5.37141 4.8879 5.62996C4.90379 5.8844 4.9157 6.15732 4.92365 6.4487C4.93557 6.73598 4.94153 7.02941 4.94153 7.329V12.5H4V3.5H5.16201L9.89348 11.0349H9.9352C9.92725 10.8912 9.91732 10.6881 9.9054 10.4254C9.89348 10.1587 9.88156 9.87346 9.86965 9.56977C9.8617 9.26197 9.85773 8.97674 9.85773 8.71409V3.5H10.8112V12.5Z"></path><path transform="translate(313.48779296875,6.5)" fill="#6F6F6F" d="M20 12.5H18.832L14.0827 4.94049H14.035C14.0469 5.14159 14.0608 5.37141 14.0767 5.62996C14.0926 5.8844 14.1045 6.15732 14.1125 6.4487C14.1244 6.73598 14.1304 7.02941 14.1304 7.329V12.5H13.1888V3.5H14.3508L19.0823 11.0349H19.124C19.1161 10.8912 19.1061 10.6881 19.0942 10.4254C19.0823 10.1587 19.0704 9.87346 19.0585 9.56977C19.0505 9.26197 19.0466 8.97674 19.0466 8.71409V3.5H20V12.5Z"></path><text x="266.62841796875" y="19.25" style="font-family: &quot;Open Sans&quot;, sans-serif; font-size: 13px; fill: rgb(153, 153, 153);">integer</text></svg><svg x="0" y="640"><rect x="0" y="0" width="347.48779296875" height="32" fill="#F2F2F2"></rect><text x="10" y="19.25" style="font-family: &quot;Open Sans&quot;, sans-serif; font-size: 13px; fill: rgb(111, 111, 111);">created_by_id</text><text x="294.62841796875" y="19.25" style="font-family: &quot;Open Sans&quot;, sans-serif; font-size: 13px; fill: rgb(153, 153, 153);">integer</text></svg><svg x="0" y="672"><rect x="0" y="0" width="347.48779296875" height="32" fill="#F2F2F2"></rect><text x="10" y="19.25" style="font-family: &quot;Open Sans&quot;, sans-serif; font-size: 13px; fill: rgb(111, 111, 111);">updated_by_id</text><text x="294.62841796875" y="19.25" style="font-family: &quot;Open Sans&quot;, sans-serif; font-size: 13px; fill: rgb(153, 153, 153);">integer</text></svg><svg x="429.3679633371536" y="0"><rect x="0" y="0" width="273.8173828125" height="32" fill="#316896"></rect><text x="10" y="19.25" style="font-family: &quot;Open Sans&quot;, sans-serif; font-size: 13px; font-weight: bold; fill: rgb(255, 255, 255);">keys</text></svg><svg x="429.3679633371536" y="32"><rect x="0" y="0" width="273.8173828125" height="32" fill="#F2F2F2"></rect><text x="10" y="19.25" style="font-family: &quot;Open Sans&quot;, sans-serif; font-size: 13px; font-weight: bold; fill: rgb(111, 111, 111);">id</text><path transform="translate(26.19384765625,9.25)" fill="#6F6F6F" d="M 6.5625 0.9844 C 8.1935 0.9844 9.5156 2.3065 9.5156 3.9375 C 9.5156 5.5685 8.1935 6.8906 6.5625 6.8906 C 6.1735 6.8906 5.8022 6.8153 5.462 6.6786 L 4.5938 7.5469 H 3.9375 V 8.5313 H 2.9531 V 9.5156 H 0.9844 V 7.5469 L 3.736 4.7952 C 3.6518 4.5171 3.6092 4.2281 3.6094 3.9375 C 3.6094 2.3065 4.9315 0.9844 6.5625 0.9844 Z M 6.5625 0 C 4.388 0 2.625 1.7627 2.625 3.9375 C 2.625 4.1186 2.6373 4.2989 2.6619 4.4772 L 0.1441 6.995 C 0.0519 7.0873 0 7.2125 0 7.343 L 0 10.0078 C 0 10.2797 0.2204 10.5 0.4922 10.5 H 3.4453 C 3.7171 10.5 3.9375 10.2797 3.9375 10.0078 V 9.5156 H 4.4297 C 4.7015 9.5156 4.9219 9.2953 4.9219 9.0234 V 8.6133 L 5.7432 7.7895 C 6.011 7.8464 6.2848 7.875 6.5625 7.875 C 8.737 7.875 10.5 6.1123 10.5 3.9375 C 10.5 1.763 8.7373 0 6.5625 0 Z M 6.5625 2.9531 C 6.5625 3.4968 7.0032 3.9375 7.5469 3.9375 C 8.0905 3.9375 8.5313 3.4968 8.5313 2.9531 C 8.5313 2.4095 8.0905 1.9688 7.5469 1.9688 C 7.0032 1.9688 6.5625 2.4095 6.5625 2.9531 Z"></path><path transform="translate(239.8173828125,6.5)" fill="#DEDEDE" d="M2 0h20s2 0 2 2v12s0 2 -2 2h-20s-2 0 -2 -2v-12s0 -2 2 -2"></path><path transform="translate(239.8173828125,6.5)" fill="#6F6F6F" d="M10.8112 12.5H9.6432L4.89385 4.94049H4.84618C4.8581 5.14159 4.872 5.37141 4.8879 5.62996C4.90379 5.8844 4.9157 6.15732 4.92365 6.4487C4.93557 6.73598 4.94153 7.02941 4.94153 7.329V12.5H4V3.5H5.16201L9.89348 11.0349H9.9352C9.92725 10.8912 9.91732 10.6881 9.9054 10.4254C9.89348 10.1587 9.88156 9.87346 9.86965 9.56977C9.8617 9.26197 9.85773 8.97674 9.85773 8.71409V3.5H10.8112V12.5Z"></path><path transform="translate(239.8173828125,6.5)" fill="#6F6F6F" d="M20 12.5H18.832L14.0827 4.94049H14.035C14.0469 5.14159 14.0608 5.37141 14.0767 5.62996C14.0926 5.8844 14.1045 6.15732 14.1125 6.4487C14.1244 6.73598 14.1304 7.02941 14.1304 7.329V12.5H13.1888V3.5H14.3508L19.0823 11.0349H19.124C19.1161 10.8912 19.1061 10.6881 19.0942 10.4254C19.0823 10.1587 19.0704 9.87346 19.0585 9.56977C19.0505 9.26197 19.0466 8.97674 19.0466 8.71409V3.5H20V12.5Z"></path><text x="198.125" y="19.25" style="font-family: &quot;Open Sans&quot;, sans-serif; font-size: 13px; font-weight: bold; fill: rgb(153, 153, 153);">bigint</text></svg><svg x="429.3679633371536" y="64"><rect x="0" y="0" width="273.8173828125" height="32" fill="#F2F2F2"></rect><text x="10" y="19.25" style="font-family: &quot;Open Sans&quot;, sans-serif; font-size: 13px; fill: rgb(111, 111, 111);">created_at</text><text x="183.42431640625" y="19.25" style="font-family: &quot;Open Sans&quot;, sans-serif; font-size: 13px; fill: rgb(153, 153, 153);">timestamp(0)</text></svg><svg x="429.3679633371536" y="96"><rect x="0" y="0" width="273.8173828125" height="32" fill="#F2F2F2"></rect><text x="10" y="19.25" style="font-family: &quot;Open Sans&quot;, sans-serif; font-size: 13px; fill: rgb(111, 111, 111);">updated_at</text><text x="183.42431640625" y="19.25" style="font-family: &quot;Open Sans&quot;, sans-serif; font-size: 13px; fill: rgb(153, 153, 153);">timestamp(0)</text></svg><svg x="429.3679633371536" y="128"><rect x="0" y="0" width="273.8173828125" height="32" fill="#F2F2F2"></rect><text x="10" y="19.25" style="font-family: &quot;Open Sans&quot;, sans-serif; font-size: 13px; fill: rgb(111, 111, 111);">guid</text><path transform="translate(239.8173828125,6.5)" fill="#DEDEDE" d="M2 0h20s2 0 2 2v12s0 2 -2 2h-20s-2 0 -2 -2v-12s0 -2 2 -2"></path><path transform="translate(239.8173828125,6.5)" fill="#6F6F6F" d="M10.8112 12.5H9.6432L4.89385 4.94049H4.84618C4.8581 5.14159 4.872 5.37141 4.8879 5.62996C4.90379 5.8844 4.9157 6.15732 4.92365 6.4487C4.93557 6.73598 4.94153 7.02941 4.94153 7.329V12.5H4V3.5H5.16201L9.89348 11.0349H9.9352C9.92725 10.8912 9.91732 10.6881 9.9054 10.4254C9.89348 10.1587 9.88156 9.87346 9.86965 9.56977C9.8617 9.26197 9.85773 8.97674 9.85773 8.71409V3.5H10.8112V12.5Z"></path><path transform="translate(239.8173828125,6.5)" fill="#6F6F6F" d="M20 12.5H18.832L14.0827 4.94049H14.035C14.0469 5.14159 14.0608 5.37141 14.0767 5.62996C14.0926 5.8844 14.1045 6.15732 14.1125 6.4487C14.1244 6.73598 14.1304 7.02941 14.1304 7.329V12.5H13.1888V3.5H14.3508L19.0823 11.0349H19.124C19.1161 10.8912 19.1061 10.6881 19.0942 10.4254C19.0823 10.1587 19.0704 9.87346 19.0585 9.56977C19.0505 9.26197 19.0466 8.97674 19.0466 8.71409V3.5H20V12.5Z"></path><text x="208.63671875" y="19.25" style="font-family: &quot;Open Sans&quot;, sans-serif; font-size: 13px; fill: rgb(153, 153, 153);">uuid</text></svg><svg x="429.3679633371536" y="160"><rect x="0" y="0" width="273.8173828125" height="32" fill="#F2F2F2"></rect><text x="10" y="19.25" style="font-family: &quot;Open Sans&quot;, sans-serif; font-size: 13px; fill: rgb(111, 111, 111);">version</text><path transform="translate(239.8173828125,6.5)" fill="#DEDEDE" d="M2 0h20s2 0 2 2v12s0 2 -2 2h-20s-2 0 -2 -2v-12s0 -2 2 -2"></path><path transform="translate(239.8173828125,6.5)" fill="#6F6F6F" d="M10.8112 12.5H9.6432L4.89385 4.94049H4.84618C4.8581 5.14159 4.872 5.37141 4.8879 5.62996C4.90379 5.8844 4.9157 6.15732 4.92365 6.4487C4.93557 6.73598 4.94153 7.02941 4.94153 7.329V12.5H4V3.5H5.16201L9.89348 11.0349H9.9352C9.92725 10.8912 9.91732 10.6881 9.9054 10.4254C9.89348 10.1587 9.88156 9.87346 9.86965 9.56977C9.8617 9.26197 9.85773 8.97674 9.85773 8.71409V3.5H10.8112V12.5Z"></path><path transform="translate(239.8173828125,6.5)" fill="#6F6F6F" d="M20 12.5H18.832L14.0827 4.94049H14.035C14.0469 5.14159 14.0608 5.37141 14.0767 5.62996C14.0926 5.8844 14.1045 6.15732 14.1125 6.4487C14.1244 6.73598 14.1304 7.02941 14.1304 7.329V12.5H13.1888V3.5H14.3508L19.0823 11.0349H19.124C19.1161 10.8912 19.1061 10.6881 19.0942 10.4254C19.0823 10.1587 19.0704 9.87346 19.0585 9.56977C19.0505 9.26197 19.0466 8.97674 19.0466 8.71409V3.5H20V12.5Z"></path><text x="192.9580078125" y="19.25" style="font-family: &quot;Open Sans&quot;, sans-serif; font-size: 13px; fill: rgb(153, 153, 153);">integer</text></svg><svg x="429.3679633371536" y="192"><rect x="0" y="0" width="273.8173828125" height="32" fill="#F2F2F2"></rect><text x="10" y="19.25" style="font-family: &quot;Open Sans&quot;, sans-serif; font-size: 13px; fill: rgb(111, 111, 111);">title</text><path transform="translate(239.8173828125,6.5)" fill="#DEDEDE" d="M2 0h20s2 0 2 2v12s0 2 -2 2h-20s-2 0 -2 -2v-12s0 -2 2 -2"></path><path transform="translate(239.8173828125,6.5)" fill="#6F6F6F" d="M10.8112 12.5H9.6432L4.89385 4.94049H4.84618C4.8581 5.14159 4.872 5.37141 4.8879 5.62996C4.90379 5.8844 4.9157 6.15732 4.92365 6.4487C4.93557 6.73598 4.94153 7.02941 4.94153 7.329V12.5H4V3.5H5.16201L9.89348 11.0349H9.9352C9.92725 10.8912 9.91732 10.6881 9.9054 10.4254C9.89348 10.1587 9.88156 9.87346 9.86965 9.56977C9.8617 9.26197 9.85773 8.97674 9.85773 8.71409V3.5H10.8112V12.5Z"></path><path transform="translate(239.8173828125,6.5)" fill="#6F6F6F" d="M20 12.5H18.832L14.0827 4.94049H14.035C14.0469 5.14159 14.0608 5.37141 14.0767 5.62996C14.0926 5.8844 14.1045 6.15732 14.1125 6.4487C14.1244 6.73598 14.1304 7.02941 14.1304 7.329V12.5H13.1888V3.5H14.3508L19.0823 11.0349H19.124C19.1161 10.8912 19.1061 10.6881 19.0942 10.4254C19.0823 10.1587 19.0704 9.87346 19.0585 9.56977C19.0505 9.26197 19.0466 8.97674 19.0466 8.71409V3.5H20V12.5Z"></path><text x="101.18359375" y="19.25" style="font-family: &quot;Open Sans&quot;, sans-serif; font-size: 13px; fill: rgb(153, 153, 153);">character varying(255)</text></svg><svg x="429.3679633371536" y="224"><rect x="0" y="0" width="273.8173828125" height="32" fill="#F2F2F2"></rect><text x="10" y="19.25" style="font-family: &quot;Open Sans&quot;, sans-serif; font-size: 13px; fill: rgb(111, 111, 111);">author</text><text x="129.18359375" y="19.25" style="font-family: &quot;Open Sans&quot;, sans-serif; font-size: 13px; fill: rgb(153, 153, 153);">character varying(255)</text></svg><svg x="429.3679633371536" y="256"><rect x="0" y="0" width="273.8173828125" height="32" fill="#F2F2F2"></rect><text x="10" y="19.25" style="font-family: &quot;Open Sans&quot;, sans-serif; font-size: 13px; fill: rgb(111, 111, 111);">description</text><text x="240.4453125" y="19.25" style="font-family: &quot;Open Sans&quot;, sans-serif; font-size: 13px; fill: rgb(153, 153, 153);">text</text></svg><svg x="429.3679633371536" y="288"><rect x="0" y="0" width="273.8173828125" height="32" fill="#F2F2F2"></rect><text x="10" y="19.25" style="font-family: &quot;Open Sans&quot;, sans-serif; font-size: 13px; fill: rgb(111, 111, 111);">notes</text><text x="240.4453125" y="19.25" style="font-family: &quot;Open Sans&quot;, sans-serif; font-size: 13px; fill: rgb(153, 153, 153);">text</text></svg><svg x="429.3679633371536" y="320"><rect x="0" y="0" width="273.8173828125" height="32" fill="#F2F2F2"></rect><text x="10" y="19.25" style="font-family: &quot;Open Sans&quot;, sans-serif; font-size: 13px; fill: rgb(111, 111, 111);">modified_from_source</text><text x="214.4453125" y="19.25" style="font-family: &quot;Open Sans&quot;, sans-serif; font-size: 13px; fill: rgb(153, 153, 153);">boolean</text></svg><svg x="429.3679633371536" y="352"><rect x="0" y="0" width="273.8173828125" height="32" fill="#F2F2F2"></rect><text x="10" y="19.25" style="font-family: &quot;Open Sans&quot;, sans-serif; font-size: 13px; fill: rgb(111, 111, 111);">first_step_id</text><path transform="translate(239.8173828125,6.5)" fill="#DEDEDE" d="M2 0h20s2 0 2 2v12s0 2 -2 2h-20s-2 0 -2 -2v-12s0 -2 2 -2"></path><path transform="translate(239.8173828125,6.5)" fill="#6F6F6F" d="M10.8112 12.5H9.6432L4.89385 4.94049H4.84618C4.8581 5.14159 4.872 5.37141 4.8879 5.62996C4.90379 5.8844 4.9157 6.15732 4.92365 6.4487C4.93557 6.73598 4.94153 7.02941 4.94153 7.329V12.5H4V3.5H5.16201L9.89348 11.0349H9.9352C9.92725 10.8912 9.91732 10.6881 9.9054 10.4254C9.89348 10.1587 9.88156 9.87346 9.86965 9.56977C9.8617 9.26197 9.85773 8.97674 9.85773 8.71409V3.5H10.8112V12.5Z"></path><path transform="translate(239.8173828125,6.5)" fill="#6F6F6F" d="M20 12.5H18.832L14.0827 4.94049H14.035C14.0469 5.14159 14.0608 5.37141 14.0767 5.62996C14.0926 5.8844 14.1045 6.15732 14.1125 6.4487C14.1244 6.73598 14.1304 7.02941 14.1304 7.329V12.5H13.1888V3.5H14.3508L19.0823 11.0349H19.124C19.1161 10.8912 19.1061 10.6881 19.0942 10.4254C19.0823 10.1587 19.0704 9.87346 19.0585 9.56977C19.0505 9.26197 19.0466 8.97674 19.0466 8.71409V3.5H20V12.5Z"></path><text x="192.9580078125" y="19.25" style="font-family: &quot;Open Sans&quot;, sans-serif; font-size: 13px; fill: rgb(153, 153, 153);">integer</text></svg><svg x="429.3679633371536" y="384"><rect x="0" y="0" width="273.8173828125" height="32" fill="#F2F2F2"></rect><text x="10" y="19.25" style="font-family: &quot;Open Sans&quot;, sans-serif; font-size: 13px; fill: rgb(111, 111, 111);">taxonomic_scope_id</text><path transform="translate(239.8173828125,6.5)" fill="#DEDEDE" d="M2 0h20s2 0 2 2v12s0 2 -2 2h-20s-2 0 -2 -2v-12s0 -2 2 -2"></path><path transform="translate(239.8173828125,6.5)" fill="#6F6F6F" d="M10.8112 12.5H9.6432L4.89385 4.94049H4.84618C4.8581 5.14159 4.872 5.37141 4.8879 5.62996C4.90379 5.8844 4.9157 6.15732 4.92365 6.4487C4.93557 6.73598 4.94153 7.02941 4.94153 7.329V12.5H4V3.5H5.16201L9.89348 11.0349H9.9352C9.92725 10.8912 9.91732 10.6881 9.9054 10.4254C9.89348 10.1587 9.88156 9.87346 9.86965 9.56977C9.8617 9.26197 9.85773 8.97674 9.85773 8.71409V3.5H10.8112V12.5Z"></path><path transform="translate(239.8173828125,6.5)" fill="#6F6F6F" d="M20 12.5H18.832L14.0827 4.94049H14.035C14.0469 5.14159 14.0608 5.37141 14.0767 5.62996C14.0926 5.8844 14.1045 6.15732 14.1125 6.4487C14.1244 6.73598 14.1304 7.02941 14.1304 7.329V12.5H13.1888V3.5H14.3508L19.0823 11.0349H19.124C19.1161 10.8912 19.1061 10.6881 19.0942 10.4254C19.0823 10.1587 19.0704 9.87346 19.0585 9.56977C19.0505 9.26197 19.0466 8.97674 19.0466 8.71409V3.5H20V12.5Z"></path><text x="192.9580078125" y="19.25" style="font-family: &quot;Open Sans&quot;, sans-serif; font-size: 13px; fill: rgb(153, 153, 153);">integer</text></svg><svg x="429.3679633371536" y="416"><rect x="0" y="0" width="273.8173828125" height="32" fill="#F2F2F2"></rect><text x="10" y="19.25" style="font-family: &quot;Open Sans&quot;, sans-serif; font-size: 13px; fill: rgb(111, 111, 111);">project_id</text><path transform="translate(239.8173828125,6.5)" fill="#DEDEDE" d="M2 0h20s2 0 2 2v12s0 2 -2 2h-20s-2 0 -2 -2v-12s0 -2 2 -2"></path><path transform="translate(239.8173828125,6.5)" fill="#6F6F6F" d="M10.8112 12.5H9.6432L4.89385 4.94049H4.84618C4.8581 5.14159 4.872 5.37141 4.8879 5.62996C4.90379 5.8844 4.9157 6.15732 4.92365 6.4487C4.93557 6.73598 4.94153 7.02941 4.94153 7.329V12.5H4V3.5H5.16201L9.89348 11.0349H9.9352C9.92725 10.8912 9.91732 10.6881 9.9054 10.4254C9.89348 10.1587 9.88156 9.87346 9.86965 9.56977C9.8617 9.26197 9.85773 8.97674 9.85773 8.71409V3.5H10.8112V12.5Z"></path><path transform="translate(239.8173828125,6.5)" fill="#6F6F6F" d="M20 12.5H18.832L14.0827 4.94049H14.035C14.0469 5.14159 14.0608 5.37141 14.0767 5.62996C14.0926 5.8844 14.1045 6.15732 14.1125 6.4487C14.1244 6.73598 14.1304 7.02941 14.1304 7.329V12.5H13.1888V3.5H14.3508L19.0823 11.0349H19.124C19.1161 10.8912 19.1061 10.6881 19.0942 10.4254C19.0823 10.1587 19.0704 9.87346 19.0585 9.56977C19.0505 9.26197 19.0466 8.97674 19.0466 8.71409V3.5H20V12.5Z"></path><text x="192.9580078125" y="19.25" style="font-family: &quot;Open Sans&quot;, sans-serif; font-size: 13px; fill: rgb(153, 153, 153);">integer</text></svg><svg x="429.3679633371536" y="448"><rect x="0" y="0" width="273.8173828125" height="32" fill="#F2F2F2"></rect><text x="10" y="19.25" style="font-family: &quot;Open Sans&quot;, sans-serif; font-size: 13px; fill: rgb(111, 111, 111);">subkey_of_id</text><text x="220.9580078125" y="19.25" style="font-family: &quot;Open Sans&quot;, sans-serif; font-size: 13px; fill: rgb(153, 153, 153);">integer</text></svg><svg x="429.3679633371536" y="480"><rect x="0" y="0" width="273.8173828125" height="32" fill="#F2F2F2"></rect><text x="10" y="19.25" style="font-family: &quot;Open Sans&quot;, sans-serif; font-size: 13px; fill: rgb(111, 111, 111);">source_id</text><text x="220.9580078125" y="19.25" style="font-family: &quot;Open Sans&quot;, sans-serif; font-size: 13px; fill: rgb(153, 153, 153);">integer</text></svg><svg x="429.3679633371536" y="512"><rect x="0" y="0" width="273.8173828125" height="32" fill="#F2F2F2"></rect><text x="10" y="19.25" style="font-family: &quot;Open Sans&quot;, sans-serif; font-size: 13px; fill: rgb(111, 111, 111);">created_by_id</text><text x="220.9580078125" y="19.25" style="font-family: &quot;Open Sans&quot;, sans-serif; font-size: 13px; fill: rgb(153, 153, 153);">integer</text></svg><svg x="429.3679633371536" y="544"><rect x="0" y="0" width="273.8173828125" height="32" fill="#F2F2F2"></rect><text x="10" y="19.25" style="font-family: &quot;Open Sans&quot;, sans-serif; font-size: 13px; fill: rgb(111, 111, 111);">updated_by_id</text><text x="220.9580078125" y="19.25" style="font-family: &quot;Open Sans&quot;, sans-serif; font-size: 13px; fill: rgb(153, 153, 153);">integer</text></svg><svg x="833.9334191492421" y="0"><rect x="0" y="0" width="232.9384765625" height="32" fill="#316896"></rect><text x="10" y="19.25" style="font-family: &quot;Open Sans&quot;, sans-serif; font-size: 13px; font-weight: bold; fill: rgb(255, 255, 255);">change_notes</text></svg><svg x="833.9334191492421" y="32"><rect x="0" y="0" width="232.9384765625" height="32" fill="#F2F2F2"></rect><text x="10" y="19.25" style="font-family: &quot;Open Sans&quot;, sans-serif; font-size: 13px; font-weight: bold; fill: rgb(111, 111, 111);">id</text><path transform="translate(26.19384765625,9.25)" fill="#6F6F6F" d="M 6.5625 0.9844 C 8.1935 0.9844 9.5156 2.3065 9.5156 3.9375 C 9.5156 5.5685 8.1935 6.8906 6.5625 6.8906 C 6.1735 6.8906 5.8022 6.8153 5.462 6.6786 L 4.5938 7.5469 H 3.9375 V 8.5313 H 2.9531 V 9.5156 H 0.9844 V 7.5469 L 3.736 4.7952 C 3.6518 4.5171 3.6092 4.2281 3.6094 3.9375 C 3.6094 2.3065 4.9315 0.9844 6.5625 0.9844 Z M 6.5625 0 C 4.388 0 2.625 1.7627 2.625 3.9375 C 2.625 4.1186 2.6373 4.2989 2.6619 4.4772 L 0.1441 6.995 C 0.0519 7.0873 0 7.2125 0 7.343 L 0 10.0078 C 0 10.2797 0.2204 10.5 0.4922 10.5 H 3.4453 C 3.7171 10.5 3.9375 10.2797 3.9375 10.0078 V 9.5156 H 4.4297 C 4.7015 9.5156 4.9219 9.2953 4.9219 9.0234 V 8.6133 L 5.7432 7.7895 C 6.011 7.8464 6.2848 7.875 6.5625 7.875 C 8.737 7.875 10.5 6.1123 10.5 3.9375 C 10.5 1.763 8.7373 0 6.5625 0 Z M 6.5625 2.9531 C 6.5625 3.4968 7.0032 3.9375 7.5469 3.9375 C 8.0905 3.9375 8.5313 3.4968 8.5313 2.9531 C 8.5313 2.4095 8.0905 1.9688 7.5469 1.9688 C 7.0032 1.9688 6.5625 2.4095 6.5625 2.9531 Z"></path><path transform="translate(198.9384765625,6.5)" fill="#DEDEDE" d="M2 0h20s2 0 2 2v12s0 2 -2 2h-20s-2 0 -2 -2v-12s0 -2 2 -2"></path><path transform="translate(198.9384765625,6.5)" fill="#6F6F6F" d="M10.8112 12.5H9.6432L4.89385 4.94049H4.84618C4.8581 5.14159 4.872 5.37141 4.8879 5.62996C4.90379 5.8844 4.9157 6.15732 4.92365 6.4487C4.93557 6.73598 4.94153 7.02941 4.94153 7.329V12.5H4V3.5H5.16201L9.89348 11.0349H9.9352C9.92725 10.8912 9.91732 10.6881 9.9054 10.4254C9.89348 10.1587 9.88156 9.87346 9.86965 9.56977C9.8617 9.26197 9.85773 8.97674 9.85773 8.71409V3.5H10.8112V12.5Z"></path><path transform="translate(198.9384765625,6.5)" fill="#6F6F6F" d="M20 12.5H18.832L14.0827 4.94049H14.035C14.0469 5.14159 14.0608 5.37141 14.0767 5.62996C14.0926 5.8844 14.1045 6.15732 14.1125 6.4487C14.1244 6.73598 14.1304 7.02941 14.1304 7.329V12.5H13.1888V3.5H14.3508L19.0823 11.0349H19.124C19.1161 10.8912 19.1061 10.6881 19.0942 10.4254C19.0823 10.1587 19.0704 9.87346 19.0585 9.56977C19.0505 9.26197 19.0466 8.97674 19.0466 8.71409V3.5H20V12.5Z"></path><text x="157.24609375" y="19.25" style="font-family: &quot;Open Sans&quot;, sans-serif; font-size: 13px; font-weight: bold; fill: rgb(153, 153, 153);">bigint</text></svg><svg x="833.9334191492421" y="64"><rect x="0" y="0" width="232.9384765625" height="32" fill="#F2F2F2"></rect><text x="10" y="19.25" style="font-family: &quot;Open Sans&quot;, sans-serif; font-size: 13px; fill: rgb(111, 111, 111);">created_at</text><text x="142.54541015625" y="19.25" style="font-family: &quot;Open Sans&quot;, sans-serif; font-size: 13px; fill: rgb(153, 153, 153);">timestamp(0)</text></svg><svg x="833.9334191492421" y="96"><rect x="0" y="0" width="232.9384765625" height="32" fill="#F2F2F2"></rect><text x="10" y="19.25" style="font-family: &quot;Open Sans&quot;, sans-serif; font-size: 13px; fill: rgb(111, 111, 111);">updated_at</text><text x="142.54541015625" y="19.25" style="font-family: &quot;Open Sans&quot;, sans-serif; font-size: 13px; fill: rgb(153, 153, 153);">timestamp(0)</text></svg><svg x="833.9334191492421" y="128"><rect x="0" y="0" width="232.9384765625" height="32" fill="#F2F2F2"></rect><text x="10" y="19.25" style="font-family: &quot;Open Sans&quot;, sans-serif; font-size: 13px; fill: rgb(111, 111, 111);">remarks</text><path transform="translate(198.9384765625,6.5)" fill="#DEDEDE" d="M2 0h20s2 0 2 2v12s0 2 -2 2h-20s-2 0 -2 -2v-12s0 -2 2 -2"></path><path transform="translate(198.9384765625,6.5)" fill="#6F6F6F" d="M10.8112 12.5H9.6432L4.89385 4.94049H4.84618C4.8581 5.14159 4.872 5.37141 4.8879 5.62996C4.90379 5.8844 4.9157 6.15732 4.92365 6.4487C4.93557 6.73598 4.94153 7.02941 4.94153 7.329V12.5H4V3.5H5.16201L9.89348 11.0349H9.9352C9.92725 10.8912 9.91732 10.6881 9.9054 10.4254C9.89348 10.1587 9.88156 9.87346 9.86965 9.56977C9.8617 9.26197 9.85773 8.97674 9.85773 8.71409V3.5H10.8112V12.5Z"></path><path transform="translate(198.9384765625,6.5)" fill="#6F6F6F" d="M20 12.5H18.832L14.0827 4.94049H14.035C14.0469 5.14159 14.0608 5.37141 14.0767 5.62996C14.0926 5.8844 14.1045 6.15732 14.1125 6.4487C14.1244 6.73598 14.1304 7.02941 14.1304 7.329V12.5H13.1888V3.5H14.3508L19.0823 11.0349H19.124C19.1161 10.8912 19.1061 10.6881 19.0942 10.4254C19.0823 10.1587 19.0704 9.87346 19.0585 9.56977C19.0505 9.26197 19.0466 8.97674 19.0466 8.71409V3.5H20V12.5Z"></path><text x="171.56640625" y="19.25" style="font-family: &quot;Open Sans&quot;, sans-serif; font-size: 13px; fill: rgb(153, 153, 153);">text</text></svg><svg x="833.9334191492421" y="160"><rect x="0" y="0" width="232.9384765625" height="32" fill="#F2F2F2"></rect><text x="10" y="19.25" style="font-family: &quot;Open Sans&quot;, sans-serif; font-size: 13px; fill: rgb(111, 111, 111);">key_id</text><path transform="translate(198.9384765625,6.5)" fill="#DEDEDE" d="M2 0h20s2 0 2 2v12s0 2 -2 2h-20s-2 0 -2 -2v-12s0 -2 2 -2"></path><path transform="translate(198.9384765625,6.5)" fill="#6F6F6F" d="M10.8112 12.5H9.6432L4.89385 4.94049H4.84618C4.8581 5.14159 4.872 5.37141 4.8879 5.62996C4.90379 5.8844 4.9157 6.15732 4.92365 6.4487C4.93557 6.73598 4.94153 7.02941 4.94153 7.329V12.5H4V3.5H5.16201L9.89348 11.0349H9.9352C9.92725 10.8912 9.91732 10.6881 9.9054 10.4254C9.89348 10.1587 9.88156 9.87346 9.86965 9.56977C9.8617 9.26197 9.85773 8.97674 9.85773 8.71409V3.5H10.8112V12.5Z"></path><path transform="translate(198.9384765625,6.5)" fill="#6F6F6F" d="M20 12.5H18.832L14.0827 4.94049H14.035C14.0469 5.14159 14.0608 5.37141 14.0767 5.62996C14.0926 5.8844 14.1045 6.15732 14.1125 6.4487C14.1244 6.73598 14.1304 7.02941 14.1304 7.329V12.5H13.1888V3.5H14.3508L19.0823 11.0349H19.124C19.1161 10.8912 19.1061 10.6881 19.0942 10.4254C19.0823 10.1587 19.0704 9.87346 19.0585 9.56977C19.0505 9.26197 19.0466 8.97674 19.0466 8.71409V3.5H20V12.5Z"></path><text x="152.0791015625" y="19.25" style="font-family: &quot;Open Sans&quot;, sans-serif; font-size: 13px; fill: rgb(153, 153, 153);">integer</text></svg><svg x="833.9334191492421" y="192"><rect x="0" y="0" width="232.9384765625" height="32" fill="#F2F2F2"></rect><text x="10" y="19.25" style="font-family: &quot;Open Sans&quot;, sans-serif; font-size: 13px; fill: rgb(111, 111, 111);">version</text><path transform="translate(198.9384765625,6.5)" fill="#DEDEDE" d="M2 0h20s2 0 2 2v12s0 2 -2 2h-20s-2 0 -2 -2v-12s0 -2 2 -2"></path><path transform="translate(198.9384765625,6.5)" fill="#6F6F6F" d="M10.8112 12.5H9.6432L4.89385 4.94049H4.84618C4.8581 5.14159 4.872 5.37141 4.8879 5.62996C4.90379 5.8844 4.9157 6.15732 4.92365 6.4487C4.93557 6.73598 4.94153 7.02941 4.94153 7.329V12.5H4V3.5H5.16201L9.89348 11.0349H9.9352C9.92725 10.8912 9.91732 10.6881 9.9054 10.4254C9.89348 10.1587 9.88156 9.87346 9.86965 9.56977C9.8617 9.26197 9.85773 8.97674 9.85773 8.71409V3.5H10.8112V12.5Z"></path><path transform="translate(198.9384765625,6.5)" fill="#6F6F6F" d="M20 12.5H18.832L14.0827 4.94049H14.035C14.0469 5.14159 14.0608 5.37141 14.0767 5.62996C14.0926 5.8844 14.1045 6.15732 14.1125 6.4487C14.1244 6.73598 14.1304 7.02941 14.1304 7.329V12.5H13.1888V3.5H14.3508L19.0823 11.0349H19.124C19.1161 10.8912 19.1061 10.6881 19.0942 10.4254C19.0823 10.1587 19.0704 9.87346 19.0585 9.56977C19.0505 9.26197 19.0466 8.97674 19.0466 8.71409V3.5H20V12.5Z"></path><text x="152.0791015625" y="19.25" style="font-family: &quot;Open Sans&quot;, sans-serif; font-size: 13px; fill: rgb(153, 153, 153);">integer</text></svg><svg x="833.9334191492421" y="224"><rect x="0" y="0" width="232.9384765625" height="32" fill="#F2F2F2"></rect><text x="10" y="19.25" style="font-family: &quot;Open Sans&quot;, sans-serif; font-size: 13px; fill: rgb(111, 111, 111);">created_by_id</text><path transform="translate(198.9384765625,6.5)" fill="#DEDEDE" d="M2 0h20s2 0 2 2v12s0 2 -2 2h-20s-2 0 -2 -2v-12s0 -2 2 -2"></path><path transform="translate(198.9384765625,6.5)" fill="#6F6F6F" d="M10.8112 12.5H9.6432L4.89385 4.94049H4.84618C4.8581 5.14159 4.872 5.37141 4.8879 5.62996C4.90379 5.8844 4.9157 6.15732 4.92365 6.4487C4.93557 6.73598 4.94153 7.02941 4.94153 7.329V12.5H4V3.5H5.16201L9.89348 11.0349H9.9352C9.92725 10.8912 9.91732 10.6881 9.9054 10.4254C9.89348 10.1587 9.88156 9.87346 9.86965 9.56977C9.8617 9.26197 9.85773 8.97674 9.85773 8.71409V3.5H10.8112V12.5Z"></path><path transform="translate(198.9384765625,6.5)" fill="#6F6F6F" d="M20 12.5H18.832L14.0827 4.94049H14.035C14.0469 5.14159 14.0608 5.37141 14.0767 5.62996C14.0926 5.8844 14.1045 6.15732 14.1125 6.4487C14.1244 6.73598 14.1304 7.02941 14.1304 7.329V12.5H13.1888V3.5H14.3508L19.0823 11.0349H19.124C19.1161 10.8912 19.1061 10.6881 19.0942 10.4254C19.0823 10.1587 19.0704 9.87346 19.0585 9.56977C19.0505 9.26197 19.0466 8.97674 19.0466 8.71409V3.5H20V12.5Z"></path><text x="152.0791015625" y="19.25" style="font-family: &quot;Open Sans&quot;, sans-serif; font-size: 13px; fill: rgb(153, 153, 153);">integer</text></svg><svg x="833.9334191492421" y="256"><rect x="0" y="0" width="232.9384765625" height="32" fill="#F2F2F2"></rect><text x="10" y="19.25" style="font-family: &quot;Open Sans&quot;, sans-serif; font-size: 13px; fill: rgb(111, 111, 111);">updated_by_id</text><text x="180.0791015625" y="19.25" style="font-family: &quot;Open Sans&quot;, sans-serif; font-size: 13px; fill: rgb(153, 153, 153);">integer</text></svg><svg x="786.3958214929921" y="317.7386722762061"><rect x="0" y="0" width="280.47607421875" height="32" fill="#316896"></rect><text x="10" y="19.25" style="font-family: &quot;Open Sans&quot;, sans-serif; font-size: 13px; font-weight: bold; fill: rgb(255, 255, 255);">agents</text></svg><svg x="786.3958214929921" y="349.7386722762061"><rect x="0" y="0" width="280.47607421875" height="32" fill="#F2F2F2"></rect><text x="10" y="19.25" style="font-family: &quot;Open Sans&quot;, sans-serif; font-size: 13px; font-weight: bold; fill: rgb(111, 111, 111);">id</text><path transform="translate(26.19384765625,9.25)" fill="#6F6F6F" d="M 6.5625 0.9844 C 8.1935 0.9844 9.5156 2.3065 9.5156 3.9375 C 9.5156 5.5685 8.1935 6.8906 6.5625 6.8906 C 6.1735 6.8906 5.8022 6.8153 5.462 6.6786 L 4.5938 7.5469 H 3.9375 V 8.5313 H 2.9531 V 9.5156 H 0.9844 V 7.5469 L 3.736 4.7952 C 3.6518 4.5171 3.6092 4.2281 3.6094 3.9375 C 3.6094 2.3065 4.9315 0.9844 6.5625 0.9844 Z M 6.5625 0 C 4.388 0 2.625 1.7627 2.625 3.9375 C 2.625 4.1186 2.6373 4.2989 2.6619 4.4772 L 0.1441 6.995 C 0.0519 7.0873 0 7.2125 0 7.343 L 0 10.0078 C 0 10.2797 0.2204 10.5 0.4922 10.5 H 3.4453 C 3.7171 10.5 3.9375 10.2797 3.9375 10.0078 V 9.5156 H 4.4297 C 4.7015 9.5156 4.9219 9.2953 4.9219 9.0234 V 8.6133 L 5.7432 7.7895 C 6.011 7.8464 6.2848 7.875 6.5625 7.875 C 8.737 7.875 10.5 6.1123 10.5 3.9375 C 10.5 1.763 8.7373 0 6.5625 0 Z M 6.5625 2.9531 C 6.5625 3.4968 7.0032 3.9375 7.5469 3.9375 C 8.0905 3.9375 8.5313 3.4968 8.5313 2.9531 C 8.5313 2.4095 8.0905 1.9688 7.5469 1.9688 C 7.0032 1.9688 6.5625 2.4095 6.5625 2.9531 Z"></path><path transform="translate(246.47607421875,6.5)" fill="#DEDEDE" d="M2 0h20s2 0 2 2v12s0 2 -2 2h-20s-2 0 -2 -2v-12s0 -2 2 -2"></path><path transform="translate(246.47607421875,6.5)" fill="#6F6F6F" d="M10.8112 12.5H9.6432L4.89385 4.94049H4.84618C4.8581 5.14159 4.872 5.37141 4.8879 5.62996C4.90379 5.8844 4.9157 6.15732 4.92365 6.4487C4.93557 6.73598 4.94153 7.02941 4.94153 7.329V12.5H4V3.5H5.16201L9.89348 11.0349H9.9352C9.92725 10.8912 9.91732 10.6881 9.9054 10.4254C9.89348 10.1587 9.88156 9.87346 9.86965 9.56977C9.8617 9.26197 9.85773 8.97674 9.85773 8.71409V3.5H10.8112V12.5Z"></path><path transform="translate(246.47607421875,6.5)" fill="#6F6F6F" d="M20 12.5H18.832L14.0827 4.94049H14.035C14.0469 5.14159 14.0608 5.37141 14.0767 5.62996C14.0926 5.8844 14.1045 6.15732 14.1125 6.4487C14.1244 6.73598 14.1304 7.02941 14.1304 7.329V12.5H13.1888V3.5H14.3508L19.0823 11.0349H19.124C19.1161 10.8912 19.1061 10.6881 19.0942 10.4254C19.0823 10.1587 19.0704 9.87346 19.0585 9.56977C19.0505 9.26197 19.0466 8.97674 19.0466 8.71409V3.5H20V12.5Z"></path><text x="204.78369140625" y="19.25" style="font-family: &quot;Open Sans&quot;, sans-serif; font-size: 13px; font-weight: bold; fill: rgb(153, 153, 153);">bigint</text></svg><svg x="786.3958214929921" y="381.7386722762061"><rect x="0" y="0" width="280.47607421875" height="32" fill="#F2F2F2"></rect><text x="10" y="19.25" style="font-family: &quot;Open Sans&quot;, sans-serif; font-size: 13px; fill: rgb(111, 111, 111);">created_at</text><text x="190.0830078125" y="19.25" style="font-family: &quot;Open Sans&quot;, sans-serif; font-size: 13px; fill: rgb(153, 153, 153);">timestamp(0)</text></svg><svg x="786.3958214929921" y="413.7386722762061"><rect x="0" y="0" width="280.47607421875" height="32" fill="#F2F2F2"></rect><text x="10" y="19.25" style="font-family: &quot;Open Sans&quot;, sans-serif; font-size: 13px; fill: rgb(111, 111, 111);">updated_at</text><text x="190.0830078125" y="19.25" style="font-family: &quot;Open Sans&quot;, sans-serif; font-size: 13px; fill: rgb(153, 153, 153);">timestamp(0)</text></svg><svg x="786.3958214929921" y="445.7386722762061"><rect x="0" y="0" width="280.47607421875" height="32" fill="#F2F2F2"></rect><text x="10" y="19.25" style="font-family: &quot;Open Sans&quot;, sans-serif; font-size: 13px; fill: rgb(111, 111, 111);">name</text><path transform="translate(246.47607421875,6.5)" fill="#DEDEDE" d="M2 0h20s2 0 2 2v12s0 2 -2 2h-20s-2 0 -2 -2v-12s0 -2 2 -2"></path><path transform="translate(246.47607421875,6.5)" fill="#6F6F6F" d="M10.8112 12.5H9.6432L4.89385 4.94049H4.84618C4.8581 5.14159 4.872 5.37141 4.8879 5.62996C4.90379 5.8844 4.9157 6.15732 4.92365 6.4487C4.93557 6.73598 4.94153 7.02941 4.94153 7.329V12.5H4V3.5H5.16201L9.89348 11.0349H9.9352C9.92725 10.8912 9.91732 10.6881 9.9054 10.4254C9.89348 10.1587 9.88156 9.87346 9.86965 9.56977C9.8617 9.26197 9.85773 8.97674 9.85773 8.71409V3.5H10.8112V12.5Z"></path><path transform="translate(246.47607421875,6.5)" fill="#6F6F6F" d="M20 12.5H18.832L14.0827 4.94049H14.035C14.0469 5.14159 14.0608 5.37141 14.0767 5.62996C14.0926 5.8844 14.1045 6.15732 14.1125 6.4487C14.1244 6.73598 14.1304 7.02941 14.1304 7.329V12.5H13.1888V3.5H14.3508L19.0823 11.0349H19.124C19.1161 10.8912 19.1061 10.6881 19.0942 10.4254C19.0823 10.1587 19.0704 9.87346 19.0585 9.56977C19.0505 9.26197 19.0466 8.97674 19.0466 8.71409V3.5H20V12.5Z"></path><text x="107.84228515625" y="19.25" style="font-family: &quot;Open Sans&quot;, sans-serif; font-size: 13px; fill: rgb(153, 153, 153);">character varying(255)</text></svg><svg x="786.3958214929921" y="477.7386722762061"><rect x="0" y="0" width="280.47607421875" height="32" fill="#F2F2F2"></rect><text x="10" y="19.25" style="font-family: &quot;Open Sans&quot;, sans-serif; font-size: 13px; fill: rgb(111, 111, 111);">first_name</text><text x="143.275390625" y="19.25" style="font-family: &quot;Open Sans&quot;, sans-serif; font-size: 13px; fill: rgb(153, 153, 153);">character varying(64)</text></svg><svg x="786.3958214929921" y="509.7386722762061"><rect x="0" y="0" width="280.47607421875" height="32" fill="#F2F2F2"></rect><text x="10" y="19.25" style="font-family: &quot;Open Sans&quot;, sans-serif; font-size: 13px; fill: rgb(111, 111, 111);">surname</text><text x="143.275390625" y="19.25" style="font-family: &quot;Open Sans&quot;, sans-serif; font-size: 13px; fill: rgb(153, 153, 153);">character varying(64)</text></svg><svg x="786.3958214929921" y="541.7386722762061"><rect x="0" y="0" width="280.47607421875" height="32" fill="#F2F2F2"></rect><text x="10" y="19.25" style="font-family: &quot;Open Sans&quot;, sans-serif; font-size: 13px; fill: rgb(111, 111, 111);">email</text><path transform="translate(246.47607421875,6.5)" fill="#DEDEDE" d="M2 0h20s2 0 2 2v12s0 2 -2 2h-20s-2 0 -2 -2v-12s0 -2 2 -2"></path><path transform="translate(246.47607421875,6.5)" fill="#6F6F6F" d="M10.8112 12.5H9.6432L4.89385 4.94049H4.84618C4.8581 5.14159 4.872 5.37141 4.8879 5.62996C4.90379 5.8844 4.9157 6.15732 4.92365 6.4487C4.93557 6.73598 4.94153 7.02941 4.94153 7.329V12.5H4V3.5H5.16201L9.89348 11.0349H9.9352C9.92725 10.8912 9.91732 10.6881 9.9054 10.4254C9.89348 10.1587 9.88156 9.87346 9.86965 9.56977C9.8617 9.26197 9.85773 8.97674 9.85773 8.71409V3.5H10.8112V12.5Z"></path><path transform="translate(246.47607421875,6.5)" fill="#6F6F6F" d="M20 12.5H18.832L14.0827 4.94049H14.035C14.0469 5.14159 14.0608 5.37141 14.0767 5.62996C14.0926 5.8844 14.1045 6.15732 14.1125 6.4487C14.1244 6.73598 14.1304 7.02941 14.1304 7.329V12.5H13.1888V3.5H14.3508L19.0823 11.0349H19.124C19.1161 10.8912 19.1061 10.6881 19.0942 10.4254C19.0823 10.1587 19.0704 9.87346 19.0585 9.56977C19.0505 9.26197 19.0466 8.97674 19.0466 8.71409V3.5H20V12.5Z"></path><text x="107.84228515625" y="19.25" style="font-family: &quot;Open Sans&quot;, sans-serif; font-size: 13px; fill: rgb(153, 153, 153);">character varying(255)</text></svg><svg x="786.3958214929921" y="573.7386722762061"><rect x="0" y="0" width="280.47607421875" height="32" fill="#F2F2F2"></rect><text x="10" y="19.25" style="font-family: &quot;Open Sans&quot;, sans-serif; font-size: 13px; fill: rgb(111, 111, 111);">orcid</text><text x="135.84228515625" y="19.25" style="font-family: &quot;Open Sans&quot;, sans-serif; font-size: 13px; fill: rgb(153, 153, 153);">character varying(255)</text></svg><svg x="786.3958214929921" y="605.7386722762061"><rect x="0" y="0" width="280.47607421875" height="32" fill="#F2F2F2"></rect><text x="10" y="19.25" style="font-family: &quot;Open Sans&quot;, sans-serif; font-size: 13px; fill: rgb(111, 111, 111);">user_id</text><text x="227.61669921875" y="19.25" style="font-family: &quot;Open Sans&quot;, sans-serif; font-size: 13px; fill: rgb(153, 153, 153);">integer</text></svg><svg x="786.3958214929921" y="637.7386722762061"><rect x="0" y="0" width="280.47607421875" height="32" fill="#F2F2F2"></rect><text x="10" y="19.25" style="font-family: &quot;Open Sans&quot;, sans-serif; font-size: 13px; fill: rgb(111, 111, 111);">created_by_id</text><text x="227.61669921875" y="19.25" style="font-family: &quot;Open Sans&quot;, sans-serif; font-size: 13px; fill: rgb(153, 153, 153);">integer</text></svg><svg x="786.3958214929921" y="669.7386722762061"><rect x="0" y="0" width="280.47607421875" height="32" fill="#F2F2F2"></rect><text x="10" y="19.25" style="font-family: &quot;Open Sans&quot;, sans-serif; font-size: 13px; fill: rgb(111, 111, 111);">updated_by_id</text><text x="227.61669921875" y="19.25" style="font-family: &quot;Open Sans&quot;, sans-serif; font-size: 13px; fill: rgb(153, 153, 153);">integer</text></svg></svg>