<svg xmlns="http://www.w3.org/2000/svg" width="1104.476" height="576"><svg x="251.817" y="-2" width="168.183" height="397"><path d="M135.183 50H102.59q-10 0-10 10v300q0 10-10 10H32h50.591q10 0 10-10V60q0-10 10-10h32.592zm0 0h10M32 370H22M135.183 46v8M22 366l9 4-9 4" fill="none" stroke="#9B9CA4"/><text x="134.178" y="45" font-family="&quot;Open Sans&quot;,sans-serif" font-size="14" font-weight="400" fill="transparent">1</text><text x="25" y="365" font-family="&quot;Open Sans&quot;,sans-serif" font-size="14" font-weight="400" fill="transparent">*</text></svg><svg x="251.817" y="-10" width="45" height="501"><path d="M38 50h2q2 0 2 2v417q0 5-5 5h-5 5q5 0 5-5V52q0-2-2-2h-2zm-6 0H22m10 424H22M38 50l-.058.585-.17.563-.278.519-.373.454-.454.373-.519.278-.563.17L35 53l-.585-.058-.563-.17-.519-.278-.454-.373-.373-.454-.278-.519-.17-.563L32 50l.058-.585.17-.563.278-.519.373-.454.454-.373.519-.278.563-.17L35 47l.585.058.563.17.519.278.454.373.373.454.278.519.17.563L38 50M22 470l9 4-9 4" fill="none" stroke="#9B9CA4"/><text x="25" y="45" font-family="&quot;Open Sans&quot;,sans-serif" font-size="14" font-weight="400" fill="transparent">0..1</text><text x="25" y="469" font-family="&quot;Open Sans&quot;,sans-serif" font-size="14" font-weight="400" fill="transparent">*</text></svg><svg x="251.817" y="6" width="590.183" height="490.001"><path d="M557.183 50h-26.091q-10 0-10 10v393q0 10-10 10H87q-10 0-10-10v-49q0-10-10-10H32h35q10 0 10 10v49q0 10 10 10h424.092q10 0 10-10V60q0-10 10-10h26.091zm0 0h10M32 394H22M557.183 46v8M22 390l9 4-9 4" fill="none" stroke="#9B9CA4"/><text x="556.178" y="45" font-family="&quot;Open Sans&quot;,sans-serif" font-size="14" font-weight="400" fill="transparent">1</text><text x="25" y="389" font-family="&quot;Open Sans&quot;,sans-serif" font-size="14" font-weight="400" fill="transparent">*</text></svg><svg x="665.321" y="-10" width="176.679" height="309"><path d="M137.68 50H97.84q-10 0-10 10v212q0 10-10 10H32h45.84q10 0 10-10V60q0-10 10-10h39.84zm6 0h10M32 282H22M143.68 50l-.058.585-.171.563-.277.519-.373.454-.455.373-.519.278-.562.17-.586.058-.585-.058-.563-.17-.518-.278-.455-.373-.373-.454-.277-.519-.171-.563-.058-.585.058-.585.17-.563.278-.519.373-.454.455-.373.518-.278.563-.17.585-.058.586.058.562.17.52.278.454.373.373.454.277.519.17.563.058.585M22 278l9 4-9 4" fill="none" stroke="#9B9CA4"/><text x="127.314" y="45" font-family="&quot;Open Sans&quot;,sans-serif" font-size="14" font-weight="400" fill="transparent">0..1</text><text x="25" y="277" font-family="&quot;Open Sans&quot;,sans-serif" font-size="14" font-weight="400" fill="transparent">*</text></svg><svg x="251.817" y="6" width="168.183" height="233"><path d="M32 50H104.591q10 0 10 10v136.704q0 5.296 5.296 5.296h15.296-15.296q-5.296 0-5.296-5.296V60q0-10-10-10H32zm0 0H22m113.183 152h10M32 46v8m113.183 144l-9 4 9 4" fill="none" stroke="#9B9CA4"/><text x="25" y="45" font-family="&quot;Open Sans&quot;,sans-serif" font-size="14" font-weight="400" fill="transparent">1</text><text x="134.472" y="197" font-family="&quot;Open Sans&quot;,sans-serif" font-size="14" font-weight="400" fill="transparent">*</text></svg><svg x="665.321" y="-2" width="45" height="269"><path d="M38 50h2q2 0 2 2v185q0 5-5 5h-5 5q5 0 5-5V52q0-2-2-2h-2zm-6 0H22m10 192H22M38 50l-.058.585-.17.563-.278.519-.373.454-.454.373-.519.278-.563.17L35 53l-.585-.058-.563-.17-.519-.278-.454-.373-.373-.454-.278-.519-.17-.563L32 50l.058-.585.17-.563.278-.519.373-.454.454-.373.519-.278.563-.17L35 47l.585.058.563.17.519.278.454.373.373.454.278.519.17.563L38 50M22 238l9 4-9 4" fill="none" stroke="#9B9CA4"/><text x="25" y="45" font-family="&quot;Open Sans&quot;,sans-serif" font-size="14" font-weight="400" fill="transparent">0..1</text><text x="25" y="237" font-family="&quot;Open Sans&quot;,sans-serif" font-size="14" font-weight="400" fill="transparent">*</text></svg><svg x="665.321" y="-2" width="84" height="337"><path d="M38 50h13.5q9.5 0 9.5 9.5v237q0 9.5-9.5 9.5H32h19.5q9.5 0 9.5-9.5v-237q0-9.5-9.5-9.5H38zm-6 0H22m10 256H22M38 50l-.058.585-.17.563-.278.519-.373.454-.454.373-.519.278-.563.17L35 53l-.585-.058-.563-.17-.519-.278-.454-.373-.373-.454-.278-.519-.17-.563L32 50l.058-.585.17-.563.278-.519.373-.454.454-.373.519-.278.563-.17L35 47l.585.058.563.17.519.278.454.373.373.454.278.519.17.563L38 50M22 302l9 4-9 4" fill="none" stroke="#9B9CA4"/><text x="25" y="45" font-family="&quot;Open Sans&quot;,sans-serif" font-size="14" font-weight="400" fill="transparent">0..1</text><text x="25" y="301" font-family="&quot;Open Sans&quot;,sans-serif" font-size="14" font-weight="400" fill="transparent">*</text></svg><svg x="251.817" y="-10" width="168.183" height="373"><path d="M38 50h17.591q10 0 10 10v276q0 10 10 10h59.592H75.59q-10 0-10-10V60q0-10-10-10H38zm-6 0H22m113.183 296h10M38 50l-.058.585-.17.563-.278.519-.373.454-.454.373-.519.278-.563.17L35 53l-.585-.058-.563-.17-.519-.278-.454-.373-.373-.454-.278-.519-.17-.563L32 50l.058-.585.17-.563.278-.519.373-.454.454-.373.519-.278.563-.17L35 47l.585.058.563.17.519.278.454.373.373.454.278.519.17.563L38 50m107.183 292l-9 4 9 4" fill="none" stroke="#9B9CA4"/><text x="25" y="45" font-family="&quot;Open Sans&quot;,sans-serif" font-size="14" font-weight="400" fill="transparent">0..1</text><text x="134.472" y="341" font-family="&quot;Open Sans&quot;,sans-serif" font-size="14" font-weight="400" fill="transparent">*</text></svg><svg><path fill="#316896" d="M0 0h273.817v32H0z"/><text x="10" y="19.25" font-family="&quot;Open Sans&quot;,sans-serif" font-size="13" font-weight="700" fill="#fff">keys</text></svg><svg y="32"><path fill="#F2F2F2" d="M0 0h273.817v32H0z"/><text x="10" y="19.25" font-family="&quot;Open Sans&quot;,sans-serif" font-size="13" font-weight="700" fill="#6f6f6f">id</text><path fill="#6F6F6F" d="M32.756 10.234a2.953 2.953 0 11-1.1 5.695l-.868.868h-.657v.984h-.984v.985h-1.969v-1.97l2.752-2.75a2.953 2.953 0 012.826-3.81zm0-.984a3.937 3.937 0 00-3.9 4.477l-2.518 2.518a.493.493 0 00-.144.348v2.665c0 .272.22.492.492.492h2.953c.272 0 .492-.22.492-.492v-.492h.493c.271 0 .492-.22.492-.493v-.41l.821-.823a3.937 3.937 0 10.82-7.79zm0 2.953a.984.984 0 101.97 0 .984.984 0 00-1.97 0z"/><path fill="#DEDEDE" d="M241.817 6.5h20s2 0 2 2v12s0 2-2 2h-20s-2 0-2-2v-12s0-2 2-2"/><path fill="#6F6F6F" d="M250.629 19h-1.168l-4.75-7.56h-.047c.011.202.025.431.041.69.016.254.028.527.036.819.012.287.018.58.018.88V19h-.942v-9h1.162l4.732 7.535h.042a157.13 157.13 0 01-.066-1.465 33.296 33.296 0 01-.012-.856V10h.954v9zM259.817 19h-1.168l-4.749-7.56h-.048l.042.69c.016.254.028.527.036.819.012.287.018.58.018.88V19h-.942v-9h1.162l4.732 7.535h.041a158.366 158.366 0 01-.066-1.465 33.065 33.065 0 01-.011-.856V10h.953v9z"/><text x="198.125" y="19.25" font-family="&quot;Open Sans&quot;,sans-serif" font-size="13" font-weight="700" fill="#999">bigint</text></svg><svg y="64"><path fill="#F2F2F2" d="M0 0h273.817v32H0z"/><text x="10" y="19.25" font-family="&quot;Open Sans&quot;,sans-serif" font-size="13" fill="#6f6f6f">created_at</text><text x="183.424" y="19.25" font-family="&quot;Open Sans&quot;,sans-serif" font-size="13" fill="#999">timestamp(0)</text></svg><svg y="96"><path fill="#F2F2F2" d="M0 0h273.817v32H0z"/><text x="10" y="19.25" font-family="&quot;Open Sans&quot;,sans-serif" font-size="13" fill="#6f6f6f">updated_at</text><text x="183.424" y="19.25" font-family="&quot;Open Sans&quot;,sans-serif" font-size="13" fill="#999">timestamp(0)</text></svg><svg y="128"><path fill="#F2F2F2" d="M0 0h273.817v32H0z"/><text x="10" y="19.25" font-family="&quot;Open Sans&quot;,sans-serif" font-size="13" fill="#6f6f6f">guid</text><path fill="#DEDEDE" d="M241.817 6.5h20s2 0 2 2v12s0 2-2 2h-20s-2 0-2-2v-12s0-2 2-2"/><path fill="#6F6F6F" d="M250.629 19h-1.168l-4.75-7.56h-.047c.011.202.025.431.041.69.016.254.028.527.036.819.012.287.018.58.018.88V19h-.942v-9h1.162l4.732 7.535h.042a157.13 157.13 0 01-.066-1.465 33.296 33.296 0 01-.012-.856V10h.954v9zM259.817 19h-1.168l-4.749-7.56h-.048l.042.69c.016.254.028.527.036.819.012.287.018.58.018.88V19h-.942v-9h1.162l4.732 7.535h.041a158.366 158.366 0 01-.066-1.465 33.065 33.065 0 01-.011-.856V10h.953v9z"/><text x="208.637" y="19.25" font-family="&quot;Open Sans&quot;,sans-serif" font-size="13" fill="#999">uuid</text></svg><svg y="160"><path fill="#F2F2F2" d="M0 0h273.817v32H0z"/><text x="10" y="19.25" font-family="&quot;Open Sans&quot;,sans-serif" font-size="13" fill="#6f6f6f">version</text><path fill="#DEDEDE" d="M241.817 6.5h20s2 0 2 2v12s0 2-2 2h-20s-2 0-2-2v-12s0-2 2-2"/><path fill="#6F6F6F" d="M250.629 19h-1.168l-4.75-7.56h-.047c.011.202.025.431.041.69.016.254.028.527.036.819.012.287.018.58.018.88V19h-.942v-9h1.162l4.732 7.535h.042a157.13 157.13 0 01-.066-1.465 33.296 33.296 0 01-.012-.856V10h.954v9zM259.817 19h-1.168l-4.749-7.56h-.048l.042.69c.016.254.028.527.036.819.012.287.018.58.018.88V19h-.942v-9h1.162l4.732 7.535h.041a158.366 158.366 0 01-.066-1.465 33.065 33.065 0 01-.011-.856V10h.953v9z"/><text x="192.958" y="19.25" font-family="&quot;Open Sans&quot;,sans-serif" font-size="13" fill="#999">integer</text></svg><svg y="192"><path fill="#F2F2F2" d="M0 0h273.817v32H0z"/><text x="10" y="19.25" font-family="&quot;Open Sans&quot;,sans-serif" font-size="13" fill="#6f6f6f">title</text><path fill="#DEDEDE" d="M241.817 6.5h20s2 0 2 2v12s0 2-2 2h-20s-2 0-2-2v-12s0-2 2-2"/><path fill="#6F6F6F" d="M250.629 19h-1.168l-4.75-7.56h-.047c.011.202.025.431.041.69.016.254.028.527.036.819.012.287.018.58.018.88V19h-.942v-9h1.162l4.732 7.535h.042a157.13 157.13 0 01-.066-1.465 33.296 33.296 0 01-.012-.856V10h.954v9zM259.817 19h-1.168l-4.749-7.56h-.048l.042.69c.016.254.028.527.036.819.012.287.018.58.018.88V19h-.942v-9h1.162l4.732 7.535h.041a158.366 158.366 0 01-.066-1.465 33.065 33.065 0 01-.011-.856V10h.953v9z"/><text x="101.184" y="19.25" font-family="&quot;Open Sans&quot;,sans-serif" font-size="13" fill="#999">character varying(255)</text></svg><svg y="224"><path fill="#F2F2F2" d="M0 0h273.817v32H0z"/><text x="10" y="19.25" font-family="&quot;Open Sans&quot;,sans-serif" font-size="13" fill="#6f6f6f">author</text><text x="129.184" y="19.25" font-family="&quot;Open Sans&quot;,sans-serif" font-size="13" fill="#999">character varying(255)</text></svg><svg y="256"><path fill="#F2F2F2" d="M0 0h273.817v32H0z"/><text x="10" y="19.25" font-family="&quot;Open Sans&quot;,sans-serif" font-size="13" fill="#6f6f6f">description</text><text x="240.445" y="19.25" font-family="&quot;Open Sans&quot;,sans-serif" font-size="13" fill="#999">text</text></svg><svg y="288"><path fill="#F2F2F2" d="M0 0h273.817v32H0z"/><text x="10" y="19.25" font-family="&quot;Open Sans&quot;,sans-serif" font-size="13" fill="#6f6f6f">notes</text><text x="240.445" y="19.25" font-family="&quot;Open Sans&quot;,sans-serif" font-size="13" fill="#999">text</text></svg><svg y="320"><path fill="#F2F2F2" d="M0 0h273.817v32H0z"/><text x="10" y="19.25" font-family="&quot;Open Sans&quot;,sans-serif" font-size="13" fill="#6f6f6f">modified_from_source</text><text x="214.445" y="19.25" font-family="&quot;Open Sans&quot;,sans-serif" font-size="13" fill="#999">boolean</text></svg><svg y="352"><path fill="#F2F2F2" d="M0 0h273.817v32H0z"/><text x="10" y="19.25" font-family="&quot;Open Sans&quot;,sans-serif" font-size="13" fill="#6f6f6f">first_step_id</text><path fill="#DEDEDE" d="M241.817 6.5h20s2 0 2 2v12s0 2-2 2h-20s-2 0-2-2v-12s0-2 2-2"/><path fill="#6F6F6F" d="M250.629 19h-1.168l-4.75-7.56h-.047c.011.202.025.431.041.69.016.254.028.527.036.819.012.287.018.58.018.88V19h-.942v-9h1.162l4.732 7.535h.042a157.13 157.13 0 01-.066-1.465 33.296 33.296 0 01-.012-.856V10h.954v9zM259.817 19h-1.168l-4.749-7.56h-.048l.042.69c.016.254.028.527.036.819.012.287.018.58.018.88V19h-.942v-9h1.162l4.732 7.535h.041a158.366 158.366 0 01-.066-1.465 33.065 33.065 0 01-.011-.856V10h.953v9z"/><text x="192.958" y="19.25" font-family="&quot;Open Sans&quot;,sans-serif" font-size="13" fill="#999">integer</text></svg><svg y="384"><path fill="#F2F2F2" d="M0 0h273.817v32H0z"/><text x="10" y="19.25" font-family="&quot;Open Sans&quot;,sans-serif" font-size="13" fill="#6f6f6f">taxonomic_scope_id</text><path fill="#DEDEDE" d="M241.817 6.5h20s2 0 2 2v12s0 2-2 2h-20s-2 0-2-2v-12s0-2 2-2"/><path fill="#6F6F6F" d="M250.629 19h-1.168l-4.75-7.56h-.047c.011.202.025.431.041.69.016.254.028.527.036.819.012.287.018.58.018.88V19h-.942v-9h1.162l4.732 7.535h.042a157.13 157.13 0 01-.066-1.465 33.296 33.296 0 01-.012-.856V10h.954v9zM259.817 19h-1.168l-4.749-7.56h-.048l.042.69c.016.254.028.527.036.819.012.287.018.58.018.88V19h-.942v-9h1.162l4.732 7.535h.041a158.366 158.366 0 01-.066-1.465 33.065 33.065 0 01-.011-.856V10h.953v9z"/><text x="192.958" y="19.25" font-family="&quot;Open Sans&quot;,sans-serif" font-size="13" fill="#999">integer</text></svg><svg y="416"><path fill="#F2F2F2" d="M0 0h273.817v32H0z"/><text x="10" y="19.25" font-family="&quot;Open Sans&quot;,sans-serif" font-size="13" fill="#6f6f6f">project_id</text><path fill="#DEDEDE" d="M241.817 6.5h20s2 0 2 2v12s0 2-2 2h-20s-2 0-2-2v-12s0-2 2-2"/><path fill="#6F6F6F" d="M250.629 19h-1.168l-4.75-7.56h-.047c.011.202.025.431.041.69.016.254.028.527.036.819.012.287.018.58.018.88V19h-.942v-9h1.162l4.732 7.535h.042a157.13 157.13 0 01-.066-1.465 33.296 33.296 0 01-.012-.856V10h.954v9zM259.817 19h-1.168l-4.749-7.56h-.048l.042.69c.016.254.028.527.036.819.012.287.018.58.018.88V19h-.942v-9h1.162l4.732 7.535h.041a158.366 158.366 0 01-.066-1.465 33.065 33.065 0 01-.011-.856V10h.953v9z"/><text x="192.958" y="19.25" font-family="&quot;Open Sans&quot;,sans-serif" font-size="13" fill="#999">integer</text></svg><svg y="448"><path fill="#F2F2F2" d="M0 0h273.817v32H0z"/><text x="10" y="19.25" font-family="&quot;Open Sans&quot;,sans-serif" font-size="13" fill="#6f6f6f">subkey_of_id</text><text x="220.958" y="19.25" font-family="&quot;Open Sans&quot;,sans-serif" font-size="13" fill="#999">integer</text></svg><svg y="480"><path fill="#F2F2F2" d="M0 0h273.817v32H0z"/><text x="10" y="19.25" font-family="&quot;Open Sans&quot;,sans-serif" font-size="13" fill="#6f6f6f">source_id</text><text x="220.958" y="19.25" font-family="&quot;Open Sans&quot;,sans-serif" font-size="13" fill="#999">integer</text></svg><svg y="512"><path fill="#F2F2F2" d="M0 0h273.817v32H0z"/><text x="10" y="19.25" font-family="&quot;Open Sans&quot;,sans-serif" font-size="13" fill="#6f6f6f">created_by_id</text><text x="220.958" y="19.25" font-family="&quot;Open Sans&quot;,sans-serif" font-size="13" fill="#999">integer</text></svg><svg y="544"><path fill="#F2F2F2" d="M0 0h273.817v32H0z"/><text x="10" y="19.25" font-family="&quot;Open Sans&quot;,sans-serif" font-size="13" fill="#6f6f6f">updated_by_id</text><text x="220.958" y="19.25" font-family="&quot;Open Sans&quot;,sans-serif" font-size="13" fill="#999">integer</text></svg><svg x="397"><path fill="#316896" d="M0 0h290.321v32H0z"/><text x="10" y="19.25" font-family="&quot;Open Sans&quot;,sans-serif" font-size="13" font-weight="700" fill="#fff">leads</text></svg><svg x="397" y="32"><path fill="#F2F2F2" d="M0 0h290.321v32H0z"/><text x="10" y="19.25" font-family="&quot;Open Sans&quot;,sans-serif" font-size="13" font-weight="700" fill="#6f6f6f">id</text><path fill="#6F6F6F" d="M32.756 10.234a2.953 2.953 0 11-1.1 5.695l-.868.868h-.657v.984h-.984v.985h-1.969v-1.97l2.752-2.75a2.953 2.953 0 012.826-3.81zm0-.984a3.937 3.937 0 00-3.9 4.477l-2.518 2.518a.493.493 0 00-.144.348v2.665c0 .272.22.492.492.492h2.953c.272 0 .492-.22.492-.492v-.492h.493c.271 0 .492-.22.492-.493v-.41l.821-.823a3.937 3.937 0 10.82-7.79zm0 2.953a.984.984 0 101.97 0 .984.984 0 00-1.97 0z"/><path fill="#DEDEDE" d="M258.32 6.5h20s2 0 2 2v12s0 2-2 2h-20s-2 0-2-2v-12s0-2 2-2"/><path fill="#6F6F6F" d="M267.132 19h-1.168l-4.75-7.56h-.047l.042.69c.016.254.028.527.035.819.012.287.018.58.018.88V19h-.941v-9h1.162l4.731 7.535h.042a157.13 157.13 0 01-.066-1.465 33.296 33.296 0 01-.011-.856V10h.953v9zM276.32 19h-1.167l-4.75-7.56h-.047l.042.69c.015.254.027.527.035.819.012.287.018.58.018.88V19h-.941v-9h1.162l4.731 7.535h.042a158.366 158.366 0 01-.066-1.465 33.065 33.065 0 01-.012-.856V10h.954v9z"/><text x="214.628" y="19.25" font-family="&quot;Open Sans&quot;,sans-serif" font-size="13" font-weight="700" fill="#999">bigint</text></svg><svg x="397" y="64"><path fill="#F2F2F2" d="M0 0h290.321v32H0z"/><text x="10" y="19.25" font-family="&quot;Open Sans&quot;,sans-serif" font-size="13" fill="#6f6f6f">created_at</text><text x="199.928" y="19.25" font-family="&quot;Open Sans&quot;,sans-serif" font-size="13" fill="#999">timestamp(0)</text></svg><svg x="397" y="96"><path fill="#F2F2F2" d="M0 0h290.321v32H0z"/><text x="10" y="19.25" font-family="&quot;Open Sans&quot;,sans-serif" font-size="13" fill="#6f6f6f">updated_at</text><text x="199.928" y="19.25" font-family="&quot;Open Sans&quot;,sans-serif" font-size="13" fill="#999">timestamp(0)</text></svg><svg x="397" y="128"><path fill="#F2F2F2" d="M0 0h290.321v32H0z"/><text x="10" y="19.25" font-family="&quot;Open Sans&quot;,sans-serif" font-size="13" fill="#6f6f6f">node_name</text><text x="145.687" y="19.25" font-family="&quot;Open Sans&quot;,sans-serif" font-size="13" fill="#999">character varying(255)</text></svg><svg x="397" y="160"><path fill="#F2F2F2" d="M0 0h290.321v32H0z"/><text x="10" y="19.25" font-family="&quot;Open Sans&quot;,sans-serif" font-size="13" fill="#6f6f6f">lead_text</text><path fill="#DEDEDE" d="M258.32 6.5h20s2 0 2 2v12s0 2-2 2h-20s-2 0-2-2v-12s0-2 2-2"/><path fill="#6F6F6F" d="M267.132 19h-1.168l-4.75-7.56h-.047l.042.69c.016.254.028.527.035.819.012.287.018.58.018.88V19h-.941v-9h1.162l4.731 7.535h.042a157.13 157.13 0 01-.066-1.465 33.296 33.296 0 01-.011-.856V10h.953v9zM276.32 19h-1.167l-4.75-7.56h-.047l.042.69c.015.254.027.527.035.819.012.287.018.58.018.88V19h-.941v-9h1.162l4.731 7.535h.042a158.366 158.366 0 01-.066-1.465 33.065 33.065 0 01-.012-.856V10h.954v9z"/><text x="228.949" y="19.25" font-family="&quot;Open Sans&quot;,sans-serif" font-size="13" fill="#999">text</text></svg><svg x="397" y="192"><path fill="#F2F2F2" d="M0 0h290.321v32H0z"/><text x="10" y="19.25" font-family="&quot;Open Sans&quot;,sans-serif" font-size="13" fill="#6f6f6f">key_id</text><path fill="#DEDEDE" d="M258.32 6.5h20s2 0 2 2v12s0 2-2 2h-20s-2 0-2-2v-12s0-2 2-2"/><path fill="#6F6F6F" d="M267.132 19h-1.168l-4.75-7.56h-.047l.042.69c.016.254.028.527.035.819.012.287.018.58.018.88V19h-.941v-9h1.162l4.731 7.535h.042a157.13 157.13 0 01-.066-1.465 33.296 33.296 0 01-.011-.856V10h.953v9zM276.32 19h-1.167l-4.75-7.56h-.047l.042.69c.015.254.027.527.035.819.012.287.018.58.018.88V19h-.941v-9h1.162l4.731 7.535h.042a158.366 158.366 0 01-.066-1.465 33.065 33.065 0 01-.012-.856V10h.954v9z"/><text x="209.461" y="19.25" font-family="&quot;Open Sans&quot;,sans-serif" font-size="13" fill="#999">integer</text></svg><svg x="397" y="224"><path fill="#F2F2F2" d="M0 0h290.321v32H0z"/><text x="10" y="19.25" font-family="&quot;Open Sans&quot;,sans-serif" font-size="13" fill="#6f6f6f">parent_id</text><text x="237.461" y="19.25" font-family="&quot;Open Sans&quot;,sans-serif" font-size="13" fill="#999">integer</text></svg><svg x="397" y="256"><path fill="#F2F2F2" d="M0 0h290.321v32H0z"/><text x="10" y="19.25" font-family="&quot;Open Sans&quot;,sans-serif" font-size="13" fill="#6f6f6f">item_id</text><text x="237.461" y="19.25" font-family="&quot;Open Sans&quot;,sans-serif" font-size="13" fill="#999">integer</text></svg><svg x="397" y="288"><path fill="#F2F2F2" d="M0 0h290.321v32H0z"/><text x="10" y="19.25" font-family="&quot;Open Sans&quot;,sans-serif" font-size="13" fill="#6f6f6f">reticulation_id</text><text x="237.461" y="19.25" font-family="&quot;Open Sans&quot;,sans-serif" font-size="13" fill="#999">integer</text></svg><svg x="397" y="320"><path fill="#F2F2F2" d="M0 0h290.321v32H0z"/><text x="10" y="19.25" font-family="&quot;Open Sans&quot;,sans-serif" font-size="13" fill="#6f6f6f">subkey_id</text><text x="237.461" y="19.25" font-family="&quot;Open Sans&quot;,sans-serif" font-size="13" fill="#999">integer</text></svg><svg x="397" y="352"><path fill="#F2F2F2" d="M0 0h290.321v32H0z"/><text x="10" y="19.25" font-family="&quot;Open Sans&quot;,sans-serif" font-size="13" fill="#6f6f6f">created_by_id</text><text x="237.461" y="19.25" font-family="&quot;Open Sans&quot;,sans-serif" font-size="13" fill="#999">integer</text></svg><svg x="397" y="384"><path fill="#F2F2F2" d="M0 0h290.321v32H0z"/><text x="10" y="19.25" font-family="&quot;Open Sans&quot;,sans-serif" font-size="13" fill="#6f6f6f">updated_by_id</text><text x="237.461" y="19.25" font-family="&quot;Open Sans&quot;,sans-serif" font-size="13" fill="#999">integer</text></svg><svg x="819"><path fill="#316896" d="M0 0h280.476v32H0z"/><text x="10" y="19.25" font-family="&quot;Open Sans&quot;,sans-serif" font-size="13" font-weight="700" fill="#fff">items</text></svg><svg x="819" y="32"><path fill="#F2F2F2" d="M0 0h280.476v32H0z"/><text x="10" y="19.25" font-family="&quot;Open Sans&quot;,sans-serif" font-size="13" font-weight="700" fill="#6f6f6f">id</text><path fill="#6F6F6F" d="M32.756 10.234a2.953 2.953 0 11-1.1 5.695l-.868.868h-.657v.984h-.984v.985h-1.969v-1.97l2.752-2.75a2.953 2.953 0 012.826-3.81zm0-.984a3.937 3.937 0 00-3.9 4.477l-2.518 2.518a.493.493 0 00-.144.348v2.665c0 .272.22.492.492.492h2.953c.272 0 .492-.22.492-.492v-.492h.493c.271 0 .492-.22.492-.493v-.41l.821-.823a3.937 3.937 0 10.82-7.79zm0 2.953a.984.984 0 101.97 0 .984.984 0 00-1.97 0z"/><path fill="#DEDEDE" d="M248.476 6.5h20s2 0 2 2v12s0 2-2 2h-20s-2 0-2-2v-12s0-2 2-2"/><path fill="#6F6F6F" d="M257.287 19h-1.168l-4.75-7.56h-.047l.042.69c.016.254.028.527.036.819.012.287.018.58.018.88V19h-.942v-9h1.162l4.732 7.535h.041a157.13 157.13 0 01-.066-1.465 33.296 33.296 0 01-.011-.856V10h.953v9zM266.476 19h-1.168l-4.75-7.56h-.047l.042.69c.016.254.028.527.036.819.011.287.017.58.017.88V19h-.941v-9h1.162l4.731 7.535h.042a158.366 158.366 0 01-.066-1.465 33.065 33.065 0 01-.011-.856V10h.953v9z"/><text x="204.784" y="19.25" font-family="&quot;Open Sans&quot;,sans-serif" font-size="13" font-weight="700" fill="#999">bigint</text></svg><svg x="819" y="64"><path fill="#F2F2F2" d="M0 0h280.476v32H0z"/><text x="10" y="19.25" font-family="&quot;Open Sans&quot;,sans-serif" font-size="13" fill="#6f6f6f">created_at</text><text x="190.083" y="19.25" font-family="&quot;Open Sans&quot;,sans-serif" font-size="13" fill="#999">timestamp(0)</text></svg><svg x="819" y="96"><path fill="#F2F2F2" d="M0 0h280.476v32H0z"/><text x="10" y="19.25" font-family="&quot;Open Sans&quot;,sans-serif" font-size="13" fill="#6f6f6f">updated_at</text><text x="190.083" y="19.25" font-family="&quot;Open Sans&quot;,sans-serif" font-size="13" fill="#999">timestamp(0)</text></svg><svg x="819" y="128"><path fill="#F2F2F2" d="M0 0h280.476v32H0z"/><text x="10" y="19.25" font-family="&quot;Open Sans&quot;,sans-serif" font-size="13" fill="#6f6f6f">guid</text><path fill="#DEDEDE" d="M248.476 6.5h20s2 0 2 2v12s0 2-2 2h-20s-2 0-2-2v-12s0-2 2-2"/><path fill="#6F6F6F" d="M257.287 19h-1.168l-4.75-7.56h-.047l.042.69c.016.254.028.527.036.819.012.287.018.58.018.88V19h-.942v-9h1.162l4.732 7.535h.041a157.13 157.13 0 01-.066-1.465 33.296 33.296 0 01-.011-.856V10h.953v9zM266.476 19h-1.168l-4.75-7.56h-.047l.042.69c.016.254.028.527.036.819.011.287.017.58.017.88V19h-.941v-9h1.162l4.731 7.535h.042a158.366 158.366 0 01-.066-1.465 33.065 33.065 0 01-.011-.856V10h.953v9z"/><text x="215.295" y="19.25" font-family="&quot;Open Sans&quot;,sans-serif" font-size="13" fill="#999">uuid</text></svg><svg x="819" y="160"><path fill="#F2F2F2" d="M0 0h280.476v32H0z"/><text x="10" y="19.25" font-family="&quot;Open Sans&quot;,sans-serif" font-size="13" fill="#6f6f6f">name</text><path fill="#DEDEDE" d="M248.476 6.5h20s2 0 2 2v12s0 2-2 2h-20s-2 0-2-2v-12s0-2 2-2"/><path fill="#6F6F6F" d="M257.287 19h-1.168l-4.75-7.56h-.047l.042.69c.016.254.028.527.036.819.012.287.018.58.018.88V19h-.942v-9h1.162l4.732 7.535h.041a157.13 157.13 0 01-.066-1.465 33.296 33.296 0 01-.011-.856V10h.953v9zM266.476 19h-1.168l-4.75-7.56h-.047l.042.69c.016.254.028.527.036.819.011.287.017.58.017.88V19h-.941v-9h1.162l4.731 7.535h.042a158.366 158.366 0 01-.066-1.465 33.065 33.065 0 01-.011-.856V10h.953v9z"/><text x="107.842" y="19.25" font-family="&quot;Open Sans&quot;,sans-serif" font-size="13" fill="#999">character varying(255)</text></svg><svg x="819" y="192"><path fill="#F2F2F2" d="M0 0h280.476v32H0z"/><text x="10" y="19.25" font-family="&quot;Open Sans&quot;,sans-serif" font-size="13" fill="#6f6f6f">url</text><text x="135.842" y="19.25" font-family="&quot;Open Sans&quot;,sans-serif" font-size="13" fill="#999">character varying(255)</text></svg><svg x="819" y="224"><path fill="#F2F2F2" d="M0 0h280.476v32H0z"/><text x="10" y="19.25" font-family="&quot;Open Sans&quot;,sans-serif" font-size="13" fill="#6f6f6f">project_id</text><path fill="#DEDEDE" d="M248.476 6.5h20s2 0 2 2v12s0 2-2 2h-20s-2 0-2-2v-12s0-2 2-2"/><path fill="#6F6F6F" d="M257.287 19h-1.168l-4.75-7.56h-.047l.042.69c.016.254.028.527.036.819.012.287.018.58.018.88V19h-.942v-9h1.162l4.732 7.535h.041a157.13 157.13 0 01-.066-1.465 33.296 33.296 0 01-.011-.856V10h.953v9zM266.476 19h-1.168l-4.75-7.56h-.047l.042.69c.016.254.028.527.036.819.011.287.017.58.017.88V19h-.941v-9h1.162l4.731 7.535h.042a158.366 158.366 0 01-.066-1.465 33.065 33.065 0 01-.011-.856V10h.953v9z"/><text x="199.617" y="19.25" font-family="&quot;Open Sans&quot;,sans-serif" font-size="13" fill="#999">integer</text></svg><svg x="819" y="256"><path fill="#F2F2F2" d="M0 0h280.476v32H0z"/><text x="10" y="19.25" font-family="&quot;Open Sans&quot;,sans-serif" font-size="13" fill="#6f6f6f">created_by_id</text><text x="227.617" y="19.25" font-family="&quot;Open Sans&quot;,sans-serif" font-size="13" fill="#999">integer</text></svg><svg x="819" y="288"><path fill="#F2F2F2" d="M0 0h280.476v32H0z"/><text x="10" y="19.25" font-family="&quot;Open Sans&quot;,sans-serif" font-size="13" fill="#6f6f6f">updated_by_id</text><text x="227.617" y="19.25" font-family="&quot;Open Sans&quot;,sans-serif" font-size="13" fill="#999">integer</text></svg></svg>
