<svg xmlns="http://www.w3.org/2000/svg" width="1070.536" height="751.951"><svg x="248.536" y="-2" width="45" height="425.293"><path d="M32 50h5q5 0 5 5v338.293q0 5-5 5h-5 5q5 0 5-5V55q0-5-5-5h-5zm0 0H22m10 348.293H22M32 46v8M22 394.293l9 4-9 4" fill="none" stroke="#9B9CA4"/><text x="25" y="45" font-family="&quot;Open Sans&quot;,sans-serif" font-size="14" font-weight="400" fill="transparent">1</text><text x="25" y="393.293" font-family="&quot;Open Sans&quot;,sans-serif" font-size="14" font-weight="400" fill="transparent">*</text></svg><svg x="248.536" y="378.293" width="162.48" height="136.658"><path d="M129.48 109.658H90.74q-10 0-10-10V60q0-10-10-10H32 70.74q10 0 10 10v39.658q0 10 10 10H129.48zm0 0h10M32 50H22m107.48 55.658v8M22 46l9 4-9 4" fill="none" stroke="#9B9CA4"/><text x="128.475" y="104.658" font-family="&quot;Open Sans&quot;,sans-serif" font-size="14" font-weight="400" fill="transparent">1</text><text x="25" y="45" font-family="&quot;Open Sans&quot;,sans-serif" font-size="14" font-weight="400" fill="transparent">*</text></svg><svg x="366.016" y="190" width="45" height="308.951"><path d="M6 281.95H4q-2 0-2-2V55q0-5 5-5h5-5q-5 0-5 5v224.95q0 2 2 2h2zm6 0h10M12 50h10M12 281.95l-.058.586-.17.563-.278.519-.373.454-.454.373-.519.277-.563.171-.585.058-.585-.058-.563-.17-.519-.278-.454-.373-.373-.454-.278-.52-.17-.562-.058-.585.058-.585.17-.563.278-.519.373-.455.454-.373.519-.277.563-.17.585-.058.585.057.563.171.519.277.454.373.373.455.278.519.17.563.058.585M22 46l-9 4 9 4" fill="none" stroke="#9B9CA4"/><text x="-4.365" y="276.951" font-family="&quot;Open Sans&quot;,sans-serif" font-size="14" font-weight="400" fill="transparent">0..1</text><text x="11.289" y="45" font-family="&quot;Open Sans&quot;,sans-serif" font-size="14" font-weight="400" fill="transparent">*</text></svg><svg x="656.336" y="-2" width="158.383" height="365"><path d="M125.383 50h-5q-5 0-5 5v273q0 10-10 10H32 105.383q10 0 10-10V55q0-5 5-5h5zm0 0h10M32 338H22M125.383 46v8M22 334l9 4-9 4" fill="none" stroke="#9B9CA4"/><text x="124.378" y="45" font-family="&quot;Open Sans&quot;,sans-serif" font-size="14" font-weight="400" fill="transparent">1</text><text x="25" y="333" font-family="&quot;Open Sans&quot;,sans-serif" font-size="14" font-weight="400" fill="transparent">*</text></svg><svg x="76.045" y="348.293"><path fill="#fc8337" d="M0 0h194.491v32H0z"/><text x="10" y="19.25" font-family="&quot;Open Sans&quot;,sans-serif" font-size="13" font-weight="700" fill="#fff">filter_item</text></svg><svg x="76.045" y="380.293"><path fill="#F2F2F2" d="M0 0h194.491v32H0z"/><text x="10" y="19.25" font-family="&quot;Open Sans&quot;,sans-serif" font-size="13" fill="#6f6f6f">filter_id</text><path fill="#DEDEDE" d="M162.49 6.5h20s2 0 2 2v12s0 2-2 2h-20s-2 0-2-2v-12s0-2 2-2"/><path fill="#6F6F6F" d="M171.302 19h-1.168l-4.75-7.56h-.047l.042.69c.016.254.027.527.035.819.012.287.018.58.018.88V19h-.941v-9h1.162l4.731 7.535h.042a157.13 157.13 0 01-.066-1.465 33.296 33.296 0 01-.012-.856V10h.954v9zM180.49 19h-1.167l-4.75-7.56h-.047l.041.69c.016.254.028.527.036.819.012.287.018.58.018.88V19h-.941v-9h1.162l4.731 7.535h.042a158.366 158.366 0 01-.065-1.465 33.065 33.065 0 01-.013-.856V10h.954v9z"/><text x="113.631" y="19.25" font-family="&quot;Open Sans&quot;,sans-serif" font-size="13" fill="#999">integer</text></svg><svg x="76.045" y="412.293"><path fill="#F2F2F2" d="M0 0h194.491v32H0z"/><text x="10" y="19.25" font-family="&quot;Open Sans&quot;,sans-serif" font-size="13" fill="#6f6f6f">item_id</text><path fill="#DEDEDE" d="M162.49 6.5h20s2 0 2 2v12s0 2-2 2h-20s-2 0-2-2v-12s0-2 2-2"/><path fill="#6F6F6F" d="M171.302 19h-1.168l-4.75-7.56h-.047l.042.69c.016.254.027.527.035.819.012.287.018.58.018.88V19h-.941v-9h1.162l4.731 7.535h.042a157.13 157.13 0 01-.066-1.465 33.296 33.296 0 01-.012-.856V10h.954v9zM180.49 19h-1.167l-4.75-7.56h-.047l.041.69c.016.254.028.527.036.819.012.287.018.58.018.88V19h-.941v-9h1.162l4.731 7.535h.042a158.366 158.366 0 01-.065-1.465 33.065 33.065 0 01-.013-.856V10h.954v9z"/><text x="113.631" y="19.25" font-family="&quot;Open Sans&quot;,sans-serif" font-size="13" fill="#999">integer</text></svg><svg><path fill="#316896" d="M0 0h270.536v32H0z"/><text x="10" y="19.25" font-family="&quot;Open Sans&quot;,sans-serif" font-size="13" font-weight="700" fill="#fff">filters</text></svg><svg y="32"><path fill="#F2F2F2" d="M0 0h270.536v32H0z"/><text x="10" y="19.25" font-family="&quot;Open Sans&quot;,sans-serif" font-size="13" font-weight="700" fill="#6f6f6f">id</text><path fill="#6F6F6F" d="M32.756 10.234a2.953 2.953 0 11-1.1 5.695l-.868.868h-.657v.984h-.984v.985h-1.969v-1.97l2.752-2.75a2.953 2.953 0 012.826-3.81zm0-.984a3.937 3.937 0 00-3.9 4.477l-2.518 2.518a.493.493 0 00-.144.348v2.665c0 .272.22.492.492.492h2.953c.272 0 .492-.22.492-.492v-.492h.493c.271 0 .492-.22.492-.493v-.41l.821-.823a3.937 3.937 0 10.82-7.79zm0 2.953a.984.984 0 101.97 0 .984.984 0 00-1.97 0z"/><path fill="#DEDEDE" d="M238.536 6.5h20s2 0 2 2v12s0 2-2 2h-20s-2 0-2-2v-12s0-2 2-2"/><path fill="#6F6F6F" d="M247.347 19h-1.168l-4.75-7.56h-.047l.042.69c.015.254.027.527.035.819.012.287.018.58.018.88V19h-.941v-9h1.162l4.731 7.535h.042a157.13 157.13 0 01-.066-1.465 33.296 33.296 0 01-.012-.856V10h.954v9zM256.536 19h-1.168l-4.75-7.56h-.047l.041.69c.016.254.028.527.036.819.012.287.018.58.018.88V19h-.942v-9h1.162l4.732 7.535h.042a158.366 158.366 0 01-.065-1.465 33.065 33.065 0 01-.013-.856V10h.954v9z"/><text x="194.843" y="19.25" font-family="&quot;Open Sans&quot;,sans-serif" font-size="13" font-weight="700" fill="#999">bigint</text></svg><svg y="64"><path fill="#F2F2F2" d="M0 0h270.536v32H0z"/><text x="10" y="19.25" font-family="&quot;Open Sans&quot;,sans-serif" font-size="13" fill="#6f6f6f">created_at</text><text x="180.143" y="19.25" font-family="&quot;Open Sans&quot;,sans-serif" font-size="13" fill="#999">timestamp(0)</text></svg><svg y="96"><path fill="#F2F2F2" d="M0 0h270.536v32H0z"/><text x="10" y="19.25" font-family="&quot;Open Sans&quot;,sans-serif" font-size="13" fill="#6f6f6f">updated_at</text><text x="180.143" y="19.25" font-family="&quot;Open Sans&quot;,sans-serif" font-size="13" fill="#999">timestamp(0)</text></svg><svg y="128"><path fill="#F2F2F2" d="M0 0h270.536v32H0z"/><text x="10" y="19.25" font-family="&quot;Open Sans&quot;,sans-serif" font-size="13" fill="#6f6f6f">title</text><path fill="#DEDEDE" d="M238.536 6.5h20s2 0 2 2v12s0 2-2 2h-20s-2 0-2-2v-12s0-2 2-2"/><path fill="#6F6F6F" d="M247.347 19h-1.168l-4.75-7.56h-.047l.042.69c.015.254.027.527.035.819.012.287.018.58.018.88V19h-.941v-9h1.162l4.731 7.535h.042a157.13 157.13 0 01-.066-1.465 33.296 33.296 0 01-.012-.856V10h.954v9zM256.536 19h-1.168l-4.75-7.56h-.047l.041.69c.016.254.028.527.036.819.012.287.018.58.018.88V19h-.942v-9h1.162l4.732 7.535h.042a158.366 158.366 0 01-.065-1.465 33.065 33.065 0 01-.013-.856V10h.954v9z"/><text x="97.902" y="19.25" font-family="&quot;Open Sans&quot;,sans-serif" font-size="13" fill="#999">character varying(255)</text></svg><svg y="160"><path fill="#F2F2F2" d="M0 0h270.536v32H0z"/><text x="10" y="19.25" font-family="&quot;Open Sans&quot;,sans-serif" font-size="13" fill="#6f6f6f">items_not_found</text><text x="237.164" y="19.25" font-family="&quot;Open Sans&quot;,sans-serif" font-size="13" fill="#999">text</text></svg><svg y="192"><path fill="#F2F2F2" d="M0 0h270.536v32H0z"/><text x="10" y="19.25" font-family="&quot;Open Sans&quot;,sans-serif" font-size="13" fill="#6f6f6f">is_project_filter</text><text x="211.164" y="19.25" font-family="&quot;Open Sans&quot;,sans-serif" font-size="13" fill="#999">boolean</text></svg><svg y="224"><path fill="#F2F2F2" d="M0 0h270.536v32H0z"/><text x="10" y="19.25" font-family="&quot;Open Sans&quot;,sans-serif" font-size="13" fill="#6f6f6f">project_id</text><path fill="#DEDEDE" d="M238.536 6.5h20s2 0 2 2v12s0 2-2 2h-20s-2 0-2-2v-12s0-2 2-2"/><path fill="#6F6F6F" d="M247.347 19h-1.168l-4.75-7.56h-.047l.042.69c.015.254.027.527.035.819.012.287.018.58.018.88V19h-.941v-9h1.162l4.731 7.535h.042a157.13 157.13 0 01-.066-1.465 33.296 33.296 0 01-.012-.856V10h.954v9zM256.536 19h-1.168l-4.75-7.56h-.047l.041.69c.016.254.028.527.036.819.012.287.018.58.018.88V19h-.942v-9h1.162l4.732 7.535h.042a158.366 158.366 0 01-.065-1.465 33.065 33.065 0 01-.013-.856V10h.954v9z"/><text x="189.676" y="19.25" font-family="&quot;Open Sans&quot;,sans-serif" font-size="13" fill="#999">integer</text></svg><svg y="256"><path fill="#F2F2F2" d="M0 0h270.536v32H0z"/><text x="10" y="19.25" font-family="&quot;Open Sans&quot;,sans-serif" font-size="13" fill="#6f6f6f">created_by_id</text><text x="217.676" y="19.25" font-family="&quot;Open Sans&quot;,sans-serif" font-size="13" fill="#999">integer</text></svg><svg y="288"><path fill="#F2F2F2" d="M0 0h270.536v32H0z"/><text x="10" y="19.25" font-family="&quot;Open Sans&quot;,sans-serif" font-size="13" fill="#6f6f6f">updated_by_id</text><text x="217.676" y="19.25" font-family="&quot;Open Sans&quot;,sans-serif" font-size="13" fill="#999">integer</text></svg><svg x="388.016" y="431.951"><path fill="#316896" d="M0 0h280.476v32H0z"/><text x="10" y="19.25" font-family="&quot;Open Sans&quot;,sans-serif" font-size="13" font-weight="700" fill="#fff">items</text></svg><svg x="388.016" y="463.951"><path fill="#F2F2F2" d="M0 0h280.476v32H0z"/><text x="10" y="19.25" font-family="&quot;Open Sans&quot;,sans-serif" font-size="13" font-weight="700" fill="#6f6f6f">id</text><path fill="#6F6F6F" d="M32.756 10.234a2.953 2.953 0 11-1.1 5.695l-.868.868h-.657v.984h-.984v.985h-1.969v-1.97l2.752-2.75a2.953 2.953 0 012.826-3.81zm0-.984a3.937 3.937 0 00-3.9 4.477l-2.518 2.518a.493.493 0 00-.144.348v2.665c0 .272.22.492.492.492h2.953c.272 0 .492-.22.492-.492v-.492h.493c.271 0 .492-.22.492-.493v-.41l.821-.823a3.937 3.937 0 10.82-7.79zm0 2.953a.984.984 0 101.97 0 .984.984 0 00-1.97 0z"/><path fill="#DEDEDE" d="M248.476 6.5h20s2 0 2 2v12s0 2-2 2h-20s-2 0-2-2v-12s0-2 2-2"/><path fill="#6F6F6F" d="M257.287 19h-1.168l-4.75-7.56h-.047l.042.69c.016.254.028.527.036.819.012.287.018.58.018.88V19h-.942v-9h1.162l4.732 7.535h.041a157.13 157.13 0 01-.066-1.465 33.296 33.296 0 01-.011-.856V10h.953v9zM266.476 19h-1.168l-4.75-7.56h-.047l.042.69c.016.254.028.527.036.819.011.287.017.58.017.88V19h-.941v-9h1.162l4.731 7.535h.042a158.366 158.366 0 01-.066-1.465 33.065 33.065 0 01-.011-.856V10h.953v9z"/><text x="204.784" y="19.25" font-family="&quot;Open Sans&quot;,sans-serif" font-size="13" font-weight="700" fill="#999">bigint</text></svg><svg x="388.016" y="495.951"><path fill="#F2F2F2" d="M0 0h280.476v32H0z"/><text x="10" y="19.25" font-family="&quot;Open Sans&quot;,sans-serif" font-size="13" fill="#6f6f6f">created_at</text><text x="190.083" y="19.25" font-family="&quot;Open Sans&quot;,sans-serif" font-size="13" fill="#999">timestamp(0)</text></svg><svg x="388.016" y="527.951"><path fill="#F2F2F2" d="M0 0h280.476v32H0z"/><text x="10" y="19.25" font-family="&quot;Open Sans&quot;,sans-serif" font-size="13" fill="#6f6f6f">updated_at</text><text x="190.083" y="19.25" font-family="&quot;Open Sans&quot;,sans-serif" font-size="13" fill="#999">timestamp(0)</text></svg><svg x="388.016" y="559.951"><path fill="#F2F2F2" d="M0 0h280.476v32H0z"/><text x="10" y="19.25" font-family="&quot;Open Sans&quot;,sans-serif" font-size="13" fill="#6f6f6f">guid</text><path fill="#DEDEDE" d="M248.476 6.5h20s2 0 2 2v12s0 2-2 2h-20s-2 0-2-2v-12s0-2 2-2"/><path fill="#6F6F6F" d="M257.287 19h-1.168l-4.75-7.56h-.047l.042.69c.016.254.028.527.036.819.012.287.018.58.018.88V19h-.942v-9h1.162l4.732 7.535h.041a157.13 157.13 0 01-.066-1.465 33.296 33.296 0 01-.011-.856V10h.953v9zM266.476 19h-1.168l-4.75-7.56h-.047l.042.69c.016.254.028.527.036.819.011.287.017.58.017.88V19h-.941v-9h1.162l4.731 7.535h.042a158.366 158.366 0 01-.066-1.465 33.065 33.065 0 01-.011-.856V10h.953v9z"/><text x="215.295" y="19.25" font-family="&quot;Open Sans&quot;,sans-serif" font-size="13" fill="#999">uuid</text></svg><svg x="388.016" y="591.951"><path fill="#F2F2F2" d="M0 0h280.476v32H0z"/><text x="10" y="19.25" font-family="&quot;Open Sans&quot;,sans-serif" font-size="13" fill="#6f6f6f">name</text><path fill="#DEDEDE" d="M248.476 6.5h20s2 0 2 2v12s0 2-2 2h-20s-2 0-2-2v-12s0-2 2-2"/><path fill="#6F6F6F" d="M257.287 19h-1.168l-4.75-7.56h-.047l.042.69c.016.254.028.527.036.819.012.287.018.58.018.88V19h-.942v-9h1.162l4.732 7.535h.041a157.13 157.13 0 01-.066-1.465 33.296 33.296 0 01-.011-.856V10h.953v9zM266.476 19h-1.168l-4.75-7.56h-.047l.042.69c.016.254.028.527.036.819.011.287.017.58.017.88V19h-.941v-9h1.162l4.731 7.535h.042a158.366 158.366 0 01-.066-1.465 33.065 33.065 0 01-.011-.856V10h.953v9z"/><text x="107.842" y="19.25" font-family="&quot;Open Sans&quot;,sans-serif" font-size="13" fill="#999">character varying(255)</text></svg><svg x="388.016" y="623.951"><path fill="#F2F2F2" d="M0 0h280.476v32H0z"/><text x="10" y="19.25" font-family="&quot;Open Sans&quot;,sans-serif" font-size="13" fill="#6f6f6f">url</text><text x="135.842" y="19.25" font-family="&quot;Open Sans&quot;,sans-serif" font-size="13" fill="#999">character varying(255)</text></svg><svg x="388.016" y="655.951"><path fill="#F2F2F2" d="M0 0h280.476v32H0z"/><text x="10" y="19.25" font-family="&quot;Open Sans&quot;,sans-serif" font-size="13" fill="#6f6f6f">project_id</text><path fill="#DEDEDE" d="M248.476 6.5h20s2 0 2 2v12s0 2-2 2h-20s-2 0-2-2v-12s0-2 2-2"/><path fill="#6F6F6F" d="M257.287 19h-1.168l-4.75-7.56h-.047l.042.69c.016.254.028.527.036.819.012.287.018.58.018.88V19h-.942v-9h1.162l4.732 7.535h.041a157.13 157.13 0 01-.066-1.465 33.296 33.296 0 01-.011-.856V10h.953v9zM266.476 19h-1.168l-4.75-7.56h-.047l.042.69c.016.254.028.527.036.819.011.287.017.58.017.88V19h-.941v-9h1.162l4.731 7.535h.042a158.366 158.366 0 01-.066-1.465 33.065 33.065 0 01-.011-.856V10h.953v9z"/><text x="199.617" y="19.25" font-family="&quot;Open Sans&quot;,sans-serif" font-size="13" fill="#999">integer</text></svg><svg x="388.016" y="687.951"><path fill="#F2F2F2" d="M0 0h280.476v32H0z"/><text x="10" y="19.25" font-family="&quot;Open Sans&quot;,sans-serif" font-size="13" fill="#6f6f6f">created_by_id</text><text x="227.617" y="19.25" font-family="&quot;Open Sans&quot;,sans-serif" font-size="13" fill="#999">integer</text></svg><svg x="388.016" y="719.951"><path fill="#F2F2F2" d="M0 0h280.476v32H0z"/><text x="10" y="19.25" font-family="&quot;Open Sans&quot;,sans-serif" font-size="13" fill="#6f6f6f">updated_by_id</text><text x="227.617" y="19.25" font-family="&quot;Open Sans&quot;,sans-serif" font-size="13" fill="#999">integer</text></svg><svg x="791.719"><path fill="#316896" d="M0 0h273.817v32H0z"/><text x="10" y="19.25" font-family="&quot;Open Sans&quot;,sans-serif" font-size="13" font-weight="700" fill="#fff">keys</text></svg><svg x="791.719" y="32"><path fill="#F2F2F2" d="M0 0h273.817v32H0z"/><text x="10" y="19.25" font-family="&quot;Open Sans&quot;,sans-serif" font-size="13" font-weight="700" fill="#6f6f6f">id</text><path fill="#6F6F6F" d="M32.756 10.234a2.953 2.953 0 11-1.1 5.695l-.868.868h-.657v.984h-.984v.985h-1.969v-1.97l2.752-2.75a2.953 2.953 0 012.826-3.81zm0-.984a3.937 3.937 0 00-3.9 4.477l-2.518 2.518a.493.493 0 00-.144.348v2.665c0 .272.22.492.492.492h2.953c.272 0 .492-.22.492-.492v-.492h.493c.271 0 .492-.22.492-.493v-.41l.821-.823a3.937 3.937 0 10.82-7.79zm0 2.953a.984.984 0 101.97 0 .984.984 0 00-1.97 0z"/><path fill="#DEDEDE" d="M241.817 6.5h20s2 0 2 2v12s0 2-2 2h-20s-2 0-2-2v-12s0-2 2-2"/><path fill="#6F6F6F" d="M250.629 19h-1.168l-4.75-7.56h-.047c.011.202.025.431.041.69.016.254.028.527.036.819.012.287.018.58.018.88V19h-.942v-9h1.162l4.732 7.535h.042a157.13 157.13 0 01-.066-1.465 33.296 33.296 0 01-.012-.856V10h.954v9zM259.817 19h-1.168l-4.749-7.56h-.048l.042.69c.016.254.028.527.036.819.012.287.018.58.018.88V19h-.942v-9h1.162l4.732 7.535h.041a158.366 158.366 0 01-.066-1.465 33.065 33.065 0 01-.011-.856V10h.953v9z"/><text x="198.125" y="19.25" font-family="&quot;Open Sans&quot;,sans-serif" font-size="13" font-weight="700" fill="#999">bigint</text></svg><svg x="791.719" y="64"><path fill="#F2F2F2" d="M0 0h273.817v32H0z"/><text x="10" y="19.25" font-family="&quot;Open Sans&quot;,sans-serif" font-size="13" fill="#6f6f6f">created_at</text><text x="183.424" y="19.25" font-family="&quot;Open Sans&quot;,sans-serif" font-size="13" fill="#999">timestamp(0)</text></svg><svg x="791.719" y="96"><path fill="#F2F2F2" d="M0 0h273.817v32H0z"/><text x="10" y="19.25" font-family="&quot;Open Sans&quot;,sans-serif" font-size="13" fill="#6f6f6f">updated_at</text><text x="183.424" y="19.25" font-family="&quot;Open Sans&quot;,sans-serif" font-size="13" fill="#999">timestamp(0)</text></svg><svg x="791.719" y="128"><path fill="#F2F2F2" d="M0 0h273.817v32H0z"/><text x="10" y="19.25" font-family="&quot;Open Sans&quot;,sans-serif" font-size="13" fill="#6f6f6f">guid</text><path fill="#DEDEDE" d="M241.817 6.5h20s2 0 2 2v12s0 2-2 2h-20s-2 0-2-2v-12s0-2 2-2"/><path fill="#6F6F6F" d="M250.629 19h-1.168l-4.75-7.56h-.047c.011.202.025.431.041.69.016.254.028.527.036.819.012.287.018.58.018.88V19h-.942v-9h1.162l4.732 7.535h.042a157.13 157.13 0 01-.066-1.465 33.296 33.296 0 01-.012-.856V10h.954v9zM259.817 19h-1.168l-4.749-7.56h-.048l.042.69c.016.254.028.527.036.819.012.287.018.58.018.88V19h-.942v-9h1.162l4.732 7.535h.041a158.366 158.366 0 01-.066-1.465 33.065 33.065 0 01-.011-.856V10h.953v9z"/><text x="208.637" y="19.25" font-family="&quot;Open Sans&quot;,sans-serif" font-size="13" fill="#999">uuid</text></svg><svg x="791.719" y="160"><path fill="#F2F2F2" d="M0 0h273.817v32H0z"/><text x="10" y="19.25" font-family="&quot;Open Sans&quot;,sans-serif" font-size="13" fill="#6f6f6f">version</text><path fill="#DEDEDE" d="M241.817 6.5h20s2 0 2 2v12s0 2-2 2h-20s-2 0-2-2v-12s0-2 2-2"/><path fill="#6F6F6F" d="M250.629 19h-1.168l-4.75-7.56h-.047c.011.202.025.431.041.69.016.254.028.527.036.819.012.287.018.58.018.88V19h-.942v-9h1.162l4.732 7.535h.042a157.13 157.13 0 01-.066-1.465 33.296 33.296 0 01-.012-.856V10h.954v9zM259.817 19h-1.168l-4.749-7.56h-.048l.042.69c.016.254.028.527.036.819.012.287.018.58.018.88V19h-.942v-9h1.162l4.732 7.535h.041a158.366 158.366 0 01-.066-1.465 33.065 33.065 0 01-.011-.856V10h.953v9z"/><text x="192.958" y="19.25" font-family="&quot;Open Sans&quot;,sans-serif" font-size="13" fill="#999">integer</text></svg><svg x="791.719" y="192"><path fill="#F2F2F2" d="M0 0h273.817v32H0z"/><text x="10" y="19.25" font-family="&quot;Open Sans&quot;,sans-serif" font-size="13" fill="#6f6f6f">title</text><path fill="#DEDEDE" d="M241.817 6.5h20s2 0 2 2v12s0 2-2 2h-20s-2 0-2-2v-12s0-2 2-2"/><path fill="#6F6F6F" d="M250.629 19h-1.168l-4.75-7.56h-.047c.011.202.025.431.041.69.016.254.028.527.036.819.012.287.018.58.018.88V19h-.942v-9h1.162l4.732 7.535h.042a157.13 157.13 0 01-.066-1.465 33.296 33.296 0 01-.012-.856V10h.954v9zM259.817 19h-1.168l-4.749-7.56h-.048l.042.69c.016.254.028.527.036.819.012.287.018.58.018.88V19h-.942v-9h1.162l4.732 7.535h.041a158.366 158.366 0 01-.066-1.465 33.065 33.065 0 01-.011-.856V10h.953v9z"/><text x="101.184" y="19.25" font-family="&quot;Open Sans&quot;,sans-serif" font-size="13" fill="#999">character varying(255)</text></svg><svg x="791.719" y="224"><path fill="#F2F2F2" d="M0 0h273.817v32H0z"/><text x="10" y="19.25" font-family="&quot;Open Sans&quot;,sans-serif" font-size="13" fill="#6f6f6f">author</text><text x="129.184" y="19.25" font-family="&quot;Open Sans&quot;,sans-serif" font-size="13" fill="#999">character varying(255)</text></svg><svg x="791.719" y="256"><path fill="#F2F2F2" d="M0 0h273.817v32H0z"/><text x="10" y="19.25" font-family="&quot;Open Sans&quot;,sans-serif" font-size="13" fill="#6f6f6f">description</text><text x="240.445" y="19.25" font-family="&quot;Open Sans&quot;,sans-serif" font-size="13" fill="#999">text</text></svg><svg x="791.719" y="288"><path fill="#F2F2F2" d="M0 0h273.817v32H0z"/><text x="10" y="19.25" font-family="&quot;Open Sans&quot;,sans-serif" font-size="13" fill="#6f6f6f">notes</text><text x="240.445" y="19.25" font-family="&quot;Open Sans&quot;,sans-serif" font-size="13" fill="#999">text</text></svg><svg x="791.719" y="320"><path fill="#F2F2F2" d="M0 0h273.817v32H0z"/><text x="10" y="19.25" font-family="&quot;Open Sans&quot;,sans-serif" font-size="13" fill="#6f6f6f">modified_from_source</text><text x="214.445" y="19.25" font-family="&quot;Open Sans&quot;,sans-serif" font-size="13" fill="#999">boolean</text></svg><svg x="791.719" y="352"><path fill="#F2F2F2" d="M0 0h273.817v32H0z"/><text x="10" y="19.25" font-family="&quot;Open Sans&quot;,sans-serif" font-size="13" fill="#6f6f6f">first_step_id</text><path fill="#DEDEDE" d="M241.817 6.5h20s2 0 2 2v12s0 2-2 2h-20s-2 0-2-2v-12s0-2 2-2"/><path fill="#6F6F6F" d="M250.629 19h-1.168l-4.75-7.56h-.047c.011.202.025.431.041.69.016.254.028.527.036.819.012.287.018.58.018.88V19h-.942v-9h1.162l4.732 7.535h.042a157.13 157.13 0 01-.066-1.465 33.296 33.296 0 01-.012-.856V10h.954v9zM259.817 19h-1.168l-4.749-7.56h-.048l.042.69c.016.254.028.527.036.819.012.287.018.58.018.88V19h-.942v-9h1.162l4.732 7.535h.041a158.366 158.366 0 01-.066-1.465 33.065 33.065 0 01-.011-.856V10h.953v9z"/><text x="192.958" y="19.25" font-family="&quot;Open Sans&quot;,sans-serif" font-size="13" fill="#999">integer</text></svg><svg x="791.719" y="384"><path fill="#F2F2F2" d="M0 0h273.817v32H0z"/><text x="10" y="19.25" font-family="&quot;Open Sans&quot;,sans-serif" font-size="13" fill="#6f6f6f">taxonomic_scope_id</text><path fill="#DEDEDE" d="M241.817 6.5h20s2 0 2 2v12s0 2-2 2h-20s-2 0-2-2v-12s0-2 2-2"/><path fill="#6F6F6F" d="M250.629 19h-1.168l-4.75-7.56h-.047c.011.202.025.431.041.69.016.254.028.527.036.819.012.287.018.58.018.88V19h-.942v-9h1.162l4.732 7.535h.042a157.13 157.13 0 01-.066-1.465 33.296 33.296 0 01-.012-.856V10h.954v9zM259.817 19h-1.168l-4.749-7.56h-.048l.042.69c.016.254.028.527.036.819.012.287.018.58.018.88V19h-.942v-9h1.162l4.732 7.535h.041a158.366 158.366 0 01-.066-1.465 33.065 33.065 0 01-.011-.856V10h.953v9z"/><text x="192.958" y="19.25" font-family="&quot;Open Sans&quot;,sans-serif" font-size="13" fill="#999">integer</text></svg><svg x="791.719" y="416"><path fill="#F2F2F2" d="M0 0h273.817v32H0z"/><text x="10" y="19.25" font-family="&quot;Open Sans&quot;,sans-serif" font-size="13" fill="#6f6f6f">project_id</text><path fill="#DEDEDE" d="M241.817 6.5h20s2 0 2 2v12s0 2-2 2h-20s-2 0-2-2v-12s0-2 2-2"/><path fill="#6F6F6F" d="M250.629 19h-1.168l-4.75-7.56h-.047c.011.202.025.431.041.69.016.254.028.527.036.819.012.287.018.58.018.88V19h-.942v-9h1.162l4.732 7.535h.042a157.13 157.13 0 01-.066-1.465 33.296 33.296 0 01-.012-.856V10h.954v9zM259.817 19h-1.168l-4.749-7.56h-.048l.042.69c.016.254.028.527.036.819.012.287.018.58.018.88V19h-.942v-9h1.162l4.732 7.535h.041a158.366 158.366 0 01-.066-1.465 33.065 33.065 0 01-.011-.856V10h.953v9z"/><text x="192.958" y="19.25" font-family="&quot;Open Sans&quot;,sans-serif" font-size="13" fill="#999">integer</text></svg><svg x="791.719" y="448"><path fill="#F2F2F2" d="M0 0h273.817v32H0z"/><text x="10" y="19.25" font-family="&quot;Open Sans&quot;,sans-serif" font-size="13" fill="#6f6f6f">subkey_of_id</text><text x="220.958" y="19.25" font-family="&quot;Open Sans&quot;,sans-serif" font-size="13" fill="#999">integer</text></svg><svg x="791.719" y="480"><path fill="#F2F2F2" d="M0 0h273.817v32H0z"/><text x="10" y="19.25" font-family="&quot;Open Sans&quot;,sans-serif" font-size="13" fill="#6f6f6f">source_id</text><text x="220.958" y="19.25" font-family="&quot;Open Sans&quot;,sans-serif" font-size="13" fill="#999">integer</text></svg><svg x="791.719" y="512"><path fill="#F2F2F2" d="M0 0h273.817v32H0z"/><text x="10" y="19.25" font-family="&quot;Open Sans&quot;,sans-serif" font-size="13" fill="#6f6f6f">created_by_id</text><text x="220.958" y="19.25" font-family="&quot;Open Sans&quot;,sans-serif" font-size="13" fill="#999">integer</text></svg><svg x="791.719" y="544"><path fill="#F2F2F2" d="M0 0h273.817v32H0z"/><text x="10" y="19.25" font-family="&quot;Open Sans&quot;,sans-serif" font-size="13" fill="#6f6f6f">updated_by_id</text><text x="220.958" y="19.25" font-family="&quot;Open Sans&quot;,sans-serif" font-size="13" fill="#999">integer</text></svg><svg x="388.016"><path fill="#316896" d="M0 0h290.321v32H0z"/><text x="10" y="19.25" font-family="&quot;Open Sans&quot;,sans-serif" font-size="13" font-weight="700" fill="#fff">leads</text></svg><svg x="388.016" y="32"><path fill="#F2F2F2" d="M0 0h290.321v32H0z"/><text x="10" y="19.25" font-family="&quot;Open Sans&quot;,sans-serif" font-size="13" font-weight="700" fill="#6f6f6f">id</text><path fill="#6F6F6F" d="M32.756 10.234a2.953 2.953 0 11-1.1 5.695l-.868.868h-.657v.984h-.984v.985h-1.969v-1.97l2.752-2.75a2.953 2.953 0 012.826-3.81zm0-.984a3.937 3.937 0 00-3.9 4.477l-2.518 2.518a.493.493 0 00-.144.348v2.665c0 .272.22.492.492.492h2.953c.272 0 .492-.22.492-.492v-.492h.493c.271 0 .492-.22.492-.493v-.41l.821-.823a3.937 3.937 0 10.82-7.79zm0 2.953a.984.984 0 101.97 0 .984.984 0 00-1.97 0z"/><path fill="#DEDEDE" d="M258.32 6.5h20s2 0 2 2v12s0 2-2 2h-20s-2 0-2-2v-12s0-2 2-2"/><path fill="#6F6F6F" d="M267.132 19h-1.168l-4.75-7.56h-.047l.042.69c.016.254.028.527.035.819.012.287.018.58.018.88V19h-.941v-9h1.162l4.731 7.535h.042a157.13 157.13 0 01-.066-1.465 33.296 33.296 0 01-.011-.856V10h.953v9zM276.32 19h-1.167l-4.75-7.56h-.047l.042.69c.015.254.027.527.035.819.012.287.018.58.018.88V19h-.941v-9h1.162l4.731 7.535h.042a158.366 158.366 0 01-.066-1.465 33.065 33.065 0 01-.012-.856V10h.954v9z"/><text x="214.628" y="19.25" font-family="&quot;Open Sans&quot;,sans-serif" font-size="13" font-weight="700" fill="#999">bigint</text></svg><svg x="388.016" y="64"><path fill="#F2F2F2" d="M0 0h290.321v32H0z"/><text x="10" y="19.25" font-family="&quot;Open Sans&quot;,sans-serif" font-size="13" fill="#6f6f6f">created_at</text><text x="199.928" y="19.25" font-family="&quot;Open Sans&quot;,sans-serif" font-size="13" fill="#999">timestamp(0)</text></svg><svg x="388.016" y="96"><path fill="#F2F2F2" d="M0 0h290.321v32H0z"/><text x="10" y="19.25" font-family="&quot;Open Sans&quot;,sans-serif" font-size="13" fill="#6f6f6f">updated_at</text><text x="199.928" y="19.25" font-family="&quot;Open Sans&quot;,sans-serif" font-size="13" fill="#999">timestamp(0)</text></svg><svg x="388.016" y="128"><path fill="#F2F2F2" d="M0 0h290.321v32H0z"/><text x="10" y="19.25" font-family="&quot;Open Sans&quot;,sans-serif" font-size="13" fill="#6f6f6f">node_name</text><text x="145.687" y="19.25" font-family="&quot;Open Sans&quot;,sans-serif" font-size="13" fill="#999">character varying(255)</text></svg><svg x="388.016" y="160"><path fill="#F2F2F2" d="M0 0h290.321v32H0z"/><text x="10" y="19.25" font-family="&quot;Open Sans&quot;,sans-serif" font-size="13" fill="#6f6f6f">lead_text</text><path fill="#DEDEDE" d="M258.32 6.5h20s2 0 2 2v12s0 2-2 2h-20s-2 0-2-2v-12s0-2 2-2"/><path fill="#6F6F6F" d="M267.132 19h-1.168l-4.75-7.56h-.047l.042.69c.016.254.028.527.035.819.012.287.018.58.018.88V19h-.941v-9h1.162l4.731 7.535h.042a157.13 157.13 0 01-.066-1.465 33.296 33.296 0 01-.011-.856V10h.953v9zM276.32 19h-1.167l-4.75-7.56h-.047l.042.69c.015.254.027.527.035.819.012.287.018.58.018.88V19h-.941v-9h1.162l4.731 7.535h.042a158.366 158.366 0 01-.066-1.465 33.065 33.065 0 01-.012-.856V10h.954v9z"/><text x="228.949" y="19.25" font-family="&quot;Open Sans&quot;,sans-serif" font-size="13" fill="#999">text</text></svg><svg x="388.016" y="192"><path fill="#F2F2F2" d="M0 0h290.321v32H0z"/><text x="10" y="19.25" font-family="&quot;Open Sans&quot;,sans-serif" font-size="13" fill="#6f6f6f">parent_id</text><text x="237.461" y="19.25" font-family="&quot;Open Sans&quot;,sans-serif" font-size="13" fill="#999">integer</text></svg><svg x="388.016" y="224"><path fill="#F2F2F2" d="M0 0h290.321v32H0z"/><text x="10" y="19.25" font-family="&quot;Open Sans&quot;,sans-serif" font-size="13" fill="#6f6f6f">item_id</text><text x="237.461" y="19.25" font-family="&quot;Open Sans&quot;,sans-serif" font-size="13" fill="#999">integer</text></svg><svg x="388.016" y="256"><path fill="#F2F2F2" d="M0 0h290.321v32H0z"/><text x="10" y="19.25" font-family="&quot;Open Sans&quot;,sans-serif" font-size="13" fill="#6f6f6f">reticulation_id</text><text x="237.461" y="19.25" font-family="&quot;Open Sans&quot;,sans-serif" font-size="13" fill="#999">integer</text></svg><svg x="388.016" y="288"><path fill="#F2F2F2" d="M0 0h290.321v32H0z"/><text x="10" y="19.25" font-family="&quot;Open Sans&quot;,sans-serif" font-size="13" fill="#6f6f6f">subkey_id</text><text x="237.461" y="19.25" font-family="&quot;Open Sans&quot;,sans-serif" font-size="13" fill="#999">integer</text></svg><svg x="388.016" y="320"><path fill="#F2F2F2" d="M0 0h290.321v32H0z"/><text x="10" y="19.25" font-family="&quot;Open Sans&quot;,sans-serif" font-size="13" fill="#6f6f6f">key_id</text><path fill="#DEDEDE" d="M258.32 6.5h20s2 0 2 2v12s0 2-2 2h-20s-2 0-2-2v-12s0-2 2-2"/><path fill="#6F6F6F" d="M267.132 19h-1.168l-4.75-7.56h-.047l.042.69c.016.254.028.527.035.819.012.287.018.58.018.88V19h-.941v-9h1.162l4.731 7.535h.042a157.13 157.13 0 01-.066-1.465 33.296 33.296 0 01-.011-.856V10h.953v9zM276.32 19h-1.167l-4.75-7.56h-.047l.042.69c.015.254.027.527.035.819.012.287.018.58.018.88V19h-.941v-9h1.162l4.731 7.535h.042a158.366 158.366 0 01-.066-1.465 33.065 33.065 0 01-.012-.856V10h.954v9z"/><text x="209.461" y="19.25" font-family="&quot;Open Sans&quot;,sans-serif" font-size="13" fill="#999">integer</text></svg><svg x="388.016" y="352"><path fill="#F2F2F2" d="M0 0h290.321v32H0z"/><text x="10" y="19.25" font-family="&quot;Open Sans&quot;,sans-serif" font-size="13" fill="#6f6f6f">created_by_id</text><text x="237.461" y="19.25" font-family="&quot;Open Sans&quot;,sans-serif" font-size="13" fill="#999">integer</text></svg><svg x="388.016" y="384"><path fill="#F2F2F2" d="M0 0h290.321v32H0z"/><text x="10" y="19.25" font-family="&quot;Open Sans&quot;,sans-serif" font-size="13" fill="#6f6f6f">updated_by_id</text><text x="237.461" y="19.25" font-family="&quot;Open Sans&quot;,sans-serif" font-size="13" fill="#999">integer</text></svg></svg>
