<svg xmlns="http://www.w3.org/2000/svg" width="1485.408" height="768.398"><svg x="258.476" y="254" width="92.086" height="293.398"><path d="M85.086 266.398h2q2 0 2-2V60q0-10-10-10H32h47.086q10 0 10 10v204.398q0 2-2 2h-2zm-6 0h-10M32 50H22m63.086 216.398l-.057.585-.17.563-.278.518-.373.455-.455.373-.519.277-.562.171-.586.058-.585-.058-.563-.17-.518-.278-.455-.373-.373-.455-.277-.518-.17-.563-.059-.585.058-.586.17-.562.278-.519.373-.455.455-.373.518-.277.563-.17.585-.058.586.057.562.171.52.277.454.373.373.455.277.519.17.562.058.586M22 46l9 4-9 4" fill="none" stroke="#9B9CA4"/><text x="72.086" y="261.398" font-family="&quot;Open Sans&quot;,sans-serif" font-size="14" font-weight="400" fill="transparent">0..1</text><text x="25" y="45" font-family="&quot;Open Sans&quot;,sans-serif" font-size="14" font-weight="400" fill="transparent">*</text></svg><svg x="664.729" y="190" width="175.879" height="325.841"><path d="M142.879 298.84h-36.027q-10 0-10-10V60q0-10-10-10H32h54.852q10 0 10 10v228.84q0 10 10 10h36.027zm0 0h10M32 50H22m120.879 244.84v8M22 46l9 4-9 4" fill="none" stroke="#9B9CA4"/><text x="141.874" y="293.841" font-family="&quot;Open Sans&quot;,sans-serif" font-size="14" font-weight="400" fill="transparent">1</text><text x="25" y="45" font-family="&quot;Open Sans&quot;,sans-serif" font-size="14" font-weight="400" fill="transparent">*</text></svg><svg x="1076.084" y="190" width="58.901" height="325.841"><path d="M45.9 298.84h5q5 0 5-5V56.95q0-6.95-6.95-6.95H32h16.95q6.95 0 6.95 6.95v236.89q0 5-5 5h-5zm0 0h-10M32 50H22m23.9 244.84v8M22 46l9 4-9 4" fill="none" stroke="#9B9CA4"/><text x="38.901" y="293.841" font-family="&quot;Open Sans&quot;,sans-serif" font-size="14" font-weight="400" fill="transparent">1</text><text x="25" y="45" font-family="&quot;Open Sans&quot;,sans-serif" font-size="14" font-weight="400" fill="transparent">*</text></svg><svg x="1089.985" y="382" width="139.606" height="133.841"><path d="M32 106.84h27.303q10 0 10-10V60q0-10 10-10h27.303-27.303q-10 0-10 10v36.84q0 10-10 10H32zm0 0H22M106.606 50h10M32 102.84v8M116.606 46l-9 4 9 4" fill="none" stroke="#9B9CA4"/><text x="25" y="101.841" font-family="&quot;Open Sans&quot;,sans-serif" font-size="14" font-weight="400" fill="transparent">1</text><text x="105.895" y="45" font-family="&quot;Open Sans&quot;,sans-serif" font-size="14" font-weight="400" fill="transparent">*</text></svg><svg x="664.079" y="438.841" width="176.529" height="209.937"><path d="M143.53 50h-5q-5 0-5 5v5.937q0 10-10 10H52q-10 0-10 10v97q0 5-5 5h-5 5q5 0 5-5v-97q0-10 10-10h71.53q10 0 10-10V55q0-5 5-5h5zm0 0h10M32 182.937H22M143.53 46v8M22 178.937l9 4-9 4" fill="none" stroke="#9B9CA4"/><text x="142.524" y="45" font-family="&quot;Open Sans&quot;,sans-serif" font-size="14" font-weight="400" fill="transparent">1</text><text x="25" y="177.937" font-family="&quot;Open Sans&quot;,sans-serif" font-size="14" font-weight="400" fill="transparent">*</text></svg><svg x="305.563" y="486.398" width="134.282" height="194.381"><path d="M32 50h24.64q10 0 10 10v97.38q0 10 10 10h24.642H76.64q-10 0-10-10V60q0-10-10-10H32zm0 0H22m79.282 117.38h10M32 46v8m79.282 109.38l-9 4 9 4" fill="none" stroke="#9B9CA4"/><text x="25" y="45" font-family="&quot;Open Sans&quot;,sans-serif" font-size="14" font-weight="400" fill="transparent">1</text><text x="100.571" y="162.381" font-family="&quot;Open Sans&quot;,sans-serif" font-size="14" font-weight="400" fill="transparent">*</text></svg><svg><path fill="#316896" d="M0 0h280.476v32H0z"/><text x="10" y="19.25" font-family="&quot;Open Sans&quot;,sans-serif" font-size="13" font-weight="700" fill="#fff">agents</text></svg><svg y="32"><path fill="#F2F2F2" d="M0 0h280.476v32H0z"/><text x="10" y="19.25" font-family="&quot;Open Sans&quot;,sans-serif" font-size="13" font-weight="700" fill="#6f6f6f">id</text><path fill="#6F6F6F" d="M32.756 10.234a2.953 2.953 0 11-1.1 5.695l-.868.868h-.657v.984h-.984v.985h-1.969v-1.97l2.752-2.75a2.953 2.953 0 012.826-3.81zm0-.984a3.937 3.937 0 00-3.9 4.477l-2.518 2.518a.493.493 0 00-.144.348v2.665c0 .272.22.492.492.492h2.953c.272 0 .492-.22.492-.492v-.492h.493c.271 0 .492-.22.492-.493v-.41l.821-.823a3.937 3.937 0 10.82-7.79zm0 2.953a.984.984 0 101.97 0 .984.984 0 00-1.97 0z"/><path fill="#DEDEDE" d="M248.476 6.5h20s2 0 2 2v12s0 2-2 2h-20s-2 0-2-2v-12s0-2 2-2"/><path fill="#6F6F6F" d="M257.287 19h-1.168l-4.75-7.56h-.047l.042.69c.016.254.028.527.036.819.012.287.018.58.018.88V19h-.942v-9h1.162l4.732 7.535h.041a157.13 157.13 0 01-.066-1.465 33.296 33.296 0 01-.011-.856V10h.953v9zM266.476 19h-1.168l-4.75-7.56h-.047l.042.69c.016.254.028.527.036.819.011.287.017.58.017.88V19h-.941v-9h1.162l4.731 7.535h.042a158.366 158.366 0 01-.066-1.465 33.065 33.065 0 01-.011-.856V10h.953v9z"/><text x="204.784" y="19.25" font-family="&quot;Open Sans&quot;,sans-serif" font-size="13" font-weight="700" fill="#999">bigint</text></svg><svg y="64"><path fill="#F2F2F2" d="M0 0h280.476v32H0z"/><text x="10" y="19.25" font-family="&quot;Open Sans&quot;,sans-serif" font-size="13" fill="#6f6f6f">created_at</text><text x="190.083" y="19.25" font-family="&quot;Open Sans&quot;,sans-serif" font-size="13" fill="#999">timestamp(0)</text></svg><svg y="96"><path fill="#F2F2F2" d="M0 0h280.476v32H0z"/><text x="10" y="19.25" font-family="&quot;Open Sans&quot;,sans-serif" font-size="13" fill="#6f6f6f">updated_at</text><text x="190.083" y="19.25" font-family="&quot;Open Sans&quot;,sans-serif" font-size="13" fill="#999">timestamp(0)</text></svg><svg y="128"><path fill="#F2F2F2" d="M0 0h280.476v32H0z"/><text x="10" y="19.25" font-family="&quot;Open Sans&quot;,sans-serif" font-size="13" fill="#6f6f6f">name</text><path fill="#DEDEDE" d="M248.476 6.5h20s2 0 2 2v12s0 2-2 2h-20s-2 0-2-2v-12s0-2 2-2"/><path fill="#6F6F6F" d="M257.287 19h-1.168l-4.75-7.56h-.047l.042.69c.016.254.028.527.036.819.012.287.018.58.018.88V19h-.942v-9h1.162l4.732 7.535h.041a157.13 157.13 0 01-.066-1.465 33.296 33.296 0 01-.011-.856V10h.953v9zM266.476 19h-1.168l-4.75-7.56h-.047l.042.69c.016.254.028.527.036.819.011.287.017.58.017.88V19h-.941v-9h1.162l4.731 7.535h.042a158.366 158.366 0 01-.066-1.465 33.065 33.065 0 01-.011-.856V10h.953v9z"/><text x="107.842" y="19.25" font-family="&quot;Open Sans&quot;,sans-serif" font-size="13" fill="#999">character varying(255)</text></svg><svg y="160"><path fill="#F2F2F2" d="M0 0h280.476v32H0z"/><text x="10" y="19.25" font-family="&quot;Open Sans&quot;,sans-serif" font-size="13" fill="#6f6f6f">first_name</text><text x="143.275" y="19.25" font-family="&quot;Open Sans&quot;,sans-serif" font-size="13" fill="#999">character varying(64)</text></svg><svg y="192"><path fill="#F2F2F2" d="M0 0h280.476v32H0z"/><text x="10" y="19.25" font-family="&quot;Open Sans&quot;,sans-serif" font-size="13" fill="#6f6f6f">surname</text><text x="143.275" y="19.25" font-family="&quot;Open Sans&quot;,sans-serif" font-size="13" fill="#999">character varying(64)</text></svg><svg y="224"><path fill="#F2F2F2" d="M0 0h280.476v32H0z"/><text x="10" y="19.25" font-family="&quot;Open Sans&quot;,sans-serif" font-size="13" fill="#6f6f6f">email</text><path fill="#DEDEDE" d="M248.476 6.5h20s2 0 2 2v12s0 2-2 2h-20s-2 0-2-2v-12s0-2 2-2"/><path fill="#6F6F6F" d="M257.287 19h-1.168l-4.75-7.56h-.047l.042.69c.016.254.028.527.036.819.012.287.018.58.018.88V19h-.942v-9h1.162l4.732 7.535h.041a157.13 157.13 0 01-.066-1.465 33.296 33.296 0 01-.011-.856V10h.953v9zM266.476 19h-1.168l-4.75-7.56h-.047l.042.69c.016.254.028.527.036.819.011.287.017.58.017.88V19h-.941v-9h1.162l4.731 7.535h.042a158.366 158.366 0 01-.066-1.465 33.065 33.065 0 01-.011-.856V10h.953v9z"/><text x="107.842" y="19.25" font-family="&quot;Open Sans&quot;,sans-serif" font-size="13" fill="#999">character varying(255)</text></svg><svg y="256"><path fill="#F2F2F2" d="M0 0h280.476v32H0z"/><text x="10" y="19.25" font-family="&quot;Open Sans&quot;,sans-serif" font-size="13" fill="#6f6f6f">orcid</text><text x="135.842" y="19.25" font-family="&quot;Open Sans&quot;,sans-serif" font-size="13" fill="#999">character varying(255)</text></svg><svg y="288"><path fill="#F2F2F2" d="M0 0h280.476v32H0z"/><text x="10" y="19.25" font-family="&quot;Open Sans&quot;,sans-serif" font-size="13" fill="#6f6f6f">user_id</text><text x="227.617" y="19.25" font-family="&quot;Open Sans&quot;,sans-serif" font-size="13" fill="#999">integer</text></svg><svg y="320"><path fill="#F2F2F2" d="M0 0h280.476v32H0z"/><text x="10" y="19.25" font-family="&quot;Open Sans&quot;,sans-serif" font-size="13" fill="#6f6f6f">created_by_id</text><text x="227.617" y="19.25" font-family="&quot;Open Sans&quot;,sans-serif" font-size="13" fill="#999">integer</text></svg><svg y="352"><path fill="#F2F2F2" d="M0 0h280.476v32H0z"/><text x="10" y="19.25" font-family="&quot;Open Sans&quot;,sans-serif" font-size="13" fill="#6f6f6f">updated_by_id</text><text x="227.617" y="19.25" font-family="&quot;Open Sans&quot;,sans-serif" font-size="13" fill="#999">integer</text></svg><svg x="416.194"><path fill="#316896" d="M0 0h270.536v32H0z"/><text x="10" y="19.25" font-family="&quot;Open Sans&quot;,sans-serif" font-size="13" font-weight="700" fill="#fff">filters</text></svg><svg x="416.194" y="32"><path fill="#F2F2F2" d="M0 0h270.536v32H0z"/><text x="10" y="19.25" font-family="&quot;Open Sans&quot;,sans-serif" font-size="13" font-weight="700" fill="#6f6f6f">id</text><path fill="#6F6F6F" d="M32.756 10.234a2.953 2.953 0 11-1.1 5.695l-.868.868h-.657v.984h-.984v.985h-1.969v-1.97l2.752-2.75a2.953 2.953 0 012.826-3.81zm0-.984a3.937 3.937 0 00-3.9 4.477l-2.518 2.518a.493.493 0 00-.144.348v2.665c0 .272.22.492.492.492h2.953c.272 0 .492-.22.492-.492v-.492h.493c.271 0 .492-.22.492-.493v-.41l.821-.823a3.937 3.937 0 10.82-7.79zm0 2.953a.984.984 0 101.97 0 .984.984 0 00-1.97 0z"/><path fill="#DEDEDE" d="M238.536 6.5h20s2 0 2 2v12s0 2-2 2h-20s-2 0-2-2v-12s0-2 2-2"/><path fill="#6F6F6F" d="M247.347 19h-1.168l-4.75-7.56h-.047l.042.69c.015.254.027.527.035.819.012.287.018.58.018.88V19h-.941v-9h1.162l4.731 7.535h.042a157.13 157.13 0 01-.066-1.465 33.296 33.296 0 01-.012-.856V10h.954v9zM256.536 19h-1.168l-4.75-7.56h-.047l.041.69c.016.254.028.527.036.819.012.287.018.58.018.88V19h-.942v-9h1.162l4.732 7.535h.042a158.366 158.366 0 01-.065-1.465 33.065 33.065 0 01-.013-.856V10h.954v9z"/><text x="194.843" y="19.25" font-family="&quot;Open Sans&quot;,sans-serif" font-size="13" font-weight="700" fill="#999">bigint</text></svg><svg x="416.194" y="64"><path fill="#F2F2F2" d="M0 0h270.536v32H0z"/><text x="10" y="19.25" font-family="&quot;Open Sans&quot;,sans-serif" font-size="13" fill="#6f6f6f">created_at</text><text x="180.143" y="19.25" font-family="&quot;Open Sans&quot;,sans-serif" font-size="13" fill="#999">timestamp(0)</text></svg><svg x="416.194" y="96"><path fill="#F2F2F2" d="M0 0h270.536v32H0z"/><text x="10" y="19.25" font-family="&quot;Open Sans&quot;,sans-serif" font-size="13" fill="#6f6f6f">updated_at</text><text x="180.143" y="19.25" font-family="&quot;Open Sans&quot;,sans-serif" font-size="13" fill="#999">timestamp(0)</text></svg><svg x="416.194" y="128"><path fill="#F2F2F2" d="M0 0h270.536v32H0z"/><text x="10" y="19.25" font-family="&quot;Open Sans&quot;,sans-serif" font-size="13" fill="#6f6f6f">title</text><path fill="#DEDEDE" d="M238.536 6.5h20s2 0 2 2v12s0 2-2 2h-20s-2 0-2-2v-12s0-2 2-2"/><path fill="#6F6F6F" d="M247.347 19h-1.168l-4.75-7.56h-.047l.042.69c.015.254.027.527.035.819.012.287.018.58.018.88V19h-.941v-9h1.162l4.731 7.535h.042a157.13 157.13 0 01-.066-1.465 33.296 33.296 0 01-.012-.856V10h.954v9zM256.536 19h-1.168l-4.75-7.56h-.047l.041.69c.016.254.028.527.036.819.012.287.018.58.018.88V19h-.942v-9h1.162l4.732 7.535h.042a158.366 158.366 0 01-.065-1.465 33.065 33.065 0 01-.013-.856V10h.954v9z"/><text x="97.902" y="19.25" font-family="&quot;Open Sans&quot;,sans-serif" font-size="13" fill="#999">character varying(255)</text></svg><svg x="416.194" y="160"><path fill="#F2F2F2" d="M0 0h270.536v32H0z"/><text x="10" y="19.25" font-family="&quot;Open Sans&quot;,sans-serif" font-size="13" fill="#6f6f6f">items_not_found</text><text x="237.164" y="19.25" font-family="&quot;Open Sans&quot;,sans-serif" font-size="13" fill="#999">text</text></svg><svg x="416.194" y="192"><path fill="#F2F2F2" d="M0 0h270.536v32H0z"/><text x="10" y="19.25" font-family="&quot;Open Sans&quot;,sans-serif" font-size="13" fill="#6f6f6f">is_project_filter</text><text x="211.164" y="19.25" font-family="&quot;Open Sans&quot;,sans-serif" font-size="13" fill="#999">boolean</text></svg><svg x="416.194" y="224"><path fill="#F2F2F2" d="M0 0h270.536v32H0z"/><text x="10" y="19.25" font-family="&quot;Open Sans&quot;,sans-serif" font-size="13" fill="#6f6f6f">project_id</text><path fill="#DEDEDE" d="M238.536 6.5h20s2 0 2 2v12s0 2-2 2h-20s-2 0-2-2v-12s0-2 2-2"/><path fill="#6F6F6F" d="M247.347 19h-1.168l-4.75-7.56h-.047l.042.69c.015.254.027.527.035.819.012.287.018.58.018.88V19h-.941v-9h1.162l4.731 7.535h.042a157.13 157.13 0 01-.066-1.465 33.296 33.296 0 01-.012-.856V10h.954v9zM256.536 19h-1.168l-4.75-7.56h-.047l.041.69c.016.254.028.527.036.819.012.287.018.58.018.88V19h-.942v-9h1.162l4.732 7.535h.042a158.366 158.366 0 01-.065-1.465 33.065 33.065 0 01-.013-.856V10h.954v9z"/><text x="189.676" y="19.25" font-family="&quot;Open Sans&quot;,sans-serif" font-size="13" fill="#999">integer</text></svg><svg x="416.194" y="256"><path fill="#F2F2F2" d="M0 0h270.536v32H0z"/><text x="10" y="19.25" font-family="&quot;Open Sans&quot;,sans-serif" font-size="13" fill="#6f6f6f">created_by_id</text><text x="217.676" y="19.25" font-family="&quot;Open Sans&quot;,sans-serif" font-size="13" fill="#999">integer</text></svg><svg x="416.194" y="288"><path fill="#F2F2F2" d="M0 0h270.536v32H0z"/><text x="10" y="19.25" font-family="&quot;Open Sans&quot;,sans-serif" font-size="13" fill="#6f6f6f">updated_by_id</text><text x="217.676" y="19.25" font-family="&quot;Open Sans&quot;,sans-serif" font-size="13" fill="#999">integer</text></svg><svg x="817.608"><path fill="#316896" d="M0 0h280.476v32H0z"/><text x="10" y="19.25" font-family="&quot;Open Sans&quot;,sans-serif" font-size="13" font-weight="700" fill="#fff">items</text></svg><svg x="817.608" y="32"><path fill="#F2F2F2" d="M0 0h280.476v32H0z"/><text x="10" y="19.25" font-family="&quot;Open Sans&quot;,sans-serif" font-size="13" font-weight="700" fill="#6f6f6f">id</text><path fill="#6F6F6F" d="M32.756 10.234a2.953 2.953 0 11-1.1 5.695l-.868.868h-.657v.984h-.984v.985h-1.969v-1.97l2.752-2.75a2.953 2.953 0 012.826-3.81zm0-.984a3.937 3.937 0 00-3.9 4.477l-2.518 2.518a.493.493 0 00-.144.348v2.665c0 .272.22.492.492.492h2.953c.272 0 .492-.22.492-.492v-.492h.493c.271 0 .492-.22.492-.493v-.41l.821-.823a3.937 3.937 0 10.82-7.79zm0 2.953a.984.984 0 101.97 0 .984.984 0 00-1.97 0z"/><path fill="#DEDEDE" d="M248.476 6.5h20s2 0 2 2v12s0 2-2 2h-20s-2 0-2-2v-12s0-2 2-2"/><path fill="#6F6F6F" d="M257.287 19h-1.168l-4.75-7.56h-.047l.042.69c.016.254.028.527.036.819.012.287.018.58.018.88V19h-.942v-9h1.162l4.732 7.535h.041a157.13 157.13 0 01-.066-1.465 33.296 33.296 0 01-.011-.856V10h.953v9zM266.476 19h-1.168l-4.75-7.56h-.047l.042.69c.016.254.028.527.036.819.011.287.017.58.017.88V19h-.941v-9h1.162l4.731 7.535h.042a158.366 158.366 0 01-.066-1.465 33.065 33.065 0 01-.011-.856V10h.953v9z"/><text x="204.784" y="19.25" font-family="&quot;Open Sans&quot;,sans-serif" font-size="13" font-weight="700" fill="#999">bigint</text></svg><svg x="817.608" y="64"><path fill="#F2F2F2" d="M0 0h280.476v32H0z"/><text x="10" y="19.25" font-family="&quot;Open Sans&quot;,sans-serif" font-size="13" fill="#6f6f6f">created_at</text><text x="190.083" y="19.25" font-family="&quot;Open Sans&quot;,sans-serif" font-size="13" fill="#999">timestamp(0)</text></svg><svg x="817.608" y="96"><path fill="#F2F2F2" d="M0 0h280.476v32H0z"/><text x="10" y="19.25" font-family="&quot;Open Sans&quot;,sans-serif" font-size="13" fill="#6f6f6f">updated_at</text><text x="190.083" y="19.25" font-family="&quot;Open Sans&quot;,sans-serif" font-size="13" fill="#999">timestamp(0)</text></svg><svg x="817.608" y="128"><path fill="#F2F2F2" d="M0 0h280.476v32H0z"/><text x="10" y="19.25" font-family="&quot;Open Sans&quot;,sans-serif" font-size="13" fill="#6f6f6f">guid</text><path fill="#DEDEDE" d="M248.476 6.5h20s2 0 2 2v12s0 2-2 2h-20s-2 0-2-2v-12s0-2 2-2"/><path fill="#6F6F6F" d="M257.287 19h-1.168l-4.75-7.56h-.047l.042.69c.016.254.028.527.036.819.012.287.018.58.018.88V19h-.942v-9h1.162l4.732 7.535h.041a157.13 157.13 0 01-.066-1.465 33.296 33.296 0 01-.011-.856V10h.953v9zM266.476 19h-1.168l-4.75-7.56h-.047l.042.69c.016.254.028.527.036.819.011.287.017.58.017.88V19h-.941v-9h1.162l4.731 7.535h.042a158.366 158.366 0 01-.066-1.465 33.065 33.065 0 01-.011-.856V10h.953v9z"/><text x="215.295" y="19.25" font-family="&quot;Open Sans&quot;,sans-serif" font-size="13" fill="#999">uuid</text></svg><svg x="817.608" y="160"><path fill="#F2F2F2" d="M0 0h280.476v32H0z"/><text x="10" y="19.25" font-family="&quot;Open Sans&quot;,sans-serif" font-size="13" fill="#6f6f6f">name</text><path fill="#DEDEDE" d="M248.476 6.5h20s2 0 2 2v12s0 2-2 2h-20s-2 0-2-2v-12s0-2 2-2"/><path fill="#6F6F6F" d="M257.287 19h-1.168l-4.75-7.56h-.047l.042.69c.016.254.028.527.036.819.012.287.018.58.018.88V19h-.942v-9h1.162l4.732 7.535h.041a157.13 157.13 0 01-.066-1.465 33.296 33.296 0 01-.011-.856V10h.953v9zM266.476 19h-1.168l-4.75-7.56h-.047l.042.69c.016.254.028.527.036.819.011.287.017.58.017.88V19h-.941v-9h1.162l4.731 7.535h.042a158.366 158.366 0 01-.066-1.465 33.065 33.065 0 01-.011-.856V10h.953v9z"/><text x="107.842" y="19.25" font-family="&quot;Open Sans&quot;,sans-serif" font-size="13" fill="#999">character varying(255)</text></svg><svg x="817.608" y="192"><path fill="#F2F2F2" d="M0 0h280.476v32H0z"/><text x="10" y="19.25" font-family="&quot;Open Sans&quot;,sans-serif" font-size="13" fill="#6f6f6f">url</text><text x="135.842" y="19.25" font-family="&quot;Open Sans&quot;,sans-serif" font-size="13" fill="#999">character varying(255)</text></svg><svg x="817.608" y="224"><path fill="#F2F2F2" d="M0 0h280.476v32H0z"/><text x="10" y="19.25" font-family="&quot;Open Sans&quot;,sans-serif" font-size="13" fill="#6f6f6f">project_id</text><path fill="#DEDEDE" d="M248.476 6.5h20s2 0 2 2v12s0 2-2 2h-20s-2 0-2-2v-12s0-2 2-2"/><path fill="#6F6F6F" d="M257.287 19h-1.168l-4.75-7.56h-.047l.042.69c.016.254.028.527.036.819.012.287.018.58.018.88V19h-.942v-9h1.162l4.732 7.535h.041a157.13 157.13 0 01-.066-1.465 33.296 33.296 0 01-.011-.856V10h.953v9zM266.476 19h-1.168l-4.75-7.56h-.047l.042.69c.016.254.028.527.036.819.011.287.017.58.017.88V19h-.941v-9h1.162l4.731 7.535h.042a158.366 158.366 0 01-.066-1.465 33.065 33.065 0 01-.011-.856V10h.953v9z"/><text x="199.617" y="19.25" font-family="&quot;Open Sans&quot;,sans-serif" font-size="13" fill="#999">integer</text></svg><svg x="817.608" y="256"><path fill="#F2F2F2" d="M0 0h280.476v32H0z"/><text x="10" y="19.25" font-family="&quot;Open Sans&quot;,sans-serif" font-size="13" fill="#6f6f6f">created_by_id</text><text x="227.617" y="19.25" font-family="&quot;Open Sans&quot;,sans-serif" font-size="13" fill="#999">integer</text></svg><svg x="817.608" y="288"><path fill="#F2F2F2" d="M0 0h280.476v32H0z"/><text x="10" y="19.25" font-family="&quot;Open Sans&quot;,sans-serif" font-size="13" fill="#6f6f6f">updated_by_id</text><text x="227.617" y="19.25" font-family="&quot;Open Sans&quot;,sans-serif" font-size="13" fill="#999">integer</text></svg><svg x="1206.591"><path fill="#316896" d="M0 0h273.817v32H0z"/><text x="10" y="19.25" font-family="&quot;Open Sans&quot;,sans-serif" font-size="13" font-weight="700" fill="#fff">keys</text></svg><svg x="1206.591" y="32"><path fill="#F2F2F2" d="M0 0h273.817v32H0z"/><text x="10" y="19.25" font-family="&quot;Open Sans&quot;,sans-serif" font-size="13" font-weight="700" fill="#6f6f6f">id</text><path fill="#6F6F6F" d="M32.756 10.234a2.953 2.953 0 11-1.1 5.695l-.868.868h-.657v.984h-.984v.985h-1.969v-1.97l2.752-2.75a2.953 2.953 0 012.826-3.81zm0-.984a3.937 3.937 0 00-3.9 4.477l-2.518 2.518a.493.493 0 00-.144.348v2.665c0 .272.22.492.492.492h2.953c.272 0 .492-.22.492-.492v-.492h.493c.271 0 .492-.22.492-.493v-.41l.821-.823a3.937 3.937 0 10.82-7.79zm0 2.953a.984.984 0 101.97 0 .984.984 0 00-1.97 0z"/><path fill="#DEDEDE" d="M241.817 6.5h20s2 0 2 2v12s0 2-2 2h-20s-2 0-2-2v-12s0-2 2-2"/><path fill="#6F6F6F" d="M250.629 19h-1.168l-4.75-7.56h-.047c.011.202.025.431.041.69.016.254.028.527.036.819.012.287.018.58.018.88V19h-.942v-9h1.162l4.732 7.535h.042a157.13 157.13 0 01-.066-1.465 33.296 33.296 0 01-.012-.856V10h.954v9zM259.817 19h-1.168l-4.749-7.56h-.048l.042.69c.016.254.028.527.036.819.012.287.018.58.018.88V19h-.942v-9h1.162l4.732 7.535h.041a158.366 158.366 0 01-.066-1.465 33.065 33.065 0 01-.011-.856V10h.953v9z"/><text x="198.125" y="19.25" font-family="&quot;Open Sans&quot;,sans-serif" font-size="13" font-weight="700" fill="#999">bigint</text></svg><svg x="1206.591" y="64"><path fill="#F2F2F2" d="M0 0h273.817v32H0z"/><text x="10" y="19.25" font-family="&quot;Open Sans&quot;,sans-serif" font-size="13" fill="#6f6f6f">created_at</text><text x="183.424" y="19.25" font-family="&quot;Open Sans&quot;,sans-serif" font-size="13" fill="#999">timestamp(0)</text></svg><svg x="1206.591" y="96"><path fill="#F2F2F2" d="M0 0h273.817v32H0z"/><text x="10" y="19.25" font-family="&quot;Open Sans&quot;,sans-serif" font-size="13" fill="#6f6f6f">updated_at</text><text x="183.424" y="19.25" font-family="&quot;Open Sans&quot;,sans-serif" font-size="13" fill="#999">timestamp(0)</text></svg><svg x="1206.591" y="128"><path fill="#F2F2F2" d="M0 0h273.817v32H0z"/><text x="10" y="19.25" font-family="&quot;Open Sans&quot;,sans-serif" font-size="13" fill="#6f6f6f">guid</text><path fill="#DEDEDE" d="M241.817 6.5h20s2 0 2 2v12s0 2-2 2h-20s-2 0-2-2v-12s0-2 2-2"/><path fill="#6F6F6F" d="M250.629 19h-1.168l-4.75-7.56h-.047c.011.202.025.431.041.69.016.254.028.527.036.819.012.287.018.58.018.88V19h-.942v-9h1.162l4.732 7.535h.042a157.13 157.13 0 01-.066-1.465 33.296 33.296 0 01-.012-.856V10h.954v9zM259.817 19h-1.168l-4.749-7.56h-.048l.042.69c.016.254.028.527.036.819.012.287.018.58.018.88V19h-.942v-9h1.162l4.732 7.535h.041a158.366 158.366 0 01-.066-1.465 33.065 33.065 0 01-.011-.856V10h.953v9z"/><text x="208.637" y="19.25" font-family="&quot;Open Sans&quot;,sans-serif" font-size="13" fill="#999">uuid</text></svg><svg x="1206.591" y="160"><path fill="#F2F2F2" d="M0 0h273.817v32H0z"/><text x="10" y="19.25" font-family="&quot;Open Sans&quot;,sans-serif" font-size="13" fill="#6f6f6f">version</text><path fill="#DEDEDE" d="M241.817 6.5h20s2 0 2 2v12s0 2-2 2h-20s-2 0-2-2v-12s0-2 2-2"/><path fill="#6F6F6F" d="M250.629 19h-1.168l-4.75-7.56h-.047c.011.202.025.431.041.69.016.254.028.527.036.819.012.287.018.58.018.88V19h-.942v-9h1.162l4.732 7.535h.042a157.13 157.13 0 01-.066-1.465 33.296 33.296 0 01-.012-.856V10h.954v9zM259.817 19h-1.168l-4.749-7.56h-.048l.042.69c.016.254.028.527.036.819.012.287.018.58.018.88V19h-.942v-9h1.162l4.732 7.535h.041a158.366 158.366 0 01-.066-1.465 33.065 33.065 0 01-.011-.856V10h.953v9z"/><text x="192.958" y="19.25" font-family="&quot;Open Sans&quot;,sans-serif" font-size="13" fill="#999">integer</text></svg><svg x="1206.591" y="192"><path fill="#F2F2F2" d="M0 0h273.817v32H0z"/><text x="10" y="19.25" font-family="&quot;Open Sans&quot;,sans-serif" font-size="13" fill="#6f6f6f">title</text><path fill="#DEDEDE" d="M241.817 6.5h20s2 0 2 2v12s0 2-2 2h-20s-2 0-2-2v-12s0-2 2-2"/><path fill="#6F6F6F" d="M250.629 19h-1.168l-4.75-7.56h-.047c.011.202.025.431.041.69.016.254.028.527.036.819.012.287.018.58.018.88V19h-.942v-9h1.162l4.732 7.535h.042a157.13 157.13 0 01-.066-1.465 33.296 33.296 0 01-.012-.856V10h.954v9zM259.817 19h-1.168l-4.749-7.56h-.048l.042.69c.016.254.028.527.036.819.012.287.018.58.018.88V19h-.942v-9h1.162l4.732 7.535h.041a158.366 158.366 0 01-.066-1.465 33.065 33.065 0 01-.011-.856V10h.953v9z"/><text x="101.184" y="19.25" font-family="&quot;Open Sans&quot;,sans-serif" font-size="13" fill="#999">character varying(255)</text></svg><svg x="1206.591" y="224"><path fill="#F2F2F2" d="M0 0h273.817v32H0z"/><text x="10" y="19.25" font-family="&quot;Open Sans&quot;,sans-serif" font-size="13" fill="#6f6f6f">author</text><text x="129.184" y="19.25" font-family="&quot;Open Sans&quot;,sans-serif" font-size="13" fill="#999">character varying(255)</text></svg><svg x="1206.591" y="256"><path fill="#F2F2F2" d="M0 0h273.817v32H0z"/><text x="10" y="19.25" font-family="&quot;Open Sans&quot;,sans-serif" font-size="13" fill="#6f6f6f">description</text><text x="240.445" y="19.25" font-family="&quot;Open Sans&quot;,sans-serif" font-size="13" fill="#999">text</text></svg><svg x="1206.591" y="288"><path fill="#F2F2F2" d="M0 0h273.817v32H0z"/><text x="10" y="19.25" font-family="&quot;Open Sans&quot;,sans-serif" font-size="13" fill="#6f6f6f">notes</text><text x="240.445" y="19.25" font-family="&quot;Open Sans&quot;,sans-serif" font-size="13" fill="#999">text</text></svg><svg x="1206.591" y="320"><path fill="#F2F2F2" d="M0 0h273.817v32H0z"/><text x="10" y="19.25" font-family="&quot;Open Sans&quot;,sans-serif" font-size="13" fill="#6f6f6f">modified_from_source</text><text x="214.445" y="19.25" font-family="&quot;Open Sans&quot;,sans-serif" font-size="13" fill="#999">boolean</text></svg><svg x="1206.591" y="352"><path fill="#F2F2F2" d="M0 0h273.817v32H0z"/><text x="10" y="19.25" font-family="&quot;Open Sans&quot;,sans-serif" font-size="13" fill="#6f6f6f">first_step_id</text><path fill="#DEDEDE" d="M241.817 6.5h20s2 0 2 2v12s0 2-2 2h-20s-2 0-2-2v-12s0-2 2-2"/><path fill="#6F6F6F" d="M250.629 19h-1.168l-4.75-7.56h-.047c.011.202.025.431.041.69.016.254.028.527.036.819.012.287.018.58.018.88V19h-.942v-9h1.162l4.732 7.535h.042a157.13 157.13 0 01-.066-1.465 33.296 33.296 0 01-.012-.856V10h.954v9zM259.817 19h-1.168l-4.749-7.56h-.048l.042.69c.016.254.028.527.036.819.012.287.018.58.018.88V19h-.942v-9h1.162l4.732 7.535h.041a158.366 158.366 0 01-.066-1.465 33.065 33.065 0 01-.011-.856V10h.953v9z"/><text x="192.958" y="19.25" font-family="&quot;Open Sans&quot;,sans-serif" font-size="13" fill="#999">integer</text></svg><svg x="1206.591" y="384"><path fill="#F2F2F2" d="M0 0h273.817v32H0z"/><text x="10" y="19.25" font-family="&quot;Open Sans&quot;,sans-serif" font-size="13" fill="#6f6f6f">taxonomic_scope_id</text><path fill="#DEDEDE" d="M241.817 6.5h20s2 0 2 2v12s0 2-2 2h-20s-2 0-2-2v-12s0-2 2-2"/><path fill="#6F6F6F" d="M250.629 19h-1.168l-4.75-7.56h-.047c.011.202.025.431.041.69.016.254.028.527.036.819.012.287.018.58.018.88V19h-.942v-9h1.162l4.732 7.535h.042a157.13 157.13 0 01-.066-1.465 33.296 33.296 0 01-.012-.856V10h.954v9zM259.817 19h-1.168l-4.749-7.56h-.048l.042.69c.016.254.028.527.036.819.012.287.018.58.018.88V19h-.942v-9h1.162l4.732 7.535h.041a158.366 158.366 0 01-.066-1.465 33.065 33.065 0 01-.011-.856V10h.953v9z"/><text x="192.958" y="19.25" font-family="&quot;Open Sans&quot;,sans-serif" font-size="13" fill="#999">integer</text></svg><svg x="1206.591" y="416"><path fill="#F2F2F2" d="M0 0h273.817v32H0z"/><text x="10" y="19.25" font-family="&quot;Open Sans&quot;,sans-serif" font-size="13" fill="#6f6f6f">project_id</text><path fill="#DEDEDE" d="M241.817 6.5h20s2 0 2 2v12s0 2-2 2h-20s-2 0-2-2v-12s0-2 2-2"/><path fill="#6F6F6F" d="M250.629 19h-1.168l-4.75-7.56h-.047c.011.202.025.431.041.69.016.254.028.527.036.819.012.287.018.58.018.88V19h-.942v-9h1.162l4.732 7.535h.042a157.13 157.13 0 01-.066-1.465 33.296 33.296 0 01-.012-.856V10h.954v9zM259.817 19h-1.168l-4.749-7.56h-.048l.042.69c.016.254.028.527.036.819.012.287.018.58.018.88V19h-.942v-9h1.162l4.732 7.535h.041a158.366 158.366 0 01-.066-1.465 33.065 33.065 0 01-.011-.856V10h.953v9z"/><text x="192.958" y="19.25" font-family="&quot;Open Sans&quot;,sans-serif" font-size="13" fill="#999">integer</text></svg><svg x="1206.591" y="448"><path fill="#F2F2F2" d="M0 0h273.817v32H0z"/><text x="10" y="19.25" font-family="&quot;Open Sans&quot;,sans-serif" font-size="13" fill="#6f6f6f">subkey_of_id</text><text x="220.958" y="19.25" font-family="&quot;Open Sans&quot;,sans-serif" font-size="13" fill="#999">integer</text></svg><svg x="1206.591" y="480"><path fill="#F2F2F2" d="M0 0h273.817v32H0z"/><text x="10" y="19.25" font-family="&quot;Open Sans&quot;,sans-serif" font-size="13" fill="#6f6f6f">source_id</text><text x="220.958" y="19.25" font-family="&quot;Open Sans&quot;,sans-serif" font-size="13" fill="#999">integer</text></svg><svg x="1206.591" y="512"><path fill="#F2F2F2" d="M0 0h273.817v32H0z"/><text x="10" y="19.25" font-family="&quot;Open Sans&quot;,sans-serif" font-size="13" fill="#6f6f6f">created_by_id</text><text x="220.958" y="19.25" font-family="&quot;Open Sans&quot;,sans-serif" font-size="13" fill="#999">integer</text></svg><svg x="1206.591" y="544"><path fill="#F2F2F2" d="M0 0h273.817v32H0z"/><text x="10" y="19.25" font-family="&quot;Open Sans&quot;,sans-serif" font-size="13" fill="#6f6f6f">updated_by_id</text><text x="220.958" y="19.25" font-family="&quot;Open Sans&quot;,sans-serif" font-size="13" fill="#999">integer</text></svg><svg x="416.844" y="477.778"><path fill="#316896" d="M0 0h269.234v32H0z"/><text x="10" y="19.25" font-family="&quot;Open Sans&quot;,sans-serif" font-size="13" font-weight="700" fill="#fff">project_users</text></svg><svg x="416.844" y="509.778"><path fill="#F2F2F2" d="M0 0h269.234v32H0z"/><text x="10" y="19.25" font-family="&quot;Open Sans&quot;,sans-serif" font-size="13" font-weight="700" fill="#6f6f6f">id</text><path fill="#6F6F6F" d="M32.756 10.234a2.953 2.953 0 11-1.1 5.695l-.868.868h-.657v.984h-.984v.985h-1.969v-1.97l2.752-2.75a2.953 2.953 0 012.826-3.81zm0-.984a3.937 3.937 0 00-3.9 4.477l-2.518 2.518a.493.493 0 00-.144.348v2.665c0 .272.22.492.492.492h2.953c.272 0 .492-.22.492-.492v-.492h.493c.271 0 .492-.22.492-.493v-.41l.821-.823a3.937 3.937 0 10.82-7.79zm0 2.953a.984.984 0 101.97 0 .984.984 0 00-1.97 0z"/><path fill="#DEDEDE" d="M237.234 6.5h20s2 0 2 2v12s0 2-2 2h-20s-2 0-2-2v-12s0-2 2-2"/><path fill="#6F6F6F" d="M246.046 19h-1.168l-4.75-7.56h-.047c.011.202.025.431.041.69.016.254.028.527.036.819.012.287.018.58.018.88V19h-.942v-9h1.162l4.732 7.535h.042a157.13 157.13 0 01-.066-1.465 33.296 33.296 0 01-.012-.856V10h.954v9zM255.234 19h-1.168l-4.749-7.56h-.048l.042.69c.016.254.028.527.036.819.012.287.018.58.018.88V19h-.942v-9h1.162l4.732 7.535h.041a158.366 158.366 0 01-.065-1.465 33.065 33.065 0 01-.012-.856V10h.953v9z"/><text x="193.542" y="19.25" font-family="&quot;Open Sans&quot;,sans-serif" font-size="13" font-weight="700" fill="#999">bigint</text></svg><svg x="416.844" y="541.778"><path fill="#F2F2F2" d="M0 0h269.234v32H0z"/><text x="10" y="19.25" font-family="&quot;Open Sans&quot;,sans-serif" font-size="13" fill="#6f6f6f">created_at</text><text x="178.841" y="19.25" font-family="&quot;Open Sans&quot;,sans-serif" font-size="13" fill="#999">timestamp(0)</text></svg><svg x="416.844" y="573.778"><path fill="#F2F2F2" d="M0 0h269.234v32H0z"/><text x="10" y="19.25" font-family="&quot;Open Sans&quot;,sans-serif" font-size="13" fill="#6f6f6f">updated_at</text><text x="178.841" y="19.25" font-family="&quot;Open Sans&quot;,sans-serif" font-size="13" fill="#999">timestamp(0)</text></svg><svg x="416.844" y="605.778"><path fill="#F2F2F2" d="M0 0h269.234v32H0z"/><text x="10" y="19.25" font-family="&quot;Open Sans&quot;,sans-serif" font-size="13" fill="#6f6f6f">project_id</text><path fill="#DEDEDE" d="M237.234 6.5h20s2 0 2 2v12s0 2-2 2h-20s-2 0-2-2v-12s0-2 2-2"/><path fill="#6F6F6F" d="M246.046 19h-1.168l-4.75-7.56h-.047c.011.202.025.431.041.69.016.254.028.527.036.819.012.287.018.58.018.88V19h-.942v-9h1.162l4.732 7.535h.042a157.13 157.13 0 01-.066-1.465 33.296 33.296 0 01-.012-.856V10h.954v9zM255.234 19h-1.168l-4.749-7.56h-.048l.042.69c.016.254.028.527.036.819.012.287.018.58.018.88V19h-.942v-9h1.162l4.732 7.535h.041a158.366 158.366 0 01-.065-1.465 33.065 33.065 0 01-.012-.856V10h.953v9z"/><text x="188.375" y="19.25" font-family="&quot;Open Sans&quot;,sans-serif" font-size="13" fill="#999">integer</text></svg><svg x="416.844" y="637.778"><path fill="#F2F2F2" d="M0 0h269.234v32H0z"/><text x="10" y="19.25" font-family="&quot;Open Sans&quot;,sans-serif" font-size="13" fill="#6f6f6f">user_id</text><path fill="#DEDEDE" d="M237.234 6.5h20s2 0 2 2v12s0 2-2 2h-20s-2 0-2-2v-12s0-2 2-2"/><path fill="#6F6F6F" d="M246.046 19h-1.168l-4.75-7.56h-.047c.011.202.025.431.041.69.016.254.028.527.036.819.012.287.018.58.018.88V19h-.942v-9h1.162l4.732 7.535h.042a157.13 157.13 0 01-.066-1.465 33.296 33.296 0 01-.012-.856V10h.954v9zM255.234 19h-1.168l-4.749-7.56h-.048l.042.69c.016.254.028.527.036.819.012.287.018.58.018.88V19h-.942v-9h1.162l4.732 7.535h.041a158.366 158.366 0 01-.065-1.465 33.065 33.065 0 01-.012-.856V10h.953v9z"/><text x="188.375" y="19.25" font-family="&quot;Open Sans&quot;,sans-serif" font-size="13" fill="#999">integer</text></svg><svg x="416.844" y="669.778"><path fill="#F2F2F2" d="M0 0h269.234v32H0z"/><text x="10" y="19.25" font-family="&quot;Open Sans&quot;,sans-serif" font-size="13" fill="#6f6f6f">role</text><path fill="#DEDEDE" d="M237.234 6.5h20s2 0 2 2v12s0 2-2 2h-20s-2 0-2-2v-12s0-2 2-2"/><path fill="#6F6F6F" d="M246.046 19h-1.168l-4.75-7.56h-.047c.011.202.025.431.041.69.016.254.028.527.036.819.012.287.018.58.018.88V19h-.942v-9h1.162l4.732 7.535h.042a157.13 157.13 0 01-.066-1.465 33.296 33.296 0 01-.012-.856V10h.954v9zM255.234 19h-1.168l-4.749-7.56h-.048l.042.69c.016.254.028.527.036.819.012.287.018.58.018.88V19h-.942v-9h1.162l4.732 7.535h.041a158.366 158.366 0 01-.065-1.465 33.065 33.065 0 01-.012-.856V10h.953v9z"/><text x="96.601" y="19.25" font-family="&quot;Open Sans&quot;,sans-serif" font-size="13" fill="#999">character varying(255)</text></svg><svg x="416.844" y="701.778"><path fill="#F2F2F2" d="M0 0h269.234v32H0z"/><text x="10" y="19.25" font-family="&quot;Open Sans&quot;,sans-serif" font-size="13" fill="#6f6f6f">created_by_id</text><text x="216.375" y="19.25" font-family="&quot;Open Sans&quot;,sans-serif" font-size="13" fill="#999">integer</text></svg><svg x="416.844" y="733.778"><path fill="#F2F2F2" d="M0 0h269.234v32H0z"/><text x="10" y="19.25" font-family="&quot;Open Sans&quot;,sans-serif" font-size="13" fill="#6f6f6f">updated_by_id</text><text x="216.375" y="19.25" font-family="&quot;Open Sans&quot;,sans-serif" font-size="13" fill="#999">integer</text></svg><svg x="817.608" y="440.841"><path fill="#316896" d="M0 0h294.377v32H0z"/><text x="10" y="19.25" font-family="&quot;Open Sans&quot;,sans-serif" font-size="13" font-weight="700" fill="#fff">projects</text></svg><svg x="817.608" y="472.841"><path fill="#F2F2F2" d="M0 0h294.377v32H0z"/><text x="10" y="19.25" font-family="&quot;Open Sans&quot;,sans-serif" font-size="13" font-weight="700" fill="#6f6f6f">id</text><path fill="#6F6F6F" d="M32.756 10.234a2.953 2.953 0 11-1.1 5.695l-.868.868h-.657v.984h-.984v.985h-1.969v-1.97l2.752-2.75a2.953 2.953 0 012.826-3.81zm0-.984a3.937 3.937 0 00-3.9 4.477l-2.518 2.518a.493.493 0 00-.144.348v2.665c0 .272.22.492.492.492h2.953c.272 0 .492-.22.492-.492v-.492h.493c.271 0 .492-.22.492-.493v-.41l.821-.823a3.937 3.937 0 10.82-7.79zm0 2.953a.984.984 0 101.97 0 .984.984 0 00-1.97 0z"/><path fill="#DEDEDE" d="M262.377 6.5h20s2 0 2 2v12s0 2-2 2h-20s-2 0-2-2v-12s0-2 2-2"/><path fill="#6F6F6F" d="M271.188 19h-1.168l-4.75-7.56h-.047l.042.69c.016.254.028.527.036.819.012.287.017.58.017.88V19h-.941v-9h1.162l4.731 7.535h.042a157.13 157.13 0 01-.066-1.465 33.296 33.296 0 01-.011-.856V10h.953v9zM280.377 19h-1.168l-4.75-7.56h-.047l.042.69c.016.254.027.527.035.819.012.287.018.58.018.88V19h-.941v-9h1.162l4.731 7.535h.042a158.366 158.366 0 01-.066-1.465 33.065 33.065 0 01-.011-.856V10h.953v9z"/><text x="218.685" y="19.25" font-family="&quot;Open Sans&quot;,sans-serif" font-size="13" font-weight="700" fill="#999">bigint</text></svg><svg x="817.608" y="504.841"><path fill="#F2F2F2" d="M0 0h294.377v32H0z"/><text x="10" y="19.25" font-family="&quot;Open Sans&quot;,sans-serif" font-size="13" fill="#6f6f6f">created_at</text><text x="203.984" y="19.25" font-family="&quot;Open Sans&quot;,sans-serif" font-size="13" fill="#999">timestamp(0)</text></svg><svg x="817.608" y="536.841"><path fill="#F2F2F2" d="M0 0h294.377v32H0z"/><text x="10" y="19.25" font-family="&quot;Open Sans&quot;,sans-serif" font-size="13" fill="#6f6f6f">updated_at</text><text x="203.984" y="19.25" font-family="&quot;Open Sans&quot;,sans-serif" font-size="13" fill="#999">timestamp(0)</text></svg><svg x="817.608" y="568.841"><path fill="#F2F2F2" d="M0 0h294.377v32H0z"/><text x="10" y="19.25" font-family="&quot;Open Sans&quot;,sans-serif" font-size="13" fill="#6f6f6f">title</text><path fill="#DEDEDE" d="M262.377 6.5h20s2 0 2 2v12s0 2-2 2h-20s-2 0-2-2v-12s0-2 2-2"/><path fill="#6F6F6F" d="M271.188 19h-1.168l-4.75-7.56h-.047l.042.69c.016.254.028.527.036.819.012.287.017.58.017.88V19h-.941v-9h1.162l4.731 7.535h.042a157.13 157.13 0 01-.066-1.465 33.296 33.296 0 01-.011-.856V10h.953v9zM280.377 19h-1.168l-4.75-7.56h-.047l.042.69c.016.254.027.527.035.819.012.287.018.58.018.88V19h-.941v-9h1.162l4.731 7.535h.042a158.366 158.366 0 01-.066-1.465 33.065 33.065 0 01-.011-.856V10h.953v9z"/><text x="121.743" y="19.25" font-family="&quot;Open Sans&quot;,sans-serif" font-size="13" fill="#999">character varying(255)</text></svg><svg x="817.608" y="600.841"><path fill="#F2F2F2" d="M0 0h294.377v32H0z"/><text x="10" y="19.25" font-family="&quot;Open Sans&quot;,sans-serif" font-size="13" fill="#6f6f6f">description</text><text x="261.005" y="19.25" font-family="&quot;Open Sans&quot;,sans-serif" font-size="13" fill="#999">text</text></svg><svg x="817.608" y="632.841"><path fill="#F2F2F2" d="M0 0h294.377v32H0z"/><text x="10" y="19.25" font-family="&quot;Open Sans&quot;,sans-serif" font-size="13" fill="#6f6f6f">project_icon</text><text x="149.743" y="19.25" font-family="&quot;Open Sans&quot;,sans-serif" font-size="13" fill="#999">character varying(255)</text></svg><svg x="817.608" y="664.841"><path fill="#F2F2F2" d="M0 0h294.377v32H0z"/><text x="10" y="19.25" font-family="&quot;Open Sans&quot;,sans-serif" font-size="13" fill="#6f6f6f">taxonomic_scope_id</text><path fill="#DEDEDE" d="M262.377 6.5h20s2 0 2 2v12s0 2-2 2h-20s-2 0-2-2v-12s0-2 2-2"/><path fill="#6F6F6F" d="M271.188 19h-1.168l-4.75-7.56h-.047l.042.69c.016.254.028.527.036.819.012.287.017.58.017.88V19h-.941v-9h1.162l4.731 7.535h.042a157.13 157.13 0 01-.066-1.465 33.296 33.296 0 01-.011-.856V10h.953v9zM280.377 19h-1.168l-4.75-7.56h-.047l.042.69c.016.254.027.527.035.819.012.287.018.58.018.88V19h-.941v-9h1.162l4.731 7.535h.042a158.366 158.366 0 01-.066-1.465 33.065 33.065 0 01-.011-.856V10h.953v9z"/><text x="213.518" y="19.25" font-family="&quot;Open Sans&quot;,sans-serif" font-size="13" fill="#999">integer</text></svg><svg x="817.608" y="696.841"><path fill="#F2F2F2" d="M0 0h294.377v32H0z"/><text x="10" y="19.25" font-family="&quot;Open Sans&quot;,sans-serif" font-size="13" fill="#6f6f6f">created_by_id</text><text x="241.518" y="19.25" font-family="&quot;Open Sans&quot;,sans-serif" font-size="13" fill="#999">integer</text></svg><svg x="817.608" y="728.841"><path fill="#F2F2F2" d="M0 0h294.377v32H0z"/><text x="10" y="19.25" font-family="&quot;Open Sans&quot;,sans-serif" font-size="13" fill="#6f6f6f">updated_by_id</text><text x="241.518" y="19.25" font-family="&quot;Open Sans&quot;,sans-serif" font-size="13" fill="#999">integer</text></svg><svg y="480.398"><path fill="#316896" d="M0 0h327.563v32H0z"/><text x="10" y="19.25" font-family="&quot;Open Sans&quot;,sans-serif" font-size="13" font-weight="700" fill="#fff">users</text></svg><svg y="512.398"><path fill="#F2F2F2" d="M0 0h327.563v32H0z"/><text x="10" y="19.25" font-family="&quot;Open Sans&quot;,sans-serif" font-size="13" font-weight="700" fill="#6f6f6f">id</text><path fill="#6F6F6F" d="M32.756 10.234a2.953 2.953 0 11-1.1 5.695l-.868.868h-.657v.984h-.984v.985h-1.969v-1.97l2.752-2.75a2.953 2.953 0 012.826-3.81zm0-.984a3.937 3.937 0 00-3.9 4.477l-2.518 2.518a.493.493 0 00-.144.348v2.665c0 .272.22.492.492.492h2.953c.272 0 .492-.22.492-.492v-.492h.493c.271 0 .492-.22.492-.493v-.41l.821-.823a3.937 3.937 0 10.82-7.79zm0 2.953a.984.984 0 101.97 0 .984.984 0 00-1.97 0z"/><path fill="#DEDEDE" d="M295.563 6.5h20s2 0 2 2v12s0 2-2 2h-20s-2 0-2-2v-12s0-2 2-2"/><path fill="#6F6F6F" d="M304.374 19h-1.168l-4.75-7.56h-.047l.041.69c.016.254.028.527.036.819.012.287.018.58.018.88V19h-.942v-9h1.163l4.731 7.535h.042a157.13 157.13 0 01-.066-1.465 33.296 33.296 0 01-.012-.856V10h.954v9zM313.563 19h-1.168l-4.75-7.56h-.047c.011.202.025.431.041.69.016.254.028.527.036.819.012.287.018.58.018.88V19h-.942v-9h1.162l4.732 7.535h.041a158.366 158.366 0 01-.066-1.465 33.065 33.065 0 01-.01-.856V10h.952v9z"/><text x="251.87" y="19.25" font-family="&quot;Open Sans&quot;,sans-serif" font-size="13" font-weight="700" fill="#999">bigint</text></svg><svg y="544.398"><path fill="#F2F2F2" d="M0 0h327.563v32H0z"/><text x="10" y="19.25" font-family="&quot;Open Sans&quot;,sans-serif" font-size="13" fill="#6f6f6f">name</text><path fill="#DEDEDE" d="M295.563 6.5h20s2 0 2 2v12s0 2-2 2h-20s-2 0-2-2v-12s0-2 2-2"/><path fill="#6F6F6F" d="M304.374 19h-1.168l-4.75-7.56h-.047l.041.69c.016.254.028.527.036.819.012.287.018.58.018.88V19h-.942v-9h1.163l4.731 7.535h.042a157.13 157.13 0 01-.066-1.465 33.296 33.296 0 01-.012-.856V10h.954v9zM313.563 19h-1.168l-4.75-7.56h-.047c.011.202.025.431.041.69.016.254.028.527.036.819.012.287.018.58.018.88V19h-.942v-9h1.162l4.732 7.535h.041a158.366 158.366 0 01-.066-1.465 33.065 33.065 0 01-.01-.856V10h.952v9z"/><text x="154.929" y="19.25" font-family="&quot;Open Sans&quot;,sans-serif" font-size="13" fill="#999">character varying(255)</text></svg><svg y="576.398"><path fill="#F2F2F2" d="M0 0h327.563v32H0z"/><text x="10" y="19.25" font-family="&quot;Open Sans&quot;,sans-serif" font-size="13" fill="#6f6f6f">email</text><path fill="#DEDEDE" d="M295.563 6.5h20s2 0 2 2v12s0 2-2 2h-20s-2 0-2-2v-12s0-2 2-2"/><path fill="#6F6F6F" d="M304.374 19h-1.168l-4.75-7.56h-.047l.041.69c.016.254.028.527.036.819.012.287.018.58.018.88V19h-.942v-9h1.163l4.731 7.535h.042a157.13 157.13 0 01-.066-1.465 33.296 33.296 0 01-.012-.856V10h.954v9zM313.563 19h-1.168l-4.75-7.56h-.047c.011.202.025.431.041.69.016.254.028.527.036.819.012.287.018.58.018.88V19h-.942v-9h1.162l4.732 7.535h.041a158.366 158.366 0 01-.066-1.465 33.065 33.065 0 01-.01-.856V10h.952v9z"/><text x="154.929" y="19.25" font-family="&quot;Open Sans&quot;,sans-serif" font-size="13" fill="#999">character varying(255)</text></svg><svg y="608.398"><path fill="#F2F2F2" d="M0 0h327.563v32H0z"/><text x="10" y="19.25" font-family="&quot;Open Sans&quot;,sans-serif" font-size="13" fill="#6f6f6f">email_verified_at</text><text x="237.169" y="19.25" font-family="&quot;Open Sans&quot;,sans-serif" font-size="13" fill="#999">timestamp(0)</text></svg><svg y="640.398"><path fill="#F2F2F2" d="M0 0h327.563v32H0z"/><text x="10" y="19.25" font-family="&quot;Open Sans&quot;,sans-serif" font-size="13" fill="#6f6f6f">password</text><path fill="#DEDEDE" d="M295.563 6.5h20s2 0 2 2v12s0 2-2 2h-20s-2 0-2-2v-12s0-2 2-2"/><path fill="#6F6F6F" d="M304.374 19h-1.168l-4.75-7.56h-.047l.041.69c.016.254.028.527.036.819.012.287.018.58.018.88V19h-.942v-9h1.163l4.731 7.535h.042a157.13 157.13 0 01-.066-1.465 33.296 33.296 0 01-.012-.856V10h.954v9zM313.563 19h-1.168l-4.75-7.56h-.047c.011.202.025.431.041.69.016.254.028.527.036.819.012.287.018.58.018.88V19h-.942v-9h1.162l4.732 7.535h.041a158.366 158.366 0 01-.066-1.465 33.065 33.065 0 01-.01-.856V10h.952v9z"/><text x="154.929" y="19.25" font-family="&quot;Open Sans&quot;,sans-serif" font-size="13" fill="#999">character varying(255)</text></svg><svg y="672.398"><path fill="#F2F2F2" d="M0 0h327.563v32H0z"/><text x="10" y="19.25" font-family="&quot;Open Sans&quot;,sans-serif" font-size="13" fill="#6f6f6f">remember_token</text><text x="182.929" y="19.25" font-family="&quot;Open Sans&quot;,sans-serif" font-size="13" fill="#999">character varying(100)</text></svg><svg y="704.398"><path fill="#F2F2F2" d="M0 0h327.563v32H0z"/><text x="10" y="19.25" font-family="&quot;Open Sans&quot;,sans-serif" font-size="13" fill="#6f6f6f">created_at</text><text x="237.169" y="19.25" font-family="&quot;Open Sans&quot;,sans-serif" font-size="13" fill="#999">timestamp(0)</text></svg><svg y="736.398"><path fill="#F2F2F2" d="M0 0h327.563v32H0z"/><text x="10" y="19.25" font-family="&quot;Open Sans&quot;,sans-serif" font-size="13" fill="#6f6f6f">updated_at</text><text x="237.169" y="19.25" font-family="&quot;Open Sans&quot;,sans-serif" font-size="13" fill="#999">timestamp(0)</text></svg></svg>
